{"glyphs":{"0":{"ha":926,"x_min":81,"x_max":847,"o":"m 482 849 q 757 736 667 849 q 847 426 847 624 q 796 200 847 301 q 656 40 744 99 q 458 -18 567 -18 q 251 40 336 -18 q 123 196 165 97 q 81 417 81 294 q 135 642 81 543 q 281 794 189 740 q 482 849 372 849 m 457 758 q 327 676 364 758 q 290 439 290 593 q 311 267 290 351 q 372 128 332 183 q 471 74 413 74 q 602 158 567 69 q 638 415 638 246 q 593 661 638 564 q 457 758 549 758 z "},"1":{"ha":654,"x_min":57,"x_max":619,"o":"m 263 106 l 263 646 q 76 622 161 635 l 57 714 q 240 785 119 733 q 388 858 360 836 l 454 847 l 451 104 l 619 82 l 619 0 l 78 0 l 78 82 l 263 106 z "},"2":{"ha":842,"x_min":72,"x_max":793,"o":"m 72 74 q 381 319 253 185 q 508 567 508 453 q 469 684 510 635 q 351 733 429 733 q 119 636 239 733 l 72 710 q 217 813 115 768 q 415 857 318 857 q 569 826 503 857 q 673 740 636 794 q 710 618 710 685 q 597 355 710 481 q 285 106 483 229 l 646 146 l 711 229 l 793 204 l 747 0 l 101 0 l 72 74 z "},"3":{"ha":743,"x_min":36,"x_max":681,"o":"m 346 861 q 540 803 463 861 q 618 635 618 746 q 587 530 618 583 q 505 435 556 476 q 400 378 454 394 q 550 348 486 378 q 647 264 614 318 q 681 140 681 210 q 618 -44 681 39 q 448 -176 556 -128 q 211 -225 340 -225 q 81 -212 149 -225 l 81 -111 q 176 -122 124 -122 q 331 -92 260 -122 q 443 -6 401 -61 q 485 122 485 50 q 438 264 485 217 q 285 317 390 311 l 232 304 l 167 290 l 167 403 q 292 441 232 413 q 389 513 351 469 q 426 610 426 557 q 388 710 426 676 q 294 743 350 743 q 187 726 231 743 q 85 672 143 710 l 36 749 q 170 829 88 797 q 346 861 253 861 z "},"4":{"ha":869,"x_min":51,"x_max":825,"o":"m 118 193 q 324 558 243 411 q 478 864 404 704 l 535 864 l 657 778 l 488 517 q 263 168 350 307 l 210 99 l 531 126 l 535 407 l 696 436 l 696 142 l 825 153 l 825 0 l 696 0 l 696 -256 l 521 -256 l 526 0 l 79 0 l 51 79 l 118 193 z "},"5":{"ha":753,"x_min":82,"x_max":682,"o":"m 82 -142 q 122 -143 96 -143 q 300 -107 218 -143 q 431 -3 382 -71 q 481 156 481 64 q 427 319 481 267 q 279 372 374 372 q 144 351 218 372 l 88 375 l 135 839 l 536 839 l 556 858 l 642 858 l 594 686 l 268 686 l 221 451 q 372 479 292 479 q 528 444 457 479 q 640 342 599 410 q 682 178 682 274 q 610 -30 682 65 q 419 -181 539 -125 q 158 -237 299 -237 q 82 -229 110 -237 l 82 -142 z "},"6":{"ha":882,"x_min":82,"x_max":811,"o":"m 726 964 q 500 845 601 926 q 340 657 399 764 q 279 442 281 550 l 279 399 q 319 162 279 250 q 464 74 360 74 q 585 142 544 74 q 626 310 626 211 q 583 472 626 408 q 472 536 540 536 q 413 529 436 536 q 367 507 389 522 l 333 568 q 417 630 354 603 q 542 657 481 657 q 688 617 628 657 q 780 509 749 576 q 811 360 811 442 q 765 172 811 258 q 635 35 719 86 q 439 -15 550 -15 q 252 37 333 -15 q 126 178 171 89 q 82 378 82 268 q 167 685 82 542 q 392 924 253 829 q 683 1046 531 1019 l 726 964 z "},"7":{"ha":838,"x_min":89,"x_max":781,"o":"m 207 -154 q 624 742 383 179 l 257 725 l 197 592 l 89 596 l 118 850 l 747 850 l 781 815 l 400 -221 l 207 -154 z "},"8":{"ha":861,"x_min":76,"x_max":793,"o":"m 446 1058 q 599 1029 531 1058 q 707 945 667 1000 q 747 817 747 890 q 692 665 747 743 q 565 556 638 588 q 734 419 675 483 q 793 279 793 356 q 744 116 793 183 q 615 15 696 49 q 440 -18 535 -18 q 261 12 344 -18 q 127 103 178 42 q 76 253 76 164 q 133 413 76 338 q 292 531 190 488 q 169 649 213 586 q 126 792 126 713 q 171 937 126 876 q 288 1028 215 997 q 446 1058 361 1058 m 438 974 q 333 934 379 974 q 288 832 288 894 q 340 722 288 775 q 485 608 392 669 q 560 681 532 631 q 589 786 589 731 q 571 882 590 839 q 515 949 551 925 q 438 974 479 974 m 369 476 q 285 399 318 446 q 253 300 253 353 q 309 137 253 203 q 457 71 365 71 q 570 114 522 71 q 618 228 618 157 q 590 308 618 271 q 521 376 563 346 q 407 453 479 407 l 369 476 z "},"9":{"ha":879,"x_min":72,"x_max":796,"o":"m 175 -193 q 390 -63 294 -158 q 541 155 486 32 q 599 393 596 278 l 599 439 q 560 675 599 588 q 419 763 521 763 q 298 693 339 763 q 257 525 257 624 q 300 363 257 426 q 411 300 343 300 q 471 308 442 300 q 517 328 500 315 l 550 267 q 466 201 524 225 q 342 178 408 178 q 195 218 256 178 q 103 326 135 258 q 72 475 72 394 q 118 663 72 576 q 249 799 164 749 q 444 850 333 850 q 631 798 551 850 q 753 656 711 746 q 796 458 796 567 q 713 126 796 286 q 497 -142 631 -33 q 215 -276 363 -250 l 175 -193 z "},"\r":{"ha":0,"x_min":0,"x_max":0,"o":""}," ":{"ha":306,"x_min":0,"x_max":0,"o":""},"A":{"ha":1050,"x_min":3,"x_max":1047,"o":"m 96 104 l 438 1051 l 615 1051 l 943 103 l 1047 79 l 1047 0 l 629 0 l 629 79 l 731 104 l 683 258 l 303 258 l 254 106 l 360 79 l 360 0 l 3 0 l 3 79 l 96 104 m 557 668 l 497 872 l 336 365 l 649 365 l 557 668 z "},"Á":{"ha":1050,"x_min":3,"x_max":1047,"o":"m 690 1303 l 810 1181 q 665 1116 756 1143 q 504 1085 574 1089 l 450 1142 l 690 1303 m 96 104 l 438 1051 l 615 1051 l 943 103 l 1047 79 l 1047 0 l 629 0 l 629 79 l 731 104 l 683 258 l 303 258 l 254 106 l 360 79 l 360 0 l 3 0 l 3 79 l 96 104 m 557 668 l 497 872 l 336 365 l 649 365 l 557 668 z "},"Ă":{"ha":1050,"x_min":3,"x_max":1047,"o":"m 3 0 m 761 1331 q 731 1220 761 1271 q 646 1140 700 1169 q 525 1110 592 1110 q 403 1139 457 1110 q 318 1219 349 1168 q 288 1331 288 1269 l 392 1331 q 435 1262 407 1290 q 526 1233 464 1233 q 615 1261 586 1233 q 661 1331 644 1289 l 761 1331 m 96 104 l 438 1051 l 615 1051 l 943 103 l 1047 79 l 1047 0 l 629 0 l 629 79 l 731 104 l 683 258 l 303 258 l 254 106 l 360 79 l 360 0 l 3 0 l 3 79 l 96 104 m 557 668 l 497 872 l 336 365 l 649 365 l 557 668 z "},"Â":{"ha":1050,"x_min":3,"x_max":1047,"o":"m 451 1303 l 601 1303 l 778 1132 l 708 1089 l 528 1185 l 342 1089 l 275 1131 l 451 1303 m 96 104 l 438 1051 l 615 1051 l 943 103 l 1047 79 l 1047 0 l 629 0 l 629 79 l 731 104 l 683 258 l 303 258 l 254 106 l 360 79 l 360 0 l 3 0 l 3 79 l 96 104 m 557 668 l 497 872 l 336 365 l 649 365 l 557 668 z "},"Ä":{"ha":1050,"x_min":3,"x_max":1047,"o":"m 363 1307 q 442 1281 413 1307 q 472 1211 472 1256 q 433 1133 472 1164 q 344 1103 394 1103 q 269 1127 300 1103 q 238 1194 238 1151 q 276 1274 238 1242 q 363 1307 315 1307 m 707 1307 q 787 1282 758 1307 q 815 1213 815 1257 q 778 1134 815 1165 q 690 1103 742 1103 q 613 1128 644 1103 q 581 1196 581 1154 q 619 1275 581 1243 q 707 1307 658 1307 m 943 103 l 1047 79 l 1047 0 l 629 0 l 629 79 l 731 104 l 683 258 l 303 258 l 254 106 l 360 79 l 360 0 l 3 0 l 3 79 l 96 104 l 438 1051 l 615 1051 l 943 103 m 336 365 l 649 365 l 557 668 l 497 872 l 336 365 z "},"À":{"ha":1050,"x_min":3,"x_max":1047,"o":"m 544 1085 q 390 1117 478 1089 q 246 1181 303 1144 l 367 1303 l 599 1142 l 544 1085 m 96 104 l 438 1051 l 615 1051 l 943 103 l 1047 79 l 1047 0 l 629 0 l 629 79 l 731 104 l 683 258 l 303 258 l 254 106 l 360 79 l 360 0 l 3 0 l 3 79 l 96 104 m 557 668 l 497 872 l 336 365 l 649 365 l 557 668 z "},"Ā":{"ha":1050,"x_min":3,"x_max":1047,"o":"m 3 0 m 708 1272 l 708 1136 l 336 1136 l 336 1272 l 708 1272 m 96 104 l 438 1051 l 615 1051 l 943 103 l 1047 79 l 1047 0 l 629 0 l 629 79 l 731 104 l 683 258 l 303 258 l 254 106 l 360 79 l 360 0 l 3 0 l 3 79 l 96 104 m 557 668 l 497 872 l 336 365 l 649 365 l 557 668 z "},"Ą":{"ha":1050,"x_min":3,"x_max":1047,"o":"m 96 104 l 438 1051 l 615 1051 l 943 103 l 1047 79 l 1047 0 l 901 0 q 772 -79 833 -26 q 711 -175 711 -132 q 727 -217 711 -206 q 778 -232 743 -229 q 838 -224 808 -233 q 894 -204 868 -215 q 932 -189 919 -193 l 953 -268 q 830 -332 896 -308 q 675 -353 764 -356 q 572 -317 608 -351 q 536 -233 536 -282 q 606 -103 536 -171 q 760 0 676 -35 l 629 0 l 629 79 l 731 104 l 683 258 l 303 258 l 254 106 l 360 79 l 360 0 l 3 0 l 3 79 l 96 104 m 557 668 l 497 872 l 336 365 l 649 365 l 557 668 z "},"Å":{"ha":1050,"x_min":3,"x_max":1047,"o":"m 526 1303 q 659 1256 604 1303 q 714 1136 714 1208 q 692 1056 714 1092 q 633 997 671 1019 l 943 103 l 1047 79 l 1047 0 l 629 0 l 629 79 l 731 104 l 683 258 l 303 258 l 254 106 l 360 79 l 360 0 l 3 0 l 3 79 l 96 104 l 418 999 q 361 1056 382 1019 q 340 1136 340 1092 q 394 1256 340 1210 q 526 1303 447 1303 m 526 1218 q 466 1194 490 1218 q 442 1135 442 1171 q 466 1076 442 1100 q 526 1053 490 1053 q 585 1076 560 1053 q 610 1135 610 1100 q 585 1193 610 1168 q 526 1218 561 1218 m 336 365 l 649 365 l 557 668 l 497 872 l 336 365 z "},"Ã":{"ha":1050,"x_min":3,"x_max":1047,"o":"m 246 1172 q 331 1263 268 1222 q 447 1303 393 1303 q 501 1292 478 1303 q 556 1261 525 1282 q 597 1237 579 1244 q 632 1229 614 1229 q 750 1278 696 1229 l 799 1218 q 716 1130 775 1167 q 601 1093 657 1093 q 544 1104 569 1093 q 490 1136 519 1115 q 451 1161 468 1153 q 414 1169 433 1169 q 351 1155 383 1169 q 294 1119 318 1140 l 246 1172 m 96 104 l 438 1051 l 615 1051 l 943 103 l 1047 79 l 1047 0 l 629 0 l 629 79 l 731 104 l 683 258 l 303 258 l 254 106 l 360 79 l 360 0 l 3 0 l 3 79 l 96 104 m 557 668 l 497 872 l 336 365 l 649 365 l 557 668 z "},"Æ":{"ha":1314,"x_min":3,"x_max":1296,"o":"m 93 101 l 478 1053 l 1171 1053 l 1193 840 l 1089 839 l 1053 943 l 711 956 l 818 601 l 1026 606 l 1050 707 l 1138 707 l 1138 396 l 1049 396 l 1025 492 l 850 497 l 972 92 l 1129 108 l 1203 239 l 1296 211 l 1263 0 l 653 0 l 653 79 l 760 104 l 711 264 l 300 264 l 242 104 l 356 81 l 356 0 l 3 0 l 3 81 l 93 101 m 558 772 l 536 889 l 343 375 l 678 375 l 558 772 z "},"B":{"ha":975,"x_min":63,"x_max":928,"o":"m 171 104 l 171 947 l 65 960 l 65 1053 l 258 1053 q 299 1054 279 1053 q 335 1057 318 1056 q 483 1063 426 1063 q 760 1002 661 1063 q 858 818 858 942 q 810 657 858 724 q 672 568 761 590 q 801 533 743 568 q 894 440 860 499 q 928 313 928 382 q 809 72 928 151 q 467 -8 690 -8 q 394 -7 435 -8 q 332 -4 354 -6 q 283 -1 315 -3 q 226 0 250 0 l 63 0 l 63 79 l 171 104 m 365 600 q 435 594 396 594 q 482 594 474 594 q 626 646 581 594 q 672 796 672 697 q 619 926 672 882 q 468 971 565 971 q 415 969 446 971 q 367 961 385 968 l 365 600 m 365 107 q 426 90 382 97 q 517 83 471 83 q 669 139 614 83 q 724 293 724 194 q 669 444 724 392 q 513 497 615 497 l 451 497 q 365 492 393 497 l 365 107 z "},"C":{"ha":978,"x_min":51,"x_max":910,"o":"m 624 1063 q 755 1051 696 1063 q 879 1024 814 1040 l 908 1017 l 896 783 l 786 783 l 740 908 q 675 944 710 932 q 568 956 640 956 q 410 903 479 956 q 302 758 340 851 q 264 544 264 665 q 301 315 264 421 q 410 144 338 208 q 585 79 483 79 q 769 147 728 79 l 818 265 l 910 265 l 910 44 q 868 36 893 44 q 838 26 843 28 q 703 -7 764 6 q 560 -19 642 -19 q 296 44 411 -19 q 116 223 181 107 q 51 490 51 339 q 128 786 51 656 q 337 990 206 917 q 624 1063 468 1063 z "},"Ć":{"ha":978,"x_min":51,"x_max":910,"o":"m 51 0 m 624 1063 q 755 1051 696 1063 q 879 1024 814 1040 l 908 1017 l 896 783 l 786 783 l 740 908 q 675 944 710 932 q 568 956 640 956 q 410 903 479 956 q 302 758 340 851 q 264 544 264 665 q 301 315 264 421 q 410 144 338 208 q 585 79 483 79 q 769 147 728 79 l 818 265 l 910 265 l 910 44 q 868 36 893 44 q 838 26 843 28 q 703 -7 764 6 q 560 -19 642 -19 q 296 44 411 -19 q 116 223 181 107 q 51 490 51 339 q 128 786 51 656 q 337 990 206 917 q 624 1063 468 1063 m 708 1303 l 831 1181 q 684 1117 775 1144 q 524 1085 593 1089 l 469 1142 l 708 1303 z "},"Č":{"ha":978,"x_min":51,"x_max":910,"o":"m 51 0 m 624 1063 q 755 1051 696 1063 q 879 1024 814 1040 l 908 1017 l 896 783 l 786 783 l 740 908 q 675 944 710 932 q 568 956 640 956 q 410 903 479 956 q 302 758 340 851 q 264 544 264 665 q 301 315 264 421 q 410 144 338 208 q 585 79 483 79 q 769 147 728 79 l 818 265 l 910 265 l 910 44 q 868 36 893 44 q 838 26 843 28 q 703 -7 764 6 q 560 -19 642 -19 q 296 44 411 -19 q 116 223 181 107 q 51 490 51 339 q 128 786 51 656 q 337 990 206 917 q 624 1063 468 1063 m 369 1303 l 543 1204 l 725 1303 l 792 1261 l 619 1088 l 469 1088 l 297 1260 l 369 1303 z "},"Ç":{"ha":975,"x_min":51,"x_max":910,"o":"m 624 1063 q 755 1051 696 1063 q 879 1024 814 1040 l 908 1017 l 896 783 l 785 783 l 740 908 q 674 944 710 932 q 567 956 639 956 q 409 903 478 956 q 302 758 340 851 q 264 544 264 664 q 301 315 264 421 q 410 144 338 208 q 583 79 482 79 q 704 96 660 79 q 769 147 749 113 l 818 265 l 910 265 l 910 44 q 867 36 894 44 q 833 26 839 28 q 724 -3 775 8 q 615 -17 672 -14 q 618 -86 615 -44 q 733 -128 692 -90 q 774 -215 774 -167 q 718 -324 774 -287 q 572 -360 663 -360 q 514 -356 538 -360 q 471 -348 490 -353 q 443 -342 451 -343 l 443 -254 q 481 -260 458 -257 q 522 -262 504 -262 q 571 -251 554 -262 q 588 -208 588 -239 q 569 -173 588 -186 q 517 -160 551 -160 l 482 -161 q 490 -90 483 -132 q 507 -17 497 -49 q 267 60 371 -7 q 108 238 164 126 q 51 490 51 349 q 129 788 51 657 q 338 990 207 918 q 624 1063 469 1063 z "},"D":{"ha":1089,"x_min":67,"x_max":1036,"o":"m 171 104 l 171 947 l 69 960 l 69 1053 l 272 1053 q 404 1058 324 1053 q 458 1061 422 1060 q 521 1063 493 1063 q 906 931 776 1063 q 1036 556 1036 800 q 969 258 1036 385 q 781 62 901 131 q 506 -7 660 -7 q 404 -4 474 -7 q 276 0 346 0 l 67 0 l 67 79 l 171 104 m 367 110 q 494 88 417 88 q 540 89 525 88 q 691 148 625 93 q 794 297 757 203 q 831 513 831 392 q 743 851 831 736 q 494 967 656 967 q 422 963 450 967 q 367 950 394 958 l 367 110 z "},"Ð":{"ha":1088,"x_min":50,"x_max":1036,"o":"m 171 104 l 171 479 l 50 479 l 50 604 l 171 604 l 171 947 l 69 960 l 69 1053 l 272 1053 q 404 1058 324 1053 q 458 1061 422 1060 q 521 1063 493 1063 q 906 931 776 1063 q 1036 556 1036 800 q 969 258 1036 385 q 781 62 901 131 q 506 -7 660 -7 q 404 -4 474 -7 q 276 0 346 0 l 67 0 l 67 79 l 171 104 m 367 110 q 494 88 417 88 q 540 89 525 88 q 691 148 625 93 q 794 297 757 203 q 831 513 831 392 q 743 852 831 738 q 492 967 656 967 q 367 950 419 967 l 367 604 l 544 604 l 544 479 l 367 479 l 367 110 z "},"Ď":{"ha":1089,"x_min":67,"x_max":1036,"o":"m 67 0 m 171 104 l 171 947 l 69 960 l 69 1053 l 272 1053 q 404 1058 324 1053 q 458 1061 422 1060 q 521 1063 493 1063 q 906 931 776 1063 q 1036 556 1036 800 q 969 258 1036 385 q 781 62 901 131 q 506 -7 660 -7 q 404 -4 474 -7 q 276 0 346 0 l 67 0 l 67 79 l 171 104 m 367 110 q 494 88 417 88 q 540 89 525 88 q 691 148 625 93 q 794 297 757 203 q 831 513 831 392 q 743 851 831 736 q 494 967 656 967 q 422 963 450 967 q 367 950 394 958 l 367 110 m 333 1303 l 507 1204 l 689 1303 l 756 1261 l 583 1088 l 433 1088 l 261 1260 l 333 1303 z "},"Đ":{"ha":1088,"x_min":50,"x_max":1036,"o":"m 50 0 m 171 104 l 171 479 l 50 479 l 50 604 l 171 604 l 171 947 l 69 960 l 69 1053 l 272 1053 q 404 1058 324 1053 q 458 1061 422 1060 q 521 1063 493 1063 q 906 931 776 1063 q 1036 556 1036 800 q 969 258 1036 385 q 781 62 901 131 q 506 -7 660 -7 q 404 -4 474 -7 q 276 0 346 0 l 67 0 l 67 79 l 171 104 m 367 110 q 494 88 417 88 q 540 89 525 88 q 691 148 625 93 q 794 297 757 203 q 831 513 831 392 q 743 852 831 738 q 492 967 656 967 q 367 950 419 967 l 367 604 l 544 604 l 544 479 l 367 479 l 367 110 z "},"E":{"ha":932,"x_min":68,"x_max":893,"o":"m 174 103 l 174 947 l 72 960 l 72 1053 l 810 1053 l 829 840 l 718 840 l 671 947 l 368 960 l 368 589 l 575 596 l 604 699 l 704 699 l 704 386 l 604 386 l 575 489 l 368 493 l 368 94 l 707 111 l 786 244 l 893 222 l 860 0 l 68 0 l 68 79 l 174 103 z "},"É":{"ha":932,"x_min":68,"x_max":893,"o":"m 663 1303 l 783 1181 q 637 1117 728 1144 q 478 1085 546 1089 l 424 1142 l 663 1303 m 174 103 l 174 947 l 72 960 l 72 1053 l 810 1053 l 829 840 l 718 840 l 671 947 l 368 960 l 368 589 l 575 596 l 604 699 l 704 699 l 704 386 l 604 386 l 575 489 l 368 493 l 368 94 l 707 111 l 786 244 l 893 222 l 860 0 l 68 0 l 68 79 l 174 103 z "},"Ě":{"ha":932,"x_min":68,"x_max":893,"o":"m 68 0 m 174 103 l 174 947 l 72 960 l 72 1053 l 810 1053 l 829 840 l 718 840 l 671 947 l 368 960 l 368 589 l 575 596 l 604 699 l 704 699 l 704 386 l 604 386 l 575 489 l 368 493 l 368 94 l 707 111 l 786 244 l 893 222 l 860 0 l 68 0 l 68 79 l 174 103 m 294 1303 l 468 1204 l 650 1303 l 717 1261 l 544 1088 l 394 1088 l 222 1260 l 294 1303 z "},"Ê":{"ha":932,"x_min":68,"x_max":893,"o":"m 425 1303 l 574 1303 l 750 1132 l 681 1089 l 500 1185 l 314 1089 l 247 1131 l 425 1303 m 174 103 l 174 947 l 72 960 l 72 1053 l 810 1053 l 829 840 l 718 840 l 671 947 l 368 960 l 368 589 l 575 596 l 604 699 l 704 699 l 704 386 l 604 386 l 575 489 l 368 493 l 368 94 l 707 111 l 786 244 l 893 222 l 860 0 l 68 0 l 68 79 l 174 103 z "},"Ë":{"ha":932,"x_min":68,"x_max":893,"o":"m 335 1307 q 416 1282 386 1307 q 446 1211 446 1257 q 406 1133 446 1164 q 317 1103 367 1103 q 242 1127 274 1103 q 210 1194 210 1151 q 249 1274 210 1242 q 335 1307 288 1307 m 679 1307 q 758 1282 729 1307 q 786 1213 786 1257 q 750 1134 786 1165 q 663 1103 714 1103 q 585 1128 617 1103 q 553 1196 553 1154 q 592 1275 553 1243 q 679 1307 632 1307 m 829 840 l 718 840 l 671 947 l 368 960 l 368 589 l 575 596 l 604 699 l 704 699 l 704 386 l 604 386 l 575 489 l 368 493 l 368 94 l 707 111 l 786 244 l 893 222 l 860 0 l 68 0 l 68 79 l 174 103 l 174 947 l 72 960 l 72 1053 l 810 1053 l 829 840 z "},"Ė":{"ha":932,"x_min":68,"x_max":893,"o":"m 68 0 m 174 103 l 174 947 l 72 960 l 72 1053 l 810 1053 l 829 840 l 718 840 l 671 947 l 368 960 l 368 589 l 575 596 l 604 699 l 704 699 l 704 386 l 604 386 l 575 489 l 368 493 l 368 94 l 707 111 l 786 244 l 893 222 l 860 0 l 68 0 l 68 79 l 174 103 m 513 1338 q 614 1304 575 1338 q 653 1214 653 1271 q 603 1112 653 1151 q 489 1072 553 1072 q 392 1104 432 1072 q 353 1192 353 1136 q 376 1266 353 1232 q 436 1319 399 1300 q 513 1338 474 1338 z "},"È":{"ha":932,"x_min":68,"x_max":893,"o":"m 518 1085 q 369 1115 464 1086 q 219 1181 274 1144 l 340 1303 l 572 1142 l 518 1085 m 174 103 l 174 947 l 72 960 l 72 1053 l 810 1053 l 829 840 l 718 840 l 671 947 l 368 960 l 368 589 l 575 596 l 604 699 l 704 699 l 704 386 l 604 386 l 575 489 l 368 493 l 368 94 l 707 111 l 786 244 l 893 222 l 860 0 l 68 0 l 68 79 l 174 103 z "},"Ē":{"ha":932,"x_min":68,"x_max":893,"o":"m 68 0 m 174 103 l 174 947 l 72 960 l 72 1053 l 810 1053 l 829 840 l 718 840 l 671 947 l 368 960 l 368 589 l 575 596 l 604 699 l 704 699 l 704 386 l 604 386 l 575 489 l 368 493 l 368 94 l 707 111 l 786 244 l 893 222 l 860 0 l 68 0 l 68 79 l 174 103 m 693 1272 l 693 1136 l 321 1136 l 321 1272 l 693 1272 z "},"Ę":{"ha":932,"x_min":68,"x_max":897,"o":"m 174 103 l 174 947 l 72 960 l 72 1053 l 810 1053 l 829 840 l 718 840 l 671 947 l 368 960 l 368 589 l 575 596 l 604 699 l 704 699 l 704 386 l 604 386 l 575 489 l 368 493 l 368 94 l 707 111 l 786 244 l 893 222 l 860 0 l 844 0 q 717 -80 775 -28 q 658 -175 658 -132 q 674 -218 658 -207 q 724 -232 689 -229 q 784 -224 754 -233 q 840 -204 814 -215 q 878 -189 865 -193 l 897 -268 q 774 -332 840 -308 q 621 -353 708 -356 q 517 -317 553 -351 q 482 -231 482 -282 q 551 -102 482 -169 q 704 0 621 -35 l 68 0 l 68 79 l 174 103 z "},"F":{"ha":868,"x_min":63,"x_max":835,"o":"m 169 101 l 169 947 l 63 960 l 63 1053 l 818 1053 l 835 838 l 738 836 l 697 940 l 364 953 l 364 579 l 606 586 l 643 686 l 731 686 l 731 371 l 632 371 l 607 474 l 364 478 l 364 106 l 568 90 l 568 0 l 64 0 l 64 79 l 169 101 z "},"G":{"ha":1058,"x_min":51,"x_max":1013,"o":"m 604 1063 q 791 1050 700 1063 q 935 1022 882 1038 l 921 806 l 819 806 l 769 922 q 710 951 758 938 q 582 965 661 965 q 413 912 486 965 q 299 764 339 858 q 260 549 260 669 q 292 314 260 421 q 394 141 325 207 q 568 75 464 75 q 685 94 631 75 q 761 154 740 114 l 761 371 l 613 388 l 613 481 l 1013 481 l 1013 388 l 942 372 l 942 47 q 886 42 918 49 q 788 21 854 36 q 642 -10 699 0 q 529 -19 586 -19 q 280 48 389 -19 q 111 233 171 115 q 51 499 51 351 q 123 796 51 668 q 321 993 194 924 q 604 1063 447 1063 z "},"Ğ":{"ha":1058,"x_min":51,"x_max":1013,"o":"m 51 0 m 604 1063 q 791 1050 700 1063 q 935 1022 882 1038 l 921 806 l 819 806 l 769 922 q 710 951 758 938 q 582 965 661 965 q 413 912 486 965 q 299 764 339 858 q 260 549 260 669 q 292 314 260 421 q 394 141 325 207 q 568 75 464 75 q 685 94 631 75 q 761 154 740 114 l 761 371 l 613 388 l 613 481 l 1013 481 l 1013 388 l 942 372 l 942 47 q 886 42 918 49 q 788 21 854 36 q 642 -10 699 0 q 529 -19 586 -19 q 280 48 389 -19 q 111 233 171 115 q 51 499 51 351 q 123 796 51 668 q 321 993 194 924 q 604 1063 447 1063 m 814 1303 q 783 1192 814 1243 q 699 1112 753 1142 q 578 1082 644 1082 q 456 1111 510 1082 q 371 1191 401 1140 q 340 1303 340 1242 l 444 1303 q 488 1234 460 1263 q 579 1206 517 1206 q 668 1233 639 1206 q 714 1303 697 1261 l 814 1303 z "},"Ģ":{"ha":1058,"x_min":51,"x_max":1013,"o":"m 51 0 m 604 1063 q 791 1050 700 1063 q 935 1022 882 1038 l 921 806 l 819 806 l 769 922 q 710 951 758 938 q 582 965 661 965 q 413 912 486 965 q 299 764 339 858 q 260 549 260 669 q 292 314 260 421 q 394 141 325 207 q 568 75 464 75 q 685 94 631 75 q 761 154 740 114 l 761 371 l 613 388 l 613 481 l 1013 481 l 1013 388 l 942 372 l 942 47 q 886 42 918 49 q 788 21 854 36 q 642 -10 699 0 q 529 -19 586 -19 q 280 48 389 -19 q 111 233 171 115 q 51 499 51 351 q 123 796 51 668 q 321 993 194 924 q 604 1063 447 1063 m 546 -24 q 663 -86 619 -33 q 706 -208 706 -139 q 678 -309 706 -261 q 610 -390 650 -357 q 532 -435 569 -424 l 468 -399 l 468 -382 q 532 -256 532 -339 q 508 -192 532 -219 q 457 -164 483 -164 l 457 -118 l 546 -24 z "},"H":{"ha":1182,"x_min":57,"x_max":1135,"o":"m 172 104 l 172 947 l 57 960 l 57 1053 l 482 1053 l 482 960 l 368 947 l 368 578 l 818 578 l 818 949 l 704 960 l 704 1053 l 1128 1053 l 1128 960 l 1013 947 l 1013 104 l 1135 79 l 1135 0 l 697 0 l 697 79 l 818 104 l 818 469 l 368 469 l 368 104 l 489 79 l 489 0 l 58 0 l 58 79 l 172 104 z "},"I":{"ha":547,"x_min":49,"x_max":499,"o":"m 175 104 l 175 947 l 50 960 l 50 1053 l 490 1053 l 490 960 l 372 946 l 372 104 l 499 79 l 499 0 l 49 0 l 49 79 l 175 104 z "},"Ĳ":{"ha":1058,"x_min":49,"x_max":1017,"o":"m 175 104 l 175 947 l 50 960 l 50 1053 l 490 1053 l 490 960 l 372 946 l 372 104 l 499 79 l 499 0 l 49 0 l 49 79 l 175 104 m 479 -207 q 688 -36 640 -147 q 713 93 707 24 q 719 274 719 163 l 719 947 l 615 960 l 615 1053 l 1017 1053 l 1017 960 l 917 947 l 917 379 q 911 154 917 246 q 889 4 906 63 q 806 -135 865 -75 q 669 -228 746 -194 q 521 -267 593 -261 l 479 -207 z "},"Í":{"ha":547,"x_min":49,"x_max":557,"o":"m 436 1303 l 557 1181 q 410 1117 501 1144 q 251 1085 319 1089 l 197 1142 l 436 1303 m 175 104 l 175 947 l 50 960 l 50 1053 l 490 1053 l 490 960 l 372 946 l 372 104 l 499 79 l 499 0 l 49 0 l 49 79 l 175 104 z "},"Î":{"ha":547,"x_min":22,"x_max":525,"o":"m 200 1303 l 349 1303 l 525 1132 l 456 1089 l 275 1185 l 89 1089 l 22 1131 l 200 1303 m 175 104 l 175 947 l 50 960 l 50 1053 l 490 1053 l 490 960 l 372 946 l 372 104 l 499 79 l 499 0 l 49 0 l 49 79 l 175 104 z "},"Ï":{"ha":547,"x_min":-17,"x_max":560,"o":"m 108 1307 q 188 1282 158 1307 q 218 1211 218 1257 q 179 1133 218 1164 q 89 1103 140 1103 q 15 1127 46 1103 q -17 1194 -17 1151 q 22 1274 -17 1242 q 108 1307 61 1307 m 453 1307 q 531 1282 503 1307 q 560 1213 560 1257 q 524 1134 560 1165 q 436 1103 488 1103 q 358 1128 390 1103 q 326 1196 326 1154 q 365 1275 326 1243 q 453 1307 404 1307 m 490 960 l 372 946 l 372 104 l 499 79 l 499 0 l 49 0 l 49 79 l 175 104 l 175 947 l 50 960 l 50 1053 l 490 1053 l 490 960 z "},"İ":{"ha":547,"x_min":49,"x_max":499,"o":"m 49 0 m 175 104 l 175 947 l 50 960 l 50 1053 l 490 1053 l 490 960 l 372 946 l 372 104 l 499 79 l 499 0 l 49 0 l 49 79 l 175 104 m 282 1338 q 383 1304 344 1338 q 422 1214 422 1271 q 372 1112 422 1151 q 258 1072 322 1072 q 162 1104 201 1072 q 122 1192 122 1136 q 145 1266 122 1232 q 206 1319 168 1300 q 282 1338 243 1338 z "},"Ì":{"ha":547,"x_min":-7,"x_max":499,"o":"m 292 1085 q 142 1115 238 1086 q -7 1181 47 1144 l 114 1303 l 346 1142 l 292 1085 m 175 104 l 175 947 l 50 960 l 50 1053 l 490 1053 l 490 960 l 372 946 l 372 104 l 499 79 l 499 0 l 49 0 l 49 79 l 175 104 z "},"Ī":{"ha":539,"x_min":49,"x_max":499,"o":"m 49 0 m 456 1286 l 456 1150 l 83 1150 l 83 1286 l 456 1286 m 175 104 l 175 947 l 50 960 l 50 1053 l 490 1053 l 490 960 l 372 946 l 372 104 l 499 79 l 499 0 l 49 0 l 49 79 l 175 104 z "},"Į":{"ha":547,"x_min":49,"x_max":499,"o":"m 440 0 q 356 -42 400 -12 q 282 -108 311 -72 q 253 -172 253 -144 q 268 -217 253 -203 q 317 -232 283 -232 q 424 -206 356 -232 l 443 -283 q 343 -335 403 -318 q 215 -353 283 -353 q 115 -319 154 -353 q 75 -231 75 -285 q 147 -102 75 -171 q 304 0 218 -33 l 49 0 l 49 79 l 175 104 l 175 947 l 50 960 l 50 1053 l 490 1053 l 490 960 l 372 946 l 372 104 l 499 79 l 499 0 l 440 0 z "},"Ĩ":{"ha":547,"x_min":-8,"x_max":544,"o":"m -8 1172 q 76 1263 14 1222 q 192 1303 138 1303 q 246 1292 222 1303 q 300 1261 269 1282 q 341 1237 324 1244 q 376 1229 358 1229 q 494 1278 440 1229 l 544 1218 q 460 1130 519 1167 q 346 1093 401 1093 q 289 1104 314 1093 q 235 1136 264 1115 q 195 1161 213 1153 q 158 1169 178 1169 q 97 1155 129 1169 q 39 1119 64 1140 l -8 1172 m 175 104 l 175 947 l 50 960 l 50 1053 l 490 1053 l 490 960 l 372 946 l 372 104 l 499 79 l 499 0 l 49 0 l 49 79 l 175 104 z "},"J":{"ha":511,"x_min":-67,"x_max":471,"o":"m 471 960 l 371 947 l 371 379 q 365 158 371 251 q 343 4 360 64 q 260 -134 319 -75 q 124 -227 200 -193 q -25 -267 49 -261 l -67 -207 q 140 -36 92 -150 q 167 92 161 24 q 174 274 174 161 l 174 947 l 69 960 l 69 1053 l 471 1053 l 471 960 z "},"Ĵ":{"ha":511,"x_min":-67,"x_max":521,"o":"m 521 1132 l 451 1089 l 271 1185 l 85 1089 l 18 1131 l 196 1303 l 344 1303 l 521 1132 m 471 960 l 371 947 l 371 379 q 365 158 371 251 q 343 4 360 64 q 260 -134 319 -75 q 124 -227 200 -193 q -25 -267 49 -261 l -67 -207 q 140 -36 92 -150 q 167 92 161 24 q 174 274 174 161 l 174 947 l 69 960 l 69 1053 l 471 1053 l 471 960 z "},"K":{"ha":1003,"x_min":51,"x_max":1017,"o":"m 174 104 l 174 946 l 53 960 l 53 1053 l 485 1053 l 485 960 l 368 946 l 368 529 l 706 947 l 601 960 l 599 1053 l 985 1053 l 985 960 l 865 946 l 565 606 q 643 506 600 571 q 753 332 686 440 q 858 167 819 222 q 917 106 896 111 l 1017 79 l 1017 0 l 761 0 q 707 53 739 1 q 622 214 675 106 q 530 390 565 328 q 460 486 494 453 l 368 382 l 368 104 l 500 79 l 500 0 l 51 0 l 51 79 l 174 104 z "},"Ķ":{"ha":1003,"x_min":51,"x_max":1017,"o":"m 51 0 m 174 104 l 174 946 l 53 960 l 53 1053 l 485 1053 l 485 960 l 368 946 l 368 529 l 706 947 l 601 960 l 599 1053 l 985 1053 l 985 960 l 865 946 l 565 606 q 643 506 600 571 q 753 332 686 440 q 858 167 819 222 q 917 106 896 111 l 1017 79 l 1017 0 l 761 0 q 707 53 739 1 q 622 214 675 106 q 530 390 565 328 q 460 486 494 453 l 368 382 l 368 104 l 500 79 l 500 0 l 51 0 l 51 79 l 174 104 m 535 -24 q 651 -86 608 -33 q 694 -208 694 -139 q 667 -309 694 -261 q 599 -390 639 -357 q 521 -435 558 -424 l 457 -399 l 457 -382 q 521 -256 521 -339 q 497 -192 521 -219 q 446 -164 472 -164 l 446 -118 l 535 -24 z "},"L":{"ha":860,"x_min":67,"x_max":843,"o":"m 171 103 l 171 936 l 71 949 l 71 1053 l 486 1053 l 486 949 l 367 936 l 367 99 l 658 119 l 758 279 l 843 244 l 797 0 l 67 0 l 67 79 l 171 103 z "},"Ĺ":{"ha":860,"x_min":67,"x_max":843,"o":"m 67 0 m 171 103 l 171 936 l 71 949 l 71 1053 l 486 1053 l 486 949 l 367 936 l 367 99 l 658 119 l 758 279 l 843 244 l 797 0 l 67 0 l 67 79 l 171 103 m 432 1303 l 554 1181 q 408 1117 499 1144 q 247 1085 317 1089 l 193 1142 l 432 1303 z "},"Ľ":{"ha":860,"x_min":67,"x_max":843,"o":"m 67 0 m 171 103 l 171 936 l 71 949 l 71 1053 l 486 1053 l 486 949 l 367 936 l 367 99 l 658 119 l 758 279 l 843 244 l 797 0 l 67 0 l 67 79 l 171 103 m 603 728 q 617 925 617 815 q 606 1023 617 976 q 582 1086 594 1069 l 592 1115 l 739 1151 q 772 1078 758 1132 q 785 969 785 1024 q 758 808 785 890 q 697 685 732 726 l 607 710 l 603 728 z "},"Ļ":{"ha":860,"x_min":67,"x_max":843,"o":"m 67 0 m 171 103 l 171 936 l 71 949 l 71 1053 l 486 1053 l 486 949 l 367 936 l 367 99 l 658 119 l 758 279 l 843 244 l 797 0 l 67 0 l 67 79 l 171 103 m 403 -24 q 519 -86 476 -33 q 563 -208 563 -139 q 535 -309 563 -261 q 467 -390 507 -357 q 389 -435 426 -424 l 325 -399 l 325 -382 q 389 -256 389 -339 q 365 -192 389 -219 q 314 -164 340 -164 l 314 -118 l 403 -24 z "},"Ŀ":{"ha":957,"x_min":67,"x_max":951,"o":"m 486 949 l 367 936 l 367 99 l 658 119 l 758 279 l 843 244 l 797 0 l 67 0 l 67 79 l 171 103 l 171 936 l 71 949 l 71 1053 l 486 1053 l 486 949 m 832 697 q 920 665 889 697 q 951 582 951 633 q 910 489 951 525 q 813 451 868 453 q 727 482 763 451 q 692 563 692 513 q 713 630 692 599 q 766 679 733 661 q 832 697 799 697 z "},"Ł":{"ha":858,"x_min":57,"x_max":844,"o":"m 486 949 l 368 936 l 367 592 l 544 665 l 693 725 l 693 572 l 367 447 l 367 99 l 658 119 l 760 279 l 844 244 l 799 0 l 68 0 l 68 79 l 171 103 l 171 371 l 57 326 l 57 394 l 57 464 l 171 511 l 171 936 l 71 949 l 71 1053 l 486 1053 l 486 949 z "},"M":{"ha":1369,"x_min":47,"x_max":1347,"o":"m 163 104 l 218 935 l 90 949 l 90 1053 l 486 1053 l 683 429 l 711 308 l 740 431 l 928 1053 l 1290 1053 l 1290 949 l 1167 935 l 1239 104 l 1347 79 l 1347 0 l 944 0 l 944 79 l 1054 104 l 1007 667 l 1004 924 l 981 825 l 718 -11 l 649 -11 l 413 683 l 361 838 l 332 926 l 331 724 l 304 106 l 428 79 l 428 0 l 47 0 l 47 79 l 163 104 z "},"N":{"ha":1143,"x_min":61,"x_max":1096,"o":"m 1096 950 l 996 936 l 996 0 l 785 0 l 385 653 l 303 838 l 304 107 l 438 79 l 438 0 l 61 0 l 61 79 l 171 106 l 171 936 l 67 949 l 67 1053 l 364 1053 l 788 336 l 864 163 l 864 935 l 749 950 l 749 1053 l 1096 1053 l 1096 950 z "},"Ń":{"ha":1143,"x_min":61,"x_max":1096,"o":"m 61 0 m 1096 950 l 996 936 l 996 0 l 785 0 l 385 653 l 303 838 l 304 107 l 438 79 l 438 0 l 61 0 l 61 79 l 171 106 l 171 936 l 67 949 l 67 1053 l 364 1053 l 788 336 l 864 163 l 864 935 l 749 950 l 749 1053 l 1096 1053 l 1096 950 m 743 1303 l 865 1181 q 719 1117 810 1144 q 558 1085 628 1089 l 504 1142 l 743 1303 z "},"Ň":{"ha":1143,"x_min":61,"x_max":1096,"o":"m 61 0 m 1096 950 l 996 936 l 996 0 l 785 0 l 385 653 l 303 838 l 304 107 l 438 79 l 438 0 l 61 0 l 61 79 l 171 106 l 171 936 l 67 949 l 67 1053 l 364 1053 l 788 336 l 864 163 l 864 935 l 749 950 l 749 1053 l 1096 1053 l 1096 950 m 415 1303 l 589 1204 l 771 1303 l 838 1261 l 665 1088 l 515 1088 l 343 1260 l 415 1303 z "},"Ņ":{"ha":1143,"x_min":61,"x_max":1096,"o":"m 61 0 m 1096 950 l 996 936 l 996 0 l 785 0 l 385 653 l 303 838 l 304 107 l 438 79 l 438 0 l 61 0 l 61 79 l 171 106 l 171 936 l 67 949 l 67 1053 l 364 1053 l 788 336 l 864 163 l 864 935 l 749 950 l 749 1053 l 1096 1053 l 1096 950 m 567 -24 q 683 -86 640 -33 q 726 -208 726 -139 q 699 -309 726 -261 q 631 -390 671 -357 q 553 -435 590 -424 l 489 -399 l 489 -382 q 553 -256 553 -339 q 528 -192 553 -219 q 478 -164 504 -164 l 478 -118 l 567 -24 z "},"Ñ":{"ha":1143,"x_min":61,"x_max":1096,"o":"m 61 0 m 1096 950 l 996 936 l 996 0 l 785 0 l 385 653 l 303 838 l 304 107 l 438 79 l 438 0 l 61 0 l 61 79 l 171 106 l 171 936 l 67 949 l 67 1053 l 364 1053 l 788 336 l 864 163 l 864 935 l 749 950 l 749 1053 l 1096 1053 l 1096 950 m 300 1172 q 384 1263 321 1222 q 500 1303 447 1303 q 555 1292 531 1303 q 611 1261 579 1282 q 650 1238 633 1246 q 685 1229 667 1229 q 803 1278 749 1229 l 853 1218 q 769 1130 829 1167 q 656 1093 710 1093 q 599 1104 622 1093 q 543 1136 575 1115 q 503 1161 519 1153 q 468 1169 488 1169 q 405 1155 438 1169 q 349 1119 372 1140 l 300 1172 z "},"O":{"ha":1069,"x_min":53,"x_max":1024,"o":"m 560 1063 q 806 994 700 1063 q 967 804 911 925 q 1021 532 1024 683 q 953 243 1017 368 q 779 49 889 118 q 529 -19 669 -19 q 279 47 388 -19 q 112 231 171 114 q 53 497 53 349 q 119 788 53 660 q 297 986 185 917 q 560 1063 417 1063 m 542 967 q 335 845 401 967 q 269 511 269 724 q 302 302 269 403 q 397 138 335 201 q 544 75 460 75 q 744 194 683 75 q 806 533 806 313 q 774 751 806 653 q 682 908 742 850 q 542 967 622 967 z "},"Ó":{"ha":1069,"x_min":53,"x_max":1019,"o":"m 828 1181 q 683 1116 774 1143 q 522 1085 592 1089 l 468 1142 l 708 1303 l 828 1181 m 560 1063 q 801 996 697 1063 q 963 813 906 929 q 1019 549 1019 696 q 957 251 1019 381 q 783 51 894 122 q 528 -19 671 -19 q 278 47 386 -19 q 112 231 171 114 q 53 497 53 349 q 119 790 53 661 q 301 991 186 919 q 560 1063 417 1063 m 542 967 q 335 845 401 967 q 269 511 269 724 q 302 302 269 403 q 397 138 335 201 q 544 75 460 75 q 744 194 683 75 q 806 533 806 313 q 774 751 806 653 q 682 908 742 850 q 542 967 622 967 z "},"Ô":{"ha":1069,"x_min":53,"x_max":1019,"o":"m 796 1132 l 726 1089 l 546 1185 l 360 1089 l 293 1131 l 469 1303 l 619 1303 l 796 1132 m 560 1063 q 801 996 697 1063 q 963 813 906 929 q 1019 549 1019 696 q 957 251 1019 381 q 783 51 894 122 q 528 -19 671 -19 q 278 47 386 -19 q 112 231 171 114 q 53 497 53 349 q 119 790 53 661 q 301 991 186 919 q 560 1063 417 1063 m 542 967 q 335 845 401 967 q 269 511 269 724 q 302 302 269 403 q 397 138 335 201 q 544 75 460 75 q 744 194 683 75 q 806 533 806 313 q 774 751 806 653 q 682 908 742 850 q 542 967 622 967 z "},"Ö":{"ha":1069,"x_min":53,"x_max":1024,"o":"m 53 0 m 560 1063 q 806 994 700 1063 q 967 804 911 925 q 1021 532 1024 683 q 953 243 1017 368 q 779 49 889 118 q 529 -19 669 -19 q 279 47 388 -19 q 112 231 171 114 q 53 497 53 349 q 119 788 53 660 q 297 986 185 917 q 560 1063 417 1063 m 542 967 q 335 845 401 967 q 269 511 269 724 q 302 302 269 403 q 397 138 335 201 q 544 75 460 75 q 744 194 683 75 q 806 533 806 313 q 774 751 806 653 q 682 908 742 850 q 542 967 622 967 m 313 1307 q 392 1282 363 1307 q 422 1211 422 1257 q 383 1133 422 1164 q 294 1103 344 1103 q 219 1127 251 1103 q 188 1194 188 1151 q 226 1274 188 1242 q 313 1307 265 1307 m 793 1307 q 873 1282 844 1307 q 901 1213 901 1257 q 865 1134 901 1165 q 776 1103 828 1103 q 699 1128 731 1103 q 668 1196 668 1154 q 707 1274 668 1242 q 793 1307 746 1307 z "},"Ò":{"ha":1069,"x_min":53,"x_max":1024,"o":"m 53 0 m 560 1063 q 806 994 700 1063 q 967 804 911 925 q 1021 532 1024 683 q 953 243 1017 368 q 779 49 889 118 q 529 -19 669 -19 q 279 47 388 -19 q 112 231 171 114 q 53 497 53 349 q 119 788 53 660 q 297 986 185 917 q 560 1063 417 1063 m 542 967 q 335 845 401 967 q 269 511 269 724 q 302 302 269 403 q 397 138 335 201 q 544 75 460 75 q 744 194 683 75 q 806 533 806 313 q 774 751 806 653 q 682 908 742 850 q 542 967 622 967 m 564 1085 q 415 1115 510 1086 q 265 1181 319 1144 l 386 1303 l 619 1142 l 564 1085 z "},"Ő":{"ha":1069,"x_min":53,"x_max":1024,"o":"m 53 0 m 560 1063 q 806 994 700 1063 q 967 804 911 925 q 1021 532 1024 683 q 953 243 1017 368 q 779 49 889 118 q 529 -19 669 -19 q 279 47 388 -19 q 112 231 171 114 q 53 497 53 349 q 119 788 53 660 q 297 986 185 917 q 560 1063 417 1063 m 542 967 q 335 845 401 967 q 269 511 269 724 q 302 302 269 403 q 397 138 335 201 q 544 75 460 75 q 744 194 683 75 q 806 533 806 313 q 774 751 806 653 q 682 908 742 850 q 542 967 622 967 m 489 1411 l 611 1310 q 484 1173 564 1246 q 351 1072 404 1100 l 282 1128 l 489 1411 m 850 1411 l 976 1310 q 842 1168 922 1240 q 711 1072 763 1096 l 644 1128 l 850 1411 z "},"Ō":{"ha":1072,"x_min":53,"x_max":1024,"o":"m 53 0 m 722 1286 l 722 1150 l 350 1150 l 350 1286 l 722 1286 m 560 1063 q 806 994 700 1063 q 967 804 911 925 q 1021 532 1024 683 q 953 243 1017 368 q 779 49 889 118 q 529 -19 669 -19 q 279 47 388 -19 q 112 231 171 114 q 53 497 53 349 q 119 788 53 660 q 297 986 185 917 q 560 1063 417 1063 m 542 967 q 335 845 401 967 q 269 511 269 724 q 302 302 269 403 q 397 138 335 201 q 544 75 460 75 q 744 194 683 75 q 806 533 806 313 q 774 751 806 653 q 682 908 742 850 q 542 967 622 967 z "},"Ø":{"ha":1069,"x_min":53,"x_max":1019,"o":"m 329 21 q 126 205 199 79 q 53 493 53 331 q 118 785 53 657 q 297 988 183 914 q 551 1063 411 1061 q 700 1042 632 1064 l 738 1149 l 811 1121 l 772 1013 q 954 827 889 951 q 1019 549 1019 703 q 958 253 1019 382 q 785 53 896 125 q 533 -19 674 -18 q 406 -6 471 -19 l 351 -140 l 278 -114 l 329 21 m 654 932 q 542 967 603 967 q 335 845 401 967 q 269 511 269 724 q 300 313 269 411 q 385 154 331 215 l 654 932 m 450 99 q 544 75 493 75 q 743 194 682 75 q 804 533 804 314 q 781 717 804 629 q 715 868 758 806 l 450 99 z "},"Õ":{"ha":1069,"x_min":53,"x_max":1024,"o":"m 53 0 m 560 1063 q 806 994 700 1063 q 967 804 911 925 q 1021 532 1024 683 q 953 243 1017 368 q 779 49 889 118 q 529 -19 669 -19 q 279 47 388 -19 q 112 231 171 114 q 53 497 53 349 q 119 788 53 660 q 297 986 185 917 q 560 1063 417 1063 m 542 967 q 335 845 401 967 q 269 511 269 724 q 302 302 269 403 q 397 138 335 201 q 544 75 460 75 q 744 194 683 75 q 806 533 806 313 q 774 751 806 653 q 682 908 742 850 q 542 967 622 967 m 263 1172 q 347 1263 283 1222 q 463 1303 410 1303 q 517 1292 493 1303 q 574 1261 542 1282 q 613 1238 596 1246 q 647 1229 629 1229 q 765 1278 711 1229 l 815 1218 q 732 1130 792 1167 q 618 1093 672 1093 q 561 1104 585 1093 q 506 1136 538 1115 q 466 1161 482 1153 q 431 1169 450 1169 q 367 1155 400 1169 q 311 1119 335 1140 l 263 1172 z "},"Œ":{"ha":1454,"x_min":53,"x_max":1421,"o":"m 551 1063 q 654 1053 596 1064 l 1333 1053 l 1354 840 l 1253 840 l 1206 947 l 911 960 l 911 586 l 1118 593 l 1144 696 l 1236 696 l 1236 382 l 1144 382 l 1118 486 l 911 490 l 911 94 l 1244 111 l 1324 244 l 1421 222 l 1388 0 l 663 0 q 528 -19 596 -19 q 278 47 386 -19 q 112 231 171 114 q 53 497 53 349 q 119 789 53 661 q 299 989 185 917 q 551 1063 413 1061 m 542 967 q 335 845 401 967 q 269 511 269 724 q 302 302 269 403 q 397 138 335 201 q 544 75 460 75 q 719 153 653 75 l 719 864 q 640 940 683 914 q 542 967 597 967 z "},"P":{"ha":904,"x_min":49,"x_max":890,"o":"m 171 104 l 171 936 l 58 954 l 58 1053 l 271 1053 q 363 1057 308 1053 q 508 1063 451 1063 q 792 992 693 1063 q 890 751 890 921 q 838 568 890 646 q 695 449 785 490 q 499 407 606 407 q 364 404 400 407 l 364 104 l 536 79 l 536 0 l 49 0 l 49 79 l 171 104 m 364 510 q 486 501 411 501 q 640 563 583 501 q 696 757 696 624 q 636 913 696 858 q 475 967 576 967 q 364 954 411 967 l 364 510 z "},"Þ":{"ha":907,"x_min":38,"x_max":893,"o":"m 171 104 l 171 946 l 38 960 l 38 1053 l 492 1053 l 492 960 l 365 946 l 365 828 q 394 831 385 831 q 526 842 481 842 q 796 772 699 842 q 893 558 893 701 q 841 372 893 450 q 700 255 789 294 q 501 215 611 215 q 365 219 408 215 l 365 104 l 540 79 l 540 0 l 53 0 l 53 79 l 171 104 m 365 315 q 483 310 400 310 q 635 369 576 310 q 693 549 693 428 q 633 691 693 640 q 469 742 574 742 q 365 731 432 742 l 365 315 z "},"Q":{"ha":1069,"x_min":54,"x_max":1021,"o":"m 561 1063 q 803 996 699 1063 q 965 812 908 929 q 1021 549 1021 694 q 975 290 1021 406 q 844 97 929 174 q 644 -6 758 21 q 728 -83 671 -64 q 860 -103 786 -103 q 994 -76 929 -103 l 1001 -197 q 928 -239 976 -224 q 825 -254 881 -254 q 546 -19 603 -254 l 535 -19 q 283 48 392 -19 q 114 231 174 115 q 54 488 54 346 q 128 804 54 668 q 332 1008 203 940 q 561 1063 435 1063 m 542 967 q 335 845 401 967 q 269 511 269 724 q 302 302 269 403 q 397 138 335 201 q 544 75 460 75 q 744 194 683 75 q 806 533 806 314 q 776 742 806 643 q 686 904 746 842 q 542 967 626 967 z "},"R":{"ha":1000,"x_min":50,"x_max":1011,"o":"m 488 1063 q 872 785 872 1063 q 814 593 872 672 q 647 475 756 514 q 674 458 664 467 q 746 381 713 431 q 826 249 779 331 q 887 147 863 183 q 933 103 911 111 l 1011 79 l 1011 0 l 765 0 q 715 44 740 0 q 647 183 689 88 q 546 381 589 313 q 451 446 503 449 q 365 443 417 443 l 365 103 l 500 79 l 500 0 l 50 0 l 50 79 l 171 104 l 171 939 l 65 954 l 65 1053 l 231 1053 q 298 1054 267 1053 q 353 1057 329 1056 q 488 1063 444 1063 m 474 967 q 440 967 467 967 q 394 965 413 967 q 365 957 376 963 l 365 542 q 456 538 397 538 q 623 590 567 538 q 679 764 679 643 q 628 913 679 858 q 474 967 576 967 z "},"Ŕ":{"ha":1000,"x_min":50,"x_max":1011,"o":"m 50 0 m 488 1063 q 872 785 872 1063 q 814 593 872 672 q 647 475 756 514 q 674 458 664 467 q 746 381 713 431 q 826 249 779 331 q 887 147 863 183 q 933 103 911 111 l 1011 79 l 1011 0 l 765 0 q 715 44 740 0 q 647 183 689 88 q 546 381 589 313 q 451 446 503 449 q 365 443 417 443 l 365 103 l 500 79 l 500 0 l 50 0 l 50 79 l 171 104 l 171 939 l 65 954 l 65 1053 l 231 1053 q 298 1054 267 1053 q 353 1057 329 1056 q 488 1063 444 1063 m 474 967 q 440 967 467 967 q 394 965 413 967 q 365 957 376 963 l 365 542 q 456 538 397 538 q 623 590 567 538 q 679 764 679 643 q 628 913 679 858 q 474 967 576 967 m 651 1303 l 774 1181 q 627 1117 718 1144 q 467 1085 536 1089 l 413 1142 l 651 1303 z "},"Ř":{"ha":1000,"x_min":50,"x_max":1011,"o":"m 50 0 m 488 1063 q 872 785 872 1063 q 814 593 872 672 q 647 475 756 514 q 674 458 664 467 q 746 381 713 431 q 826 249 779 331 q 887 147 863 183 q 933 103 911 111 l 1011 79 l 1011 0 l 765 0 q 715 44 740 0 q 647 183 689 88 q 546 381 589 313 q 451 446 503 449 q 365 443 417 443 l 365 103 l 500 79 l 500 0 l 50 0 l 50 79 l 171 104 l 171 939 l 65 954 l 65 1053 l 231 1053 q 298 1054 267 1053 q 353 1057 329 1056 q 488 1063 444 1063 m 474 967 q 440 967 467 967 q 394 965 413 967 q 365 957 376 963 l 365 542 q 456 538 397 538 q 623 590 567 538 q 679 764 679 643 q 628 913 679 858 q 474 967 576 967 m 313 1303 l 486 1204 l 668 1303 l 735 1261 l 563 1088 l 413 1088 l 240 1260 l 313 1303 z "},"Ŗ":{"ha":1000,"x_min":50,"x_max":1011,"o":"m 50 0 m 488 1063 q 872 785 872 1063 q 814 593 872 672 q 647 475 756 514 q 674 458 664 467 q 746 381 713 431 q 826 249 779 331 q 887 147 863 183 q 933 103 911 111 l 1011 79 l 1011 0 l 765 0 q 715 44 740 0 q 647 183 689 88 q 546 381 589 313 q 451 446 503 449 q 365 443 417 443 l 365 103 l 500 79 l 500 0 l 50 0 l 50 79 l 171 104 l 171 939 l 65 954 l 65 1053 l 231 1053 q 298 1054 267 1053 q 353 1057 329 1056 q 488 1063 444 1063 m 474 967 q 440 967 467 967 q 394 965 413 967 q 365 957 376 963 l 365 542 q 456 538 397 538 q 623 590 567 538 q 679 764 679 643 q 628 913 679 858 q 474 967 576 967 m 543 -24 q 660 -86 617 -33 q 703 -208 703 -139 q 675 -309 703 -261 q 607 -390 647 -357 q 529 -435 567 -424 l 465 -399 l 465 -382 q 529 -256 529 -339 q 505 -192 529 -219 q 454 -164 481 -164 l 454 -118 l 543 -24 z "},"S":{"ha":864,"x_min":99,"x_max":808,"o":"m 431 -18 q 242 0 342 -18 q 99 42 142 18 l 99 293 l 182 293 l 238 144 q 322 88 271 103 q 442 72 374 72 q 567 114 517 72 q 618 232 618 156 q 566 340 618 292 q 419 443 514 389 q 246 547 310 503 q 141 651 182 592 q 100 788 100 710 q 151 937 100 875 q 281 1031 201 999 q 444 1063 360 1063 q 615 1047 525 1063 q 742 1013 706 1032 l 742 804 l 653 804 l 593 940 q 532 966 574 956 q 451 976 490 976 q 335 943 386 976 q 283 840 283 910 q 344 715 283 768 q 531 593 404 661 q 736 451 664 522 q 808 279 808 381 q 758 115 808 182 q 621 15 707 47 q 431 -18 535 -18 z "},"Ś":{"ha":864,"x_min":99,"x_max":808,"o":"m 99 0 m 431 -18 q 242 0 342 -18 q 99 42 142 18 l 99 293 l 182 293 l 238 144 q 322 88 271 103 q 442 72 374 72 q 567 114 517 72 q 618 232 618 156 q 566 340 618 292 q 419 443 514 389 q 246 547 310 503 q 141 651 182 592 q 100 788 100 710 q 151 937 100 875 q 281 1031 201 999 q 444 1063 360 1063 q 615 1047 525 1063 q 742 1013 706 1032 l 742 804 l 653 804 l 593 940 q 532 966 574 956 q 451 976 490 976 q 335 943 386 976 q 283 840 283 910 q 344 715 283 768 q 531 593 404 661 q 736 451 664 522 q 808 279 808 381 q 758 115 808 182 q 621 15 707 47 q 431 -18 535 -18 m 538 1303 l 660 1181 q 513 1117 604 1144 q 353 1085 422 1089 l 299 1142 l 538 1303 z "},"Š":{"ha":864,"x_min":99,"x_max":808,"o":"m 99 0 m 431 -18 q 242 0 342 -18 q 99 42 142 18 l 99 293 l 182 293 l 238 144 q 322 88 271 103 q 442 72 374 72 q 567 114 517 72 q 618 232 618 156 q 566 340 618 292 q 419 443 514 389 q 246 547 310 503 q 141 651 182 592 q 100 788 100 710 q 151 937 100 875 q 281 1031 201 999 q 444 1063 360 1063 q 615 1047 525 1063 q 742 1013 706 1032 l 742 804 l 653 804 l 593 940 q 532 966 574 956 q 451 976 490 976 q 335 943 386 976 q 283 840 283 910 q 344 715 283 768 q 531 593 404 661 q 736 451 664 522 q 808 279 808 381 q 758 115 808 182 q 621 15 707 47 q 431 -18 535 -18 m 261 1303 l 435 1204 l 617 1303 l 683 1261 l 511 1088 l 361 1088 l 189 1260 l 261 1303 z "},"Ş":{"ha":864,"x_min":99,"x_max":808,"o":"m 808 278 q 710 65 808 140 q 460 -18 613 -11 q 461 -86 458 -50 q 574 -128 533 -90 q 615 -215 615 -167 q 560 -324 615 -287 q 414 -360 506 -360 q 356 -356 379 -360 q 313 -348 332 -353 q 285 -342 293 -343 l 285 -254 q 324 -260 301 -257 q 364 -262 347 -262 q 413 -251 396 -262 q 429 -208 429 -239 q 412 -173 429 -186 q 360 -160 394 -160 l 325 -161 q 333 -91 325 -135 q 350 -14 340 -47 q 203 8 275 -8 q 99 42 132 24 l 99 293 l 182 293 l 238 144 q 322 88 271 103 q 442 72 374 72 q 567 114 517 72 q 618 232 618 156 q 566 340 618 292 q 419 443 514 389 q 246 547 310 503 q 141 651 182 592 q 100 788 100 710 q 151 937 100 875 q 281 1031 201 999 q 444 1063 360 1063 q 615 1047 525 1063 q 742 1013 706 1032 l 742 804 l 653 804 l 593 940 q 532 966 574 956 q 451 976 490 976 q 335 943 386 976 q 283 840 283 910 q 344 715 283 768 q 531 593 404 661 q 736 451 664 522 q 808 279 808 381 l 808 278 z "},"Ș":{"ha":864,"x_min":99,"x_max":808,"o":"m 99 0 m 431 -18 q 242 0 342 -18 q 99 42 142 18 l 99 293 l 182 293 l 238 144 q 322 88 271 103 q 442 72 374 72 q 567 114 517 72 q 618 232 618 156 q 566 340 618 292 q 419 443 514 389 q 246 547 310 503 q 141 651 182 592 q 100 788 100 710 q 151 937 100 875 q 281 1031 201 999 q 444 1063 360 1063 q 615 1047 525 1063 q 742 1013 706 1032 l 742 804 l 653 804 l 593 940 q 532 966 574 956 q 451 976 490 976 q 335 943 386 976 q 283 840 283 910 q 344 715 283 768 q 531 593 404 661 q 736 451 664 522 q 808 279 808 381 q 758 115 808 182 q 621 15 707 47 q 431 -18 535 -18 m 404 -31 q 521 -93 478 -40 q 564 -215 564 -146 q 536 -316 564 -268 q 468 -397 508 -364 q 390 -442 428 -431 l 326 -406 l 326 -389 q 390 -262 390 -346 q 366 -199 390 -226 q 315 -171 342 -171 l 315 -125 l 404 -31 z "},"T":{"ha":925,"x_min":26,"x_max":901,"o":"m 379 103 l 379 954 l 171 938 l 122 811 l 26 807 l 43 1053 l 901 1053 l 900 810 l 822 801 l 776 939 l 572 954 l 572 104 l 735 79 l 735 0 l 219 0 l 219 79 l 379 103 z "},"Ť":{"ha":906,"x_min":26,"x_max":901,"o":"m 26 0 m 299 1303 l 472 1204 l 654 1303 l 721 1261 l 549 1088 l 399 1088 l 226 1260 l 299 1303 m 379 103 l 379 954 l 171 938 l 122 811 l 26 807 l 43 1053 l 901 1053 l 900 810 l 822 801 l 776 939 l 572 954 l 572 104 l 735 79 l 735 0 l 219 0 l 219 79 l 379 103 z "},"Ț":{"ha":925,"x_min":26,"x_max":901,"o":"m 26 0 m 379 103 l 379 954 l 171 938 l 122 811 l 26 807 l 43 1053 l 901 1053 l 900 810 l 822 801 l 776 939 l 572 954 l 572 104 l 735 79 l 735 0 l 219 0 l 219 79 l 379 103 m 454 -24 q 571 -86 528 -33 q 614 -208 614 -139 q 586 -309 614 -261 q 518 -390 558 -357 q 440 -435 478 -424 l 376 -399 l 376 -382 q 440 -256 440 -339 q 416 -192 440 -219 q 365 -164 392 -164 l 365 -118 l 454 -24 z "},"U":{"ha":1082,"x_min":25,"x_max":1065,"o":"m 1065 960 l 963 946 l 963 463 q 860 103 963 225 q 567 -19 758 -19 q 235 93 339 -19 q 131 433 131 206 l 132 690 q 133 947 133 776 l 25 960 l 25 1053 l 446 1053 l 446 960 l 328 946 l 328 431 q 394 164 328 247 q 593 81 461 81 q 775 180 719 81 q 831 461 831 279 l 829 946 l 710 960 l 710 1053 l 1065 1053 l 1065 960 z "},"Ú":{"ha":1082,"x_min":25,"x_max":1065,"o":"m 25 0 m 1065 960 l 963 946 l 963 463 q 860 103 963 225 q 567 -19 758 -19 q 235 93 339 -19 q 131 433 131 206 l 132 690 q 133 947 133 776 l 25 960 l 25 1053 l 446 1053 l 446 960 l 328 946 l 328 431 q 394 164 328 247 q 593 81 461 81 q 775 180 719 81 q 831 461 831 279 l 829 946 l 710 960 l 710 1053 l 1065 1053 l 1065 960 m 740 1303 l 863 1181 q 716 1117 807 1144 q 556 1085 625 1089 l 501 1142 l 740 1303 z "},"Û":{"ha":1078,"x_min":25,"x_max":1065,"o":"m 828 1132 l 757 1089 l 576 1185 l 392 1089 l 324 1131 l 501 1303 l 650 1303 l 828 1132 m 1065 960 l 963 946 l 963 463 q 860 103 963 225 q 567 -19 758 -19 q 235 93 339 -19 q 131 433 131 206 l 132 690 q 133 947 133 776 l 25 960 l 25 1053 l 446 1053 l 446 960 l 328 946 l 328 431 q 394 164 328 247 q 593 81 461 81 q 775 180 719 81 q 831 461 831 279 l 829 946 l 710 960 l 710 1053 l 1065 1053 l 1065 960 z "},"Ü":{"ha":1082,"x_min":25,"x_max":1065,"o":"m 25 0 m 1065 960 l 963 946 l 963 463 q 860 103 963 225 q 567 -19 758 -19 q 235 93 339 -19 q 131 433 131 206 l 132 690 q 133 947 133 776 l 25 960 l 25 1053 l 446 1053 l 446 960 l 328 946 l 328 431 q 394 164 328 247 q 593 81 461 81 q 775 180 719 81 q 831 461 831 279 l 829 946 l 710 960 l 710 1053 l 1065 1053 l 1065 960 m 343 1307 q 423 1282 393 1307 q 453 1211 453 1257 q 414 1133 453 1164 q 325 1103 375 1103 q 250 1127 282 1103 q 218 1194 218 1151 q 257 1274 218 1242 q 343 1307 296 1307 m 824 1307 q 903 1282 875 1307 q 932 1213 932 1257 q 895 1134 932 1165 q 807 1103 858 1103 q 730 1128 761 1103 q 699 1196 699 1154 q 738 1274 699 1242 q 824 1307 776 1307 z "},"Ù":{"ha":1082,"x_min":25,"x_max":1065,"o":"m 25 0 m 1065 960 l 963 946 l 963 463 q 860 103 963 225 q 567 -19 758 -19 q 235 93 339 -19 q 131 433 131 206 l 132 690 q 133 947 133 776 l 25 960 l 25 1053 l 446 1053 l 446 960 l 328 946 l 328 431 q 394 164 328 247 q 593 81 461 81 q 775 180 719 81 q 831 461 831 279 l 829 946 l 710 960 l 710 1053 l 1065 1053 l 1065 960 m 596 1085 q 447 1115 542 1086 q 297 1181 351 1144 l 418 1303 l 651 1142 l 596 1085 z "},"Ű":{"ha":1082,"x_min":25,"x_max":1065,"o":"m 25 0 m 1065 960 l 963 946 l 963 463 q 860 103 963 225 q 567 -19 758 -19 q 235 93 339 -19 q 131 433 131 206 l 132 690 q 133 947 133 776 l 25 960 l 25 1053 l 446 1053 l 446 960 l 328 946 l 328 431 q 394 164 328 247 q 593 81 461 81 q 775 180 719 81 q 831 461 831 279 l 829 946 l 710 960 l 710 1053 l 1065 1053 l 1065 960 m 489 1411 l 611 1310 q 484 1173 564 1246 q 351 1072 404 1100 l 282 1128 l 489 1411 m 850 1411 l 976 1310 q 842 1168 922 1240 q 711 1072 763 1096 l 644 1128 l 850 1411 z "},"Ū":{"ha":1082,"x_min":25,"x_max":1065,"o":"m 25 0 m 1065 960 l 963 946 l 963 463 q 860 103 963 225 q 567 -19 758 -19 q 235 93 339 -19 q 131 433 131 206 l 132 690 q 133 947 133 776 l 25 960 l 25 1053 l 446 1053 l 446 960 l 328 946 l 328 431 q 394 164 328 247 q 593 81 461 81 q 775 180 719 81 q 831 461 831 279 l 829 946 l 710 960 l 710 1053 l 1065 1053 l 1065 960 m 772 1258 l 772 1122 l 400 1122 l 400 1258 l 772 1258 z "},"Ų":{"ha":1082,"x_min":25,"x_max":1065,"o":"m 1065 1053 l 1065 960 l 963 946 l 963 463 q 882 132 963 253 q 649 -12 801 11 q 542 -87 590 -40 q 494 -171 494 -135 q 510 -216 494 -201 q 558 -231 525 -231 q 665 -204 597 -231 l 685 -282 q 585 -334 644 -317 q 457 -351 525 -351 q 356 -317 396 -351 q 317 -229 317 -283 q 374 -116 317 -176 q 507 -17 431 -56 q 221 109 311 -3 q 131 432 131 221 q 132 689 131 603 l 133 947 l 25 960 l 25 1053 l 446 1053 l 446 960 l 328 946 l 328 431 q 394 164 328 247 q 593 81 461 81 q 775 180 719 81 q 831 461 831 279 l 829 946 l 710 960 l 710 1053 l 1065 1053 z "},"Ů":{"ha":1082,"x_min":25,"x_max":1065,"o":"m 1065 1053 l 1065 960 l 963 946 l 963 463 q 860 103 963 225 q 567 -19 758 -19 q 235 93 339 -19 q 131 433 131 206 l 132 690 q 133 947 133 776 l 25 960 l 25 1053 l 414 1053 q 390 1136 390 1089 q 444 1256 390 1208 q 576 1303 499 1303 q 710 1256 656 1303 q 764 1136 764 1208 q 740 1053 764 1089 l 1065 1053 m 576 1218 q 517 1194 540 1218 q 493 1135 493 1171 q 517 1076 493 1099 q 576 1053 540 1053 q 636 1076 611 1053 q 661 1135 661 1099 q 637 1194 661 1169 q 576 1218 613 1218 m 594 81 q 776 180 721 81 q 832 461 832 279 l 831 946 l 711 960 l 711 1017 q 578 971 657 971 q 446 1017 500 971 l 446 960 l 328 946 l 328 431 q 394 164 328 247 q 593 81 461 81 l 594 81 z "},"V":{"ha":990,"x_min":6,"x_max":982,"o":"m 6 960 l 6 1053 l 419 1053 l 419 961 l 307 947 l 486 361 l 532 190 l 575 360 l 739 947 l 631 960 l 631 1053 l 982 1053 l 982 960 l 904 949 l 586 -11 l 436 -11 l 90 949 l 6 960 z "},"W":{"ha":1488,"x_min":7,"x_max":1482,"o":"m 7 960 l 7 1053 l 407 1053 l 407 961 l 304 947 l 483 299 l 515 175 l 549 294 l 681 833 l 647 947 l 549 960 l 549 1053 l 958 1053 l 958 961 l 849 947 l 1004 290 l 1033 167 l 1065 306 l 1225 947 l 1117 960 l 1117 1053 l 1482 1053 l 1482 960 l 1382 947 l 1097 -12 l 919 -12 l 749 592 l 579 -11 l 410 -11 l 93 947 l 7 960 z "},"X":{"ha":1008,"x_min":14,"x_max":1006,"o":"m 133 104 l 415 517 l 129 947 l 25 960 l 25 1053 l 461 1053 l 461 961 l 354 947 l 528 640 l 708 947 l 613 960 l 613 1053 l 990 1053 l 990 960 l 876 947 l 594 557 l 896 106 l 1006 79 l 1006 0 l 568 0 l 568 79 l 676 103 l 485 421 l 306 104 l 432 79 l 432 0 l 14 0 l 14 79 l 133 104 z "},"Y":{"ha":961,"x_min":8,"x_max":953,"o":"m 403 106 l 403 389 l 83 949 l 8 960 l 8 1053 l 394 1053 l 394 961 l 310 949 l 496 575 l 522 508 l 549 578 l 713 946 l 601 960 l 600 1053 l 953 1053 l 953 960 l 864 938 l 597 399 l 597 107 l 763 79 l 763 0 l 251 0 l 251 79 l 403 106 z "},"Ý":{"ha":961,"x_min":8,"x_max":953,"o":"m 8 0 m 403 106 l 403 389 l 83 949 l 8 960 l 8 1053 l 394 1053 l 394 961 l 310 949 l 496 575 l 522 508 l 549 578 l 713 946 l 601 960 l 600 1053 l 953 1053 l 953 960 l 864 938 l 597 399 l 597 107 l 763 79 l 763 0 l 251 0 l 251 79 l 403 106 m 664 1303 l 786 1181 q 640 1117 731 1144 q 479 1085 549 1089 l 425 1142 l 664 1303 z "},"Ÿ":{"ha":961,"x_min":8,"x_max":953,"o":"m 8 0 m 403 106 l 403 389 l 83 949 l 8 960 l 8 1053 l 394 1053 l 394 961 l 310 949 l 496 575 l 522 508 l 549 578 l 713 946 l 601 960 l 600 1053 l 953 1053 l 953 960 l 864 938 l 597 399 l 597 107 l 763 79 l 763 0 l 251 0 l 251 79 l 403 106 m 268 1307 q 348 1282 318 1307 q 378 1211 378 1257 q 339 1133 378 1164 q 250 1103 300 1103 q 175 1127 207 1103 q 143 1194 143 1151 q 182 1274 143 1242 q 268 1307 221 1307 m 749 1307 q 828 1282 800 1307 q 857 1213 857 1257 q 820 1134 857 1165 q 732 1103 783 1103 q 655 1128 686 1103 q 624 1196 624 1154 q 663 1274 624 1242 q 749 1307 701 1307 z "},"Z":{"ha":929,"x_min":47,"x_max":908,"o":"m 892 968 l 356 189 l 276 97 l 707 128 l 821 304 l 908 282 l 847 0 l 71 0 l 47 81 l 589 858 l 678 957 l 253 933 l 175 772 l 83 790 l 108 1053 l 865 1053 l 892 968 z "},"Ź":{"ha":929,"x_min":47,"x_max":908,"o":"m 47 0 m 892 968 l 356 189 l 276 97 l 707 128 l 821 304 l 908 282 l 847 0 l 71 0 l 47 81 l 589 858 l 678 957 l 253 933 l 175 772 l 83 790 l 108 1053 l 865 1053 l 892 968 m 653 1303 l 775 1181 q 628 1117 719 1144 q 468 1085 538 1089 l 414 1142 l 653 1303 z "},"Ž":{"ha":929,"x_min":47,"x_max":908,"o":"m 47 0 m 892 968 l 356 189 l 276 97 l 707 128 l 821 304 l 908 282 l 847 0 l 71 0 l 47 81 l 589 858 l 678 957 l 253 933 l 175 772 l 83 790 l 108 1053 l 865 1053 l 892 968 m 314 1303 l 488 1204 l 669 1303 l 736 1261 l 564 1088 l 414 1088 l 242 1260 l 314 1303 z "},"Ż":{"ha":929,"x_min":47,"x_max":908,"o":"m 47 0 m 892 968 l 356 189 l 276 97 l 707 128 l 821 304 l 908 282 l 847 0 l 71 0 l 47 81 l 589 858 l 678 957 l 253 933 l 175 772 l 83 790 l 108 1053 l 865 1053 l 892 968 m 494 1338 q 596 1304 557 1338 q 635 1214 635 1271 q 585 1112 635 1151 q 471 1072 535 1072 q 374 1104 414 1072 q 335 1192 335 1136 q 358 1266 335 1232 q 418 1319 381 1300 q 494 1338 456 1338 z "},"a":{"ha":804,"x_min":63,"x_max":782,"o":"m 406 776 q 621 715 546 776 q 696 513 696 654 l 694 78 l 782 78 l 782 17 q 711 -10 756 0 q 628 -19 667 -19 q 522 64 526 -19 q 314 -18 447 -18 q 132 42 201 -18 q 63 194 63 101 q 128 347 63 286 q 295 436 194 408 q 501 464 396 464 l 501 497 q 462 625 501 589 q 340 661 422 661 q 234 647 292 661 q 133 608 176 632 l 97 694 q 235 755 144 733 q 406 776 326 776 m 501 374 q 332 337 406 374 q 258 222 258 300 q 390 94 258 94 q 450 105 419 94 q 500 135 481 115 l 501 374 z "},"á":{"ha":804,"x_min":63,"x_max":782,"o":"m 63 0 m 406 776 q 621 715 546 776 q 696 513 696 654 l 694 78 l 782 78 l 782 17 q 711 -10 756 0 q 628 -19 667 -19 q 522 64 526 -19 q 314 -18 447 -18 q 132 42 201 -18 q 63 194 63 101 q 128 347 63 286 q 295 436 194 408 q 501 464 396 464 l 501 497 q 462 625 501 589 q 340 661 422 661 q 234 647 292 661 q 133 608 176 632 l 97 694 q 235 755 144 733 q 406 776 326 776 m 501 374 q 332 337 406 374 q 258 222 258 300 q 390 94 258 94 q 450 105 419 94 q 500 135 481 115 l 501 374 m 507 1233 l 649 1110 q 523 990 607 1044 q 353 907 439 936 l 303 958 l 507 1233 z "},"ă":{"ha":804,"x_min":63,"x_max":782,"o":"m 63 0 m 406 776 q 621 715 546 776 q 696 513 696 654 l 694 78 l 782 78 l 782 17 q 711 -10 756 0 q 628 -19 667 -19 q 522 64 526 -19 q 314 -18 447 -18 q 132 42 201 -18 q 63 194 63 101 q 128 347 63 286 q 295 436 194 408 q 501 464 396 464 l 501 497 q 462 625 501 589 q 340 661 422 661 q 234 647 292 661 q 133 608 176 632 l 97 694 q 235 755 144 733 q 406 776 326 776 m 501 374 q 332 337 406 374 q 258 222 258 300 q 390 94 258 94 q 450 105 419 94 q 500 135 481 115 l 501 374 m 657 1150 q 625 1036 657 1089 q 538 952 593 983 q 417 921 482 921 q 292 952 347 921 q 206 1036 238 983 q 175 1149 175 1089 l 282 1149 q 328 1074 300 1104 q 417 1044 356 1044 q 506 1075 478 1044 q 551 1150 535 1106 l 657 1150 z "},"â":{"ha":804,"x_min":63,"x_max":782,"o":"m 63 0 m 406 776 q 621 715 546 776 q 696 513 696 654 l 694 78 l 782 78 l 782 17 q 711 -10 756 0 q 628 -19 667 -19 q 522 64 526 -19 q 314 -18 447 -18 q 132 42 201 -18 q 63 194 63 101 q 128 347 63 286 q 295 436 194 408 q 501 464 396 464 l 501 497 q 462 625 501 589 q 340 661 422 661 q 234 647 292 661 q 133 608 176 632 l 97 694 q 235 755 144 733 q 406 776 326 776 m 501 374 q 332 337 406 374 q 258 222 258 300 q 390 94 258 94 q 450 105 419 94 q 500 135 481 115 l 501 374 m 325 1204 l 483 1204 l 664 949 l 582 906 l 403 1061 l 214 906 l 142 947 l 325 1204 z "},"ä":{"ha":804,"x_min":63,"x_max":782,"o":"m 63 0 m 406 776 q 621 715 546 776 q 696 513 696 654 l 694 78 l 782 78 l 782 17 q 711 -10 756 0 q 628 -19 667 -19 q 522 64 526 -19 q 314 -18 447 -18 q 132 42 201 -18 q 63 194 63 101 q 128 347 63 286 q 295 436 194 408 q 501 464 396 464 l 501 497 q 462 625 501 589 q 340 661 422 661 q 234 647 292 661 q 133 608 176 632 l 97 694 q 235 755 144 733 q 406 776 326 776 m 501 374 q 332 337 406 374 q 258 222 258 300 q 390 94 258 94 q 450 105 419 94 q 500 135 481 115 l 501 374 m 225 919 q 149 944 181 919 q 118 1011 118 969 q 157 1090 118 1058 q 243 1121 196 1121 q 324 1096 294 1121 q 353 1026 353 1071 q 314 949 353 978 q 225 919 275 919 m 563 919 q 486 944 517 919 q 456 1011 456 969 q 494 1090 456 1058 q 581 1121 533 1121 q 660 1096 633 1121 q 688 1028 688 1071 q 650 949 688 978 q 563 919 613 919 z "},"à":{"ha":804,"x_min":63,"x_max":782,"o":"m 63 0 m 406 776 q 621 715 546 776 q 696 513 696 654 l 694 78 l 782 78 l 782 17 q 711 -10 756 0 q 628 -19 667 -19 q 522 64 526 -19 q 314 -18 447 -18 q 132 42 201 -18 q 63 194 63 101 q 128 347 63 286 q 295 436 194 408 q 501 464 396 464 l 501 497 q 462 625 501 589 q 340 661 422 661 q 234 647 292 661 q 133 608 176 632 l 97 694 q 235 755 144 733 q 406 776 326 776 m 501 374 q 332 337 406 374 q 258 222 258 300 q 390 94 258 94 q 450 105 419 94 q 500 135 481 115 l 501 374 m 490 907 q 331 977 424 914 q 193 1110 239 1040 l 336 1233 l 539 958 l 490 907 z "},"ā":{"ha":804,"x_min":63,"x_max":782,"o":"m 63 0 m 406 776 q 621 715 546 776 q 696 513 696 654 l 694 78 l 782 78 l 782 17 q 711 -10 756 0 q 628 -19 667 -19 q 522 64 526 -19 q 314 -18 447 -18 q 132 42 201 -18 q 63 194 63 101 q 128 347 63 286 q 295 436 194 408 q 501 464 396 464 l 501 497 q 462 625 501 589 q 340 661 422 661 q 234 647 292 661 q 133 608 176 632 l 97 694 q 235 755 144 733 q 406 776 326 776 m 501 374 q 332 337 406 374 q 258 222 258 300 q 390 94 258 94 q 450 105 419 94 q 500 135 481 115 l 501 374 m 596 1076 l 596 940 l 224 940 l 224 1076 l 596 1076 z "},"ą":{"ha":804,"x_min":63,"x_max":786,"o":"m 406 776 q 620 715 546 776 q 694 513 694 654 l 694 78 l 782 78 l 782 13 q 665 -78 710 -29 q 621 -167 621 -126 q 703 -236 621 -236 q 786 -221 732 -236 l 786 -304 q 714 -339 756 -326 q 628 -351 672 -351 q 506 -319 554 -351 q 458 -221 458 -286 q 501 -108 458 -164 q 606 -17 543 -53 q 543 6 565 -15 q 521 64 521 26 q 314 -18 449 -18 q 182 10 239 -18 q 94 87 125 38 q 63 199 63 136 q 129 349 63 289 q 297 436 196 408 q 501 464 397 464 l 501 496 q 462 625 501 589 q 340 661 422 661 q 234 647 292 661 q 133 608 176 632 l 97 694 q 235 755 144 733 q 406 776 326 776 m 501 374 q 332 336 406 374 q 258 222 258 299 q 390 94 258 94 q 450 105 419 94 q 500 135 481 115 l 501 374 z "},"å":{"ha":804,"x_min":63,"x_max":782,"o":"m 63 0 m 406 776 q 621 715 546 776 q 696 513 696 654 l 694 78 l 782 78 l 782 17 q 711 -10 756 0 q 628 -19 667 -19 q 522 64 526 -19 q 314 -18 447 -18 q 132 42 201 -18 q 63 194 63 101 q 128 347 63 286 q 295 436 194 408 q 501 464 396 464 l 501 497 q 462 625 501 589 q 340 661 422 661 q 234 647 292 661 q 133 608 176 632 l 97 694 q 235 755 144 733 q 406 776 326 776 m 501 374 q 332 337 406 374 q 258 222 258 300 q 390 94 258 94 q 450 105 419 94 q 500 135 481 115 l 501 374 m 390 1235 q 483 1210 440 1235 q 551 1146 526 1186 q 576 1058 576 1106 q 551 969 576 1010 q 482 906 525 929 q 390 883 439 883 q 298 907 340 883 q 230 971 256 931 q 204 1058 204 1011 q 230 1147 204 1107 q 298 1211 256 1188 q 390 1235 340 1235 m 390 1146 q 328 1120 353 1146 q 303 1058 303 1094 q 328 996 303 1021 q 390 971 353 971 q 452 997 426 971 q 478 1058 478 1022 q 452 1120 478 1094 q 390 1146 426 1146 z "},"ã":{"ha":804,"x_min":63,"x_max":782,"o":"m 63 0 m 406 776 q 621 715 546 776 q 696 513 696 654 l 694 78 l 782 78 l 782 17 q 711 -10 756 0 q 628 -19 667 -19 q 522 64 526 -19 q 314 -18 447 -18 q 132 42 201 -18 q 63 194 63 101 q 128 347 63 286 q 295 436 194 408 q 501 464 396 464 l 501 497 q 462 625 501 589 q 340 661 422 661 q 234 647 292 661 q 133 608 176 632 l 97 694 q 235 755 144 733 q 406 776 326 776 m 501 374 q 332 337 406 374 q 258 222 258 300 q 390 94 258 94 q 450 105 419 94 q 500 135 481 115 l 501 374 m 122 1001 q 207 1093 144 1053 q 324 1133 269 1133 q 382 1122 358 1133 q 435 1089 406 1110 q 473 1064 457 1072 q 508 1056 489 1056 q 568 1070 540 1056 q 626 1110 596 1085 l 675 1050 q 591 957 651 997 q 478 917 531 917 q 418 928 443 917 q 364 963 393 940 q 326 988 342 979 q 290 996 310 996 q 171 940 238 996 l 122 1001 z "},"æ":{"ha":1251,"x_min":60,"x_max":1196,"o":"m 911 781 q 1123 700 1050 781 q 1196 468 1196 619 q 1188 360 1196 421 l 699 360 q 773 163 707 222 q 936 103 839 103 q 1051 114 989 103 q 1153 143 1113 125 l 1185 69 q 1048 6 1139 29 q 872 -18 957 -18 q 599 83 697 -18 q 476 8 550 35 q 317 -18 403 -18 q 180 12 239 -18 q 90 94 121 42 q 64 210 60 146 q 138 356 68 299 q 306 438 207 413 q 503 465 406 464 l 503 497 q 463 624 503 588 q 340 660 424 660 q 232 644 293 660 q 135 607 171 629 l 97 694 q 237 756 146 735 q 406 776 328 776 q 646 694 571 776 q 911 781 754 781 m 871 693 q 753 631 800 693 q 699 460 706 569 l 1001 460 q 1003 504 1003 474 q 974 610 1003 586 q 941 672 965 650 q 871 693 917 693 m 503 374 q 331 336 404 372 q 258 222 258 300 q 292 125 258 156 q 392 94 325 94 q 446 102 414 94 q 501 118 478 110 l 503 374 z "},"b":{"ha":879,"x_min":18,"x_max":821,"o":"m 18 994 l 18 1075 l 276 1103 l 311 1092 l 311 717 q 506 781 396 781 q 735 685 649 781 q 821 410 821 590 q 769 194 821 293 q 624 38 717 96 q 415 -19 531 -19 q 235 -2 326 -19 q 118 36 144 15 l 118 961 l 18 994 m 311 125 q 356 84 322 99 q 436 69 389 69 q 576 159 524 69 q 628 396 628 249 q 601 541 628 479 q 529 636 575 603 q 429 669 483 669 q 311 633 364 669 l 311 125 z "},"c":{"ha":739,"x_min":60,"x_max":706,"o":"m 468 781 q 590 772 529 781 q 681 746 651 763 l 681 551 l 582 551 l 536 658 q 492 678 518 672 q 440 683 465 683 q 306 609 356 683 q 256 411 256 535 q 286 244 256 314 q 369 139 317 175 q 485 103 421 103 q 592 115 538 103 q 675 144 646 126 l 706 69 q 582 6 660 28 q 414 -17 504 -17 q 224 31 304 -17 q 103 165 144 79 q 60 363 61 251 q 113 581 60 486 q 258 727 165 675 q 468 781 351 779 z "},"ć":{"ha":739,"x_min":60,"x_max":706,"o":"m 60 0 m 468 781 q 590 772 529 781 q 681 746 651 763 l 681 551 l 582 551 l 536 658 q 492 678 518 672 q 440 683 465 683 q 306 609 356 683 q 256 411 256 535 q 286 244 256 314 q 369 139 317 175 q 485 103 421 103 q 592 115 538 103 q 675 144 646 126 l 706 69 q 582 6 660 28 q 414 -17 504 -17 q 224 31 304 -17 q 103 165 144 79 q 60 363 61 251 q 113 581 60 486 q 258 727 165 675 q 468 781 351 779 m 547 1233 l 689 1110 q 563 990 647 1044 q 393 907 479 936 l 343 958 l 547 1233 z "},"č":{"ha":739,"x_min":60,"x_max":706,"o":"m 60 0 m 468 781 q 590 772 529 781 q 681 746 651 763 l 681 551 l 582 551 l 536 658 q 492 678 518 672 q 440 683 465 683 q 306 609 356 683 q 256 411 256 535 q 286 244 256 314 q 369 139 317 175 q 485 103 421 103 q 592 115 538 103 q 675 144 646 126 l 706 69 q 582 6 660 28 q 414 -17 504 -17 q 224 31 304 -17 q 103 165 144 79 q 60 363 61 251 q 113 581 60 486 q 258 727 165 675 q 468 781 351 779 m 258 1204 l 443 1050 l 626 1204 l 704 1161 l 522 906 l 365 906 l 182 1163 l 258 1204 z "},"ç":{"ha":739,"x_min":58,"x_max":704,"o":"m 463 -85 q 576 -127 535 -89 q 617 -214 617 -165 q 562 -322 617 -286 q 415 -358 507 -358 q 357 -355 381 -358 q 314 -347 333 -351 q 286 -340 294 -342 l 286 -253 q 326 -258 303 -256 q 365 -261 349 -261 q 414 -249 397 -261 q 431 -207 431 -237 q 413 -172 431 -185 q 361 -158 396 -158 l 326 -160 q 334 -89 326 -133 q 351 -12 342 -44 q 137 108 214 7 q 58 363 60 210 q 111 581 58 486 q 257 727 164 675 q 467 781 350 779 q 589 772 528 781 q 679 746 650 763 l 679 551 l 581 551 l 535 658 q 490 678 517 672 q 439 683 464 683 q 304 609 354 683 q 254 411 254 535 q 285 244 254 314 q 367 139 315 175 q 483 103 419 103 q 590 115 536 103 q 674 144 644 126 l 704 69 q 601 12 664 33 q 461 -15 538 -10 q 464 -86 458 -56 l 463 -85 z "},"d":{"ha":900,"x_min":58,"x_max":861,"o":"m 768 1088 l 768 78 l 861 78 l 861 14 q 788 -12 836 -1 q 682 -22 739 -22 q 615 -7 638 -22 q 586 47 593 8 q 494 1 554 21 q 367 -18 435 -18 q 209 29 279 -18 q 99 164 139 76 q 58 367 58 251 q 114 581 58 486 q 265 728 169 675 q 476 781 361 781 q 575 772 540 781 l 575 958 l 426 992 l 426 1072 l 729 1104 l 768 1088 m 456 696 q 357 660 403 696 q 283 558 311 625 q 256 401 256 490 q 281 240 256 311 q 350 128 306 168 q 450 88 394 88 q 521 97 488 88 q 575 122 554 106 l 575 658 q 456 696 531 696 z "},"ð":{"ha":867,"x_min":56,"x_max":804,"o":"m 635 1106 l 526 1013 q 735 754 667 907 q 804 432 804 601 q 703 97 804 213 q 415 -18 601 -18 q 228 28 310 -18 q 101 156 146 74 q 56 340 56 238 q 103 540 56 456 q 235 668 151 624 q 425 713 319 713 q 534 691 479 713 q 621 638 589 669 q 556 797 603 722 q 440 931 508 872 l 328 833 l 256 892 l 363 989 q 211 1054 283 1038 l 231 1146 q 443 1068 343 1122 l 560 1169 l 635 1106 m 429 618 q 296 549 335 618 q 257 350 257 479 q 279 217 257 281 q 343 113 301 153 q 439 74 385 74 q 567 163 522 74 q 611 382 611 253 q 606 454 611 429 q 547 566 593 514 q 429 618 501 618 z "},"ď":{"ha":1018,"x_min":58,"x_max":1026,"o":"m 58 0 m 768 1088 l 768 78 l 861 78 l 861 14 q 788 -12 836 -1 q 682 -22 739 -22 q 615 -7 638 -22 q 586 47 593 8 q 494 1 554 21 q 367 -18 435 -18 q 209 29 279 -18 q 99 164 139 76 q 58 367 58 251 q 114 581 58 486 q 265 728 169 675 q 476 781 361 781 q 575 772 540 781 l 575 958 l 426 992 l 426 1072 l 729 1104 l 768 1088 m 456 696 q 357 660 403 696 q 283 558 311 625 q 256 401 256 490 q 281 240 256 311 q 350 128 306 168 q 450 88 394 88 q 521 97 488 88 q 575 122 554 106 l 575 658 q 456 696 531 696 m 844 728 q 858 925 858 815 q 847 1023 858 976 q 824 1086 836 1069 l 833 1115 l 981 1151 q 1013 1078 1000 1132 q 1026 969 1026 1024 q 1000 808 1026 890 q 939 685 974 726 l 849 710 l 844 728 z "},"đ":{"ha":900,"x_min":58,"x_max":875,"o":"m 768 806 l 768 78 l 861 78 l 861 14 q 788 -12 836 -1 q 682 -22 739 -22 q 615 -7 638 -22 q 586 47 593 8 q 494 1 554 21 q 367 -18 435 -18 q 210 28 281 -18 q 99 153 140 74 q 58 329 58 233 q 174 628 58 532 q 476 725 289 725 q 575 717 540 725 l 575 806 l 318 806 l 318 892 l 575 892 l 575 958 l 426 992 l 426 1072 l 729 1104 l 768 1088 l 768 892 l 875 892 l 875 806 l 768 806 m 574 603 q 454 640 529 640 q 355 610 400 640 q 283 518 310 581 q 256 360 256 456 q 280 224 256 286 q 349 124 304 161 q 450 88 393 88 q 520 97 488 88 q 574 122 553 106 l 574 603 z "},"e":{"ha":810,"x_min":58,"x_max":749,"o":"m 461 781 q 667 707 593 781 q 747 497 740 633 q 744 410 749 450 q 738 360 739 369 l 256 360 q 322 169 261 236 q 493 101 382 101 q 599 112 543 101 q 696 142 656 122 l 728 69 q 596 6 681 29 q 429 -18 511 -18 q 155 85 251 -18 q 58 368 58 188 q 110 581 58 488 q 253 728 161 675 q 461 781 344 781 m 424 693 q 308 633 353 693 q 256 460 264 572 l 551 460 q 554 511 554 493 q 524 628 554 590 q 424 693 501 693 z "},"é":{"ha":810,"x_min":58,"x_max":749,"o":"m 58 0 m 461 781 q 667 707 593 781 q 747 497 740 633 q 744 410 749 450 q 738 360 739 369 l 256 360 q 322 169 261 236 q 493 101 382 101 q 599 112 543 101 q 696 142 656 122 l 728 69 q 596 6 681 29 q 429 -18 511 -18 q 155 85 251 -18 q 58 368 58 188 q 110 581 58 488 q 253 728 161 675 q 461 781 344 781 m 424 693 q 308 633 353 693 q 256 460 264 572 l 551 460 q 554 511 554 493 q 524 628 554 590 q 424 693 501 693 m 538 1233 l 679 1110 q 553 990 638 1044 q 383 907 469 936 l 333 958 l 538 1233 z "},"ě":{"ha":810,"x_min":58,"x_max":749,"o":"m 58 0 m 461 781 q 667 707 593 781 q 747 497 740 633 q 744 410 749 450 q 738 360 739 369 l 256 360 q 322 169 261 236 q 493 101 382 101 q 599 112 543 101 q 696 142 656 122 l 728 69 q 596 6 681 29 q 429 -18 511 -18 q 155 85 251 -18 q 58 368 58 188 q 110 581 58 488 q 253 728 161 675 q 461 781 344 781 m 424 693 q 308 633 353 693 q 256 460 264 572 l 551 460 q 554 511 554 493 q 524 628 554 590 q 424 693 501 693 m 244 1204 l 429 1050 l 613 1204 l 690 1161 l 508 906 l 351 906 l 168 1163 l 244 1204 z "},"ê":{"ha":810,"x_min":58,"x_max":749,"o":"m 58 0 m 461 781 q 667 707 593 781 q 747 497 740 633 q 744 410 749 450 q 738 360 739 369 l 256 360 q 322 169 261 236 q 493 101 382 101 q 599 112 543 101 q 696 142 656 122 l 728 69 q 596 6 681 29 q 429 -18 511 -18 q 155 85 251 -18 q 58 368 58 188 q 110 581 58 488 q 253 728 161 675 q 461 781 344 781 m 424 693 q 308 633 353 693 q 256 460 264 572 l 551 460 q 554 511 554 493 q 524 628 554 590 q 424 693 501 693 m 356 1204 l 514 1204 l 694 949 l 613 906 l 433 1061 l 244 906 l 172 947 l 356 1204 z "},"ë":{"ha":810,"x_min":58,"x_max":749,"o":"m 58 0 m 461 781 q 667 707 593 781 q 747 497 740 633 q 744 410 749 450 q 738 360 739 369 l 256 360 q 322 169 261 236 q 493 101 382 101 q 599 112 543 101 q 696 142 656 122 l 728 69 q 596 6 681 29 q 429 -18 511 -18 q 155 85 251 -18 q 58 368 58 188 q 110 581 58 488 q 253 728 161 675 q 461 781 344 781 m 424 693 q 308 633 353 693 q 256 460 264 572 l 551 460 q 554 511 554 493 q 524 628 554 590 q 424 693 501 693 m 257 919 q 181 944 213 919 q 150 1011 150 969 q 189 1090 150 1058 q 275 1121 228 1121 q 356 1096 326 1121 q 385 1026 385 1071 q 346 949 385 978 q 257 919 307 919 m 594 919 q 518 944 549 919 q 488 1011 488 969 q 526 1090 488 1058 q 613 1121 565 1121 q 692 1096 665 1121 q 719 1028 719 1071 q 682 949 719 978 q 594 919 644 919 z "},"ė":{"ha":810,"x_min":58,"x_max":749,"o":"m 58 0 m 461 781 q 667 707 593 781 q 747 497 740 633 q 744 410 749 450 q 738 360 739 369 l 256 360 q 322 169 261 236 q 493 101 382 101 q 599 112 543 101 q 696 142 656 122 l 728 69 q 596 6 681 29 q 429 -18 511 -18 q 155 85 251 -18 q 58 368 58 188 q 110 581 58 488 q 253 728 161 675 q 461 781 344 781 m 424 693 q 308 633 353 693 q 256 460 264 572 l 551 460 q 554 511 554 493 q 524 628 554 590 q 424 693 501 693 m 438 1107 q 518 1082 489 1107 q 547 1013 547 1057 q 508 934 547 964 q 419 904 469 904 q 344 930 375 904 q 313 997 313 956 q 351 1076 313 1044 q 438 1107 390 1107 z "},"è":{"ha":810,"x_min":58,"x_max":749,"o":"m 58 0 m 461 781 q 667 707 593 781 q 747 497 740 633 q 744 410 749 450 q 738 360 739 369 l 256 360 q 322 169 261 236 q 493 101 382 101 q 599 112 543 101 q 696 142 656 122 l 728 69 q 596 6 681 29 q 429 -18 511 -18 q 155 85 251 -18 q 58 368 58 188 q 110 581 58 488 q 253 728 161 675 q 461 781 344 781 m 424 693 q 308 633 353 693 q 256 460 264 572 l 551 460 q 554 511 554 493 q 524 628 554 590 q 424 693 501 693 m 521 907 q 362 977 454 914 q 224 1110 269 1040 l 367 1233 l 569 958 l 521 907 z "},"ē":{"ha":810,"x_min":58,"x_max":749,"o":"m 58 0 m 461 781 q 667 707 593 781 q 747 497 740 633 q 744 410 749 450 q 738 360 739 369 l 256 360 q 322 169 261 236 q 493 101 382 101 q 599 112 543 101 q 696 142 656 122 l 728 69 q 596 6 681 29 q 429 -18 511 -18 q 155 85 251 -18 q 58 368 58 188 q 110 581 58 488 q 253 728 161 675 q 461 781 344 781 m 424 693 q 308 633 353 693 q 256 460 264 572 l 551 460 q 554 511 554 493 q 524 628 554 590 q 424 693 501 693 m 617 1076 l 617 940 l 244 940 l 244 1076 l 617 1076 z "},"ę":{"ha":810,"x_min":58,"x_max":747,"o":"m 461 781 q 673 701 599 781 q 747 476 747 621 q 738 360 746 422 l 256 360 q 322 169 261 236 q 493 101 382 101 q 599 112 543 101 q 696 142 656 122 l 726 69 q 554 -153 554 -69 q 587 -213 554 -194 q 669 -232 619 -232 q 744 -222 711 -232 l 744 -301 q 667 -335 715 -322 q 575 -347 618 -347 q 449 -315 499 -347 q 400 -218 400 -283 q 435 -106 400 -160 q 536 -8 471 -51 q 422 -18 483 -18 q 153 86 249 -17 q 58 368 58 189 q 109 581 58 488 q 251 728 160 675 q 461 781 343 781 m 424 693 q 308 633 353 693 q 256 460 264 572 l 551 460 q 556 526 556 489 q 525 651 556 608 q 424 693 494 693 z "},"f":{"ha":606,"x_min":47,"x_max":614,"o":"m 183 96 l 183 640 l 47 640 l 47 706 l 183 754 l 183 815 q 229 987 183 907 q 347 1115 275 1067 q 492 1163 418 1163 q 565 1157 531 1163 q 614 1144 600 1151 l 614 992 q 553 1013 596 1003 q 475 1024 511 1024 q 415 1013 436 1024 q 385 972 394 1001 q 376 883 376 942 l 376 761 l 576 761 l 576 640 l 376 640 l 376 96 l 533 78 l 533 0 l 61 0 l 61 78 l 183 96 z "},"g":{"ha":840,"x_min":67,"x_max":835,"o":"m 419 783 q 635 724 557 783 q 764 775 664 775 l 835 775 l 835 635 l 701 635 q 719 535 719 594 q 627 332 719 403 q 393 261 535 261 q 261 278 313 261 q 256 238 256 258 q 256 214 256 217 q 344 138 256 139 q 513 135 394 135 q 744 78 678 135 q 810 -86 810 22 q 757 -234 810 -172 q 613 -328 704 -296 q 404 -360 521 -360 q 161 -312 256 -360 q 67 -158 67 -265 q 100 -53 67 -101 q 181 25 133 -4 q 117 72 131 43 q 103 149 103 100 q 129 226 103 179 q 192 304 156 274 q 72 511 72 372 q 120 661 72 600 q 247 753 168 722 q 419 783 326 783 m 393 697 q 299 662 333 697 q 264 553 264 626 q 299 408 264 463 q 411 354 333 354 q 508 397 479 354 q 536 521 536 440 q 393 697 536 697 m 264 7 q 239 -100 239 -33 q 293 -222 239 -181 q 436 -264 347 -264 q 590 -233 539 -264 q 640 -132 640 -203 q 626 -53 640 -82 q 574 -12 611 -25 q 468 1 536 1 l 371 1 q 264 7 303 1 z "},"ğ":{"ha":840,"x_min":67,"x_max":835,"o":"m 67 0 m 419 783 q 635 724 557 783 q 764 775 664 775 l 835 775 l 835 635 l 701 635 q 719 535 719 594 q 627 332 719 403 q 393 261 535 261 q 261 278 313 261 q 256 238 256 258 q 256 214 256 217 q 344 138 256 139 q 513 135 394 135 q 744 78 678 135 q 810 -86 810 22 q 757 -234 810 -172 q 613 -328 704 -296 q 404 -360 521 -360 q 161 -312 256 -360 q 67 -158 67 -265 q 100 -53 67 -101 q 181 25 133 -4 q 117 72 131 43 q 103 149 103 100 q 129 226 103 179 q 192 304 156 274 q 72 511 72 372 q 120 661 72 600 q 247 753 168 722 q 419 783 326 783 m 393 697 q 299 662 333 697 q 264 553 264 626 q 299 408 264 463 q 411 354 333 354 q 508 397 479 354 q 536 521 536 440 q 393 697 536 697 m 264 7 q 239 -100 239 -33 q 293 -222 239 -181 q 436 -264 347 -264 q 590 -233 539 -264 q 640 -132 640 -203 q 626 -53 640 -82 q 574 -12 611 -25 q 468 1 536 1 l 371 1 q 264 7 303 1 m 643 1150 q 611 1036 643 1089 q 524 952 579 983 q 403 921 468 921 q 278 952 333 921 q 192 1036 224 983 q 161 1149 161 1089 l 268 1149 q 314 1074 286 1104 q 403 1044 342 1044 q 492 1075 464 1044 q 538 1150 521 1106 l 643 1150 z "},"ģ":{"ha":840,"x_min":67,"x_max":835,"o":"m 67 0 m 419 783 q 635 724 557 783 q 764 775 664 775 l 835 775 l 835 635 l 701 635 q 719 535 719 594 q 627 332 719 403 q 393 261 535 261 q 261 278 313 261 q 256 238 256 258 q 256 214 256 217 q 344 138 256 139 q 513 135 394 135 q 744 78 678 135 q 810 -86 810 22 q 757 -234 810 -172 q 613 -328 704 -296 q 404 -360 521 -360 q 161 -312 256 -360 q 67 -158 67 -265 q 100 -53 67 -101 q 181 25 133 -4 q 117 72 131 43 q 103 149 103 100 q 129 226 103 179 q 192 304 156 274 q 72 511 72 372 q 120 661 72 600 q 247 753 168 722 q 419 783 326 783 m 393 697 q 299 662 333 697 q 264 553 264 626 q 299 408 264 463 q 411 354 333 354 q 508 397 479 354 q 536 521 536 440 q 393 697 536 697 m 264 7 q 239 -100 239 -33 q 293 -222 239 -181 q 436 -264 347 -264 q 590 -233 539 -264 q 640 -132 640 -203 q 626 -53 640 -82 q 574 -12 611 -25 q 468 1 536 1 l 371 1 q 264 7 303 1 m 428 911 q 311 974 354 921 q 268 1096 268 1026 q 296 1197 268 1149 q 364 1278 324 1244 q 442 1322 404 1311 l 506 1286 l 506 1269 q 442 1143 442 1226 q 466 1079 442 1107 q 517 1051 490 1051 l 517 1006 l 428 911 z "},"h":{"ha":960,"x_min":56,"x_max":919,"o":"m 160 94 l 160 958 l 56 992 l 56 1072 l 317 1104 l 354 1090 l 353 776 l 344 681 q 466 751 399 726 q 599 776 533 776 q 741 736 692 776 q 808 620 790 696 q 824 418 825 544 l 824 94 l 919 78 l 919 0 l 524 1 l 524 78 l 631 94 l 631 369 q 623 528 631 472 q 585 615 615 583 q 492 647 556 647 q 418 639 451 647 q 354 607 385 631 l 354 94 l 435 78 l 435 0 l 61 0 l 61 78 l 160 94 z "},"ħ":{"ha":960,"x_min":51,"x_max":921,"o":"m 160 94 l 160 806 l 51 806 l 51 892 l 160 892 l 160 958 l 56 992 l 56 1072 l 317 1104 l 354 1090 l 353 892 l 469 892 l 469 806 l 353 806 l 353 776 l 344 681 q 466 751 399 726 q 599 776 533 776 q 741 736 692 776 q 808 619 790 696 q 824 418 825 543 l 824 94 l 921 78 l 921 0 l 525 1 l 525 78 l 631 94 l 631 369 q 623 528 631 472 q 585 615 615 583 q 492 647 556 647 q 354 607 408 647 l 354 94 l 435 78 l 435 0 l 61 0 l 61 78 l 160 94 z "},"i":{"ha":485,"x_min":61,"x_max":457,"o":"m 256 1150 q 342 1119 313 1150 q 372 1039 372 1089 q 331 945 372 982 q 233 908 289 908 q 151 940 186 908 q 117 1019 117 971 q 160 1112 117 1074 q 256 1150 203 1150 m 354 761 l 354 94 l 457 78 l 457 0 l 61 0 l 61 78 l 164 96 l 164 572 l 75 650 l 75 706 l 310 778 l 354 761 z "},"ı":{"ha":485,"x_min":61,"x_max":457,"o":"m 164 96 l 164 572 l 75 650 l 75 706 l 310 778 l 354 761 l 354 94 l 457 78 l 457 0 l 61 0 l 61 78 l 164 96 z "},"í":{"ha":485,"x_min":61,"x_max":499,"o":"m 61 0 m 164 96 l 164 572 l 75 650 l 75 706 l 310 778 l 354 761 l 354 94 l 457 78 l 457 0 l 61 0 l 61 78 l 164 96 m 357 1233 l 499 1110 q 373 990 457 1044 q 203 907 289 936 l 153 958 l 357 1233 z "},"î":{"ha":485,"x_min":-10,"x_max":513,"o":"m 174 1204 l 331 1204 l 513 949 l 431 906 l 251 1061 l 64 906 l -10 947 l 174 1204 m 164 96 l 164 572 l 75 650 l 75 706 l 310 779 l 354 764 l 354 94 l 457 78 l 457 0 l 61 0 l 61 78 l 164 96 z "},"ï":{"ha":485,"x_min":-35,"x_max":535,"o":"m 0 0 m 164 96 l 164 572 l 75 650 l 75 706 l 310 778 l 354 761 l 354 94 l 457 78 l 457 0 l 61 0 l 61 78 l 164 96 m 72 919 q -3 944 28 919 q -35 1011 -35 969 q 4 1090 -35 1058 q 90 1121 43 1121 q 171 1096 142 1121 q 200 1026 200 1071 q 161 949 200 978 q 72 919 122 919 m 410 919 q 333 944 364 919 q 303 1011 303 969 q 342 1090 303 1058 q 428 1121 381 1121 q 508 1096 481 1121 q 535 1028 535 1071 q 497 949 535 978 q 410 919 460 919 z "},"ì":{"ha":485,"x_min":42,"x_max":457,"o":"m 339 907 q 180 976 272 914 q 42 1110 88 1039 l 183 1233 l 388 958 l 339 907 m 164 96 l 164 572 l 75 650 l 75 706 l 310 779 l 354 764 l 354 94 l 457 78 l 457 0 l 61 0 l 61 78 l 164 96 z "},"ĳ":{"ha":938,"x_min":61,"x_max":842,"o":"m 61 0 m 256 1150 q 342 1119 313 1150 q 372 1039 372 1089 q 331 945 372 982 q 233 908 289 908 q 151 940 186 908 q 117 1019 117 971 q 160 1112 117 1074 q 256 1150 203 1150 m 354 761 l 354 94 l 457 78 l 457 0 l 61 0 l 61 78 l 164 96 l 164 572 l 75 650 l 75 706 l 310 778 l 354 761 m 724 1165 q 811 1135 781 1165 q 842 1054 842 1104 q 800 962 842 999 q 703 925 758 925 q 619 955 653 925 q 586 1035 586 985 q 606 1100 586 1069 q 658 1148 626 1131 q 724 1165 690 1165 m 831 761 l 831 -22 q 763 -267 831 -176 q 576 -358 696 -358 q 514 -353 550 -358 q 468 -342 478 -347 l 468 -225 q 502 -231 476 -228 q 546 -233 528 -233 q 621 -180 603 -233 q 639 -3 639 -126 l 639 572 l 556 651 l 556 703 l 786 778 l 831 761 z "},"ī":{"ha":485,"x_min":54,"x_max":457,"o":"m 54 0 m 164 96 l 164 572 l 75 650 l 75 706 l 310 778 l 354 761 l 354 94 l 457 78 l 457 0 l 61 0 l 61 78 l 164 96 m 426 1076 l 426 940 l 54 940 l 54 1076 l 426 1076 z "},"į":{"ha":485,"x_min":47,"x_max":463,"o":"m 233 908 q 151 940 186 908 q 117 1019 117 971 q 160 1112 117 1074 q 256 1150 203 1150 q 342 1119 313 1150 q 372 1039 372 1089 q 331 945 372 982 q 233 908 289 908 m 463 -268 q 340 -332 406 -308 q 186 -353 274 -356 q 83 -317 118 -351 q 47 -231 47 -282 q 117 -102 47 -169 q 269 0 186 -35 l 61 0 l 61 78 l 164 96 l 164 572 l 75 650 l 75 706 l 310 778 l 354 761 l 354 94 l 457 78 l 457 0 l 411 0 q 285 -78 346 -26 q 224 -175 224 -131 q 240 -218 224 -207 q 289 -232 257 -229 q 351 -224 321 -233 q 408 -203 382 -214 q 443 -189 433 -193 l 463 -268 z "},"ĩ":{"ha":485,"x_min":-31,"x_max":522,"o":"m 0 0 m 164 96 l 164 572 l 75 650 l 75 706 l 310 778 l 354 761 l 354 94 l 457 78 l 457 0 l 61 0 l 61 78 l 164 96 m -31 1001 q 54 1093 -8 1053 q 171 1133 117 1133 q 229 1122 206 1133 q 282 1089 253 1110 q 320 1064 304 1072 q 356 1056 336 1056 q 415 1070 388 1056 q 474 1110 443 1085 l 522 1050 q 438 957 499 997 q 325 917 378 917 q 265 928 290 917 q 211 963 240 940 q 173 988 189 979 q 138 996 157 996 q 18 940 85 996 l -31 1001 z "},"j":{"ha":453,"x_min":-17,"x_max":357,"o":"m 239 1165 q 326 1135 296 1165 q 357 1054 357 1104 q 315 962 357 999 q 218 925 274 925 q 135 955 168 925 q 101 1035 101 985 q 122 1100 101 1069 q 174 1148 142 1131 q 239 1165 206 1165 m 346 761 l 346 -22 q 278 -267 346 -176 q 92 -358 211 -358 q 29 -353 65 -358 q -17 -342 -7 -347 l -17 -225 q 17 -231 -8 -228 q 61 -233 43 -233 q 136 -180 118 -233 q 154 -3 154 -126 l 154 572 l 71 651 l 71 703 l 301 778 l 346 761 z "},"ȷ":{"ha":453,"x_min":-17,"x_max":346,"o":"m 71 651 l 71 703 l 301 778 l 346 761 l 346 -22 q 278 -267 346 -176 q 92 -358 211 -358 q 29 -353 65 -358 q -17 -342 -7 -347 l -17 -225 q 17 -231 -8 -228 q 61 -233 43 -233 q 136 -180 118 -233 q 154 -3 154 -126 l 154 572 l 71 651 z "},"ĵ":{"ha":453,"x_min":-17,"x_max":507,"o":"m 168 1225 l 326 1225 l 507 968 l 426 926 l 247 1081 l 57 926 l -15 968 l 168 1225 m 71 651 l 71 703 l 301 778 l 346 761 l 346 -22 q 278 -267 346 -176 q 92 -358 211 -358 q 29 -353 65 -358 q -17 -342 -7 -347 l -17 -225 q 17 -231 -8 -228 q 61 -233 43 -233 q 136 -180 118 -233 q 154 -3 154 -126 l 154 572 l 71 651 z "},"k":{"ha":893,"x_min":44,"x_max":889,"o":"m 160 96 l 160 947 l 44 986 l 44 1067 l 318 1104 l 354 1088 l 354 471 l 347 382 l 599 650 l 485 663 l 485 761 l 867 761 l 867 661 l 747 650 l 556 458 l 810 93 l 889 79 l 889 0 l 519 0 l 519 79 l 593 97 l 432 350 l 347 260 l 353 172 l 353 93 l 440 78 l 440 0 l 60 0 l 60 78 l 160 96 z "},"ķ":{"ha":893,"x_min":44,"x_max":889,"o":"m 44 0 m 160 96 l 160 947 l 44 986 l 44 1067 l 318 1104 l 354 1088 l 354 471 l 347 382 l 599 650 l 485 663 l 485 761 l 867 761 l 867 661 l 747 650 l 556 458 l 810 93 l 889 79 l 889 0 l 519 0 l 519 79 l 593 97 l 432 350 l 347 260 l 353 172 l 353 93 l 440 78 l 440 0 l 60 0 l 60 78 l 160 96 m 451 -24 q 568 -86 525 -33 q 611 -208 611 -139 q 583 -309 611 -261 q 515 -390 556 -357 q 438 -435 475 -424 l 374 -399 l 374 -382 q 438 -256 438 -339 q 413 -192 438 -219 q 363 -164 389 -164 l 363 -118 l 451 -24 z "},"ĸ":{"ha":893,"x_min":53,"x_max":889,"o":"m 160 96 l 160 604 l 53 651 l 53 726 l 299 781 l 354 761 l 354 479 l 347 382 l 597 650 l 485 663 l 485 761 l 867 761 l 867 661 l 747 650 l 556 458 l 810 93 l 889 79 l 889 0 l 518 0 l 518 79 l 593 97 l 432 350 l 347 260 l 353 172 l 353 93 l 440 78 l 440 0 l 60 0 l 60 78 l 160 96 z "},"l":{"ha":486,"x_min":54,"x_max":467,"o":"m 154 94 l 154 958 l 54 992 l 54 1072 l 313 1104 l 347 1090 l 347 96 l 467 78 l 467 0 l 56 0 l 56 78 l 154 94 z "},"ĺ":{"ha":486,"x_min":54,"x_max":500,"o":"m 54 0 m 154 94 l 154 958 l 54 992 l 54 1072 l 313 1104 l 347 1090 l 347 96 l 467 78 l 467 0 l 56 0 l 56 78 l 154 94 m 358 1485 l 500 1361 q 374 1242 458 1296 q 204 1158 290 1188 l 154 1210 l 358 1485 z "},"ľ":{"ha":486,"x_min":54,"x_max":607,"o":"m 54 0 m 154 94 l 154 958 l 54 992 l 54 1072 l 313 1104 l 347 1090 l 347 96 l 467 78 l 467 0 l 56 0 l 56 78 l 154 94 m 425 728 q 439 925 439 815 q 428 1023 439 976 q 404 1086 417 1069 l 414 1115 l 561 1151 q 594 1078 581 1132 q 607 969 607 1024 q 581 808 607 890 q 519 685 554 726 l 429 710 l 425 728 z "},"ļ":{"ha":486,"x_min":54,"x_max":467,"o":"m 54 0 m 154 94 l 154 958 l 54 992 l 54 1072 l 313 1104 l 347 1090 l 347 96 l 467 78 l 467 0 l 56 0 l 56 78 l 154 94 m 214 -24 q 331 -86 288 -33 q 374 -208 374 -139 q 346 -309 374 -261 q 278 -390 318 -357 q 200 -435 238 -424 l 136 -399 l 136 -382 q 200 -256 200 -339 q 176 -192 200 -219 q 125 -164 151 -164 l 125 -118 l 214 -24 z "},"ŀ":{"ha":761,"x_min":53,"x_max":744,"o":"m 346 1090 l 346 96 l 467 78 l 467 0 l 54 0 l 54 78 l 153 94 l 153 958 l 53 992 l 53 1072 l 311 1104 l 346 1090 m 625 671 q 713 639 682 671 q 744 556 744 607 q 702 463 744 500 q 604 425 660 426 q 520 456 556 425 q 485 538 485 488 q 506 604 485 574 q 559 653 526 635 q 625 671 592 671 z "},"ł":{"ha":486,"x_min":54,"x_max":474,"o":"m 154 94 l 154 474 l 65 440 l 65 576 l 154 611 l 154 958 l 54 992 l 54 1072 l 313 1104 l 347 1090 l 347 685 l 474 735 l 474 589 l 347 543 l 347 96 l 467 78 l 467 0 l 56 0 l 56 78 l 154 94 z "},"m":{"ha":1439,"x_min":74,"x_max":1407,"o":"m 168 94 l 168 582 l 74 644 l 74 711 l 294 778 l 338 764 l 338 665 q 454 742 382 710 q 592 778 526 775 q 724 757 671 781 q 803 675 776 733 q 928 749 856 721 q 1069 776 1000 776 q 1249 697 1194 776 q 1303 453 1303 617 l 1303 94 l 1407 78 l 1407 0 l 1025 0 l 1025 78 l 1108 94 l 1108 424 q 1098 553 1108 507 q 1057 622 1088 599 q 967 644 1026 644 q 828 600 906 644 q 839 467 839 549 l 839 94 l 938 78 l 938 0 l 547 0 l 547 78 l 644 96 l 644 431 q 617 596 644 547 q 508 644 589 644 q 434 632 472 644 q 363 594 396 619 l 363 94 l 454 78 l 454 0 l 81 0 l 81 78 l 168 94 z "},"n":{"ha":971,"x_min":74,"x_max":936,"o":"m 168 93 l 168 582 l 74 644 l 74 711 l 294 778 l 338 764 l 338 665 q 468 745 389 714 q 619 776 547 776 q 788 701 739 776 q 836 465 836 625 l 836 93 l 936 78 l 936 0 l 543 0 l 543 78 l 642 94 l 642 436 q 632 558 642 515 q 593 622 622 601 q 504 643 564 643 q 433 631 474 643 q 363 594 393 618 l 363 94 l 451 78 l 451 0 l 79 0 l 79 78 l 168 93 z "},"ń":{"ha":971,"x_min":74,"x_max":936,"o":"m 622 1233 l 764 1110 q 638 990 724 1044 q 468 907 553 936 l 418 958 l 622 1233 m 168 93 l 168 582 l 74 644 l 74 711 l 294 778 l 338 764 l 338 665 q 468 745 389 714 q 619 776 547 776 q 788 701 739 776 q 836 465 836 625 l 836 93 l 936 78 l 936 0 l 543 0 l 543 78 l 642 94 l 642 436 q 632 558 642 515 q 593 622 622 601 q 504 643 564 643 q 433 631 474 643 q 363 594 393 618 l 363 94 l 451 78 l 451 0 l 79 0 l 79 78 l 168 93 z "},"ň":{"ha":971,"x_min":74,"x_max":936,"o":"m 74 0 m 168 93 l 168 582 l 74 644 l 74 711 l 294 778 l 338 764 l 338 665 q 468 745 389 714 q 619 776 547 776 q 788 701 739 776 q 836 465 836 625 l 836 93 l 936 78 l 936 0 l 543 0 l 543 78 l 642 94 l 642 436 q 632 558 642 515 q 593 622 622 601 q 504 643 564 643 q 433 631 474 643 q 363 594 393 618 l 363 94 l 451 78 l 451 0 l 79 0 l 79 78 l 168 93 m 319 1204 l 504 1050 l 688 1204 l 765 1161 l 583 906 l 426 906 l 243 1163 l 319 1204 z "},"ņ":{"ha":971,"x_min":74,"x_max":936,"o":"m 74 0 m 168 93 l 168 582 l 74 644 l 74 711 l 294 778 l 338 764 l 338 665 q 468 745 389 714 q 619 776 547 776 q 788 701 739 776 q 836 465 836 625 l 836 93 l 936 78 l 936 0 l 543 0 l 543 78 l 642 94 l 642 436 q 632 558 642 515 q 593 622 622 601 q 504 643 564 643 q 433 631 474 643 q 363 594 393 618 l 363 94 l 451 78 l 451 0 l 79 0 l 79 78 l 168 93 m 469 -24 q 586 -86 543 -33 q 629 -208 629 -139 q 601 -309 629 -261 q 533 -390 574 -357 q 456 -435 493 -424 l 392 -399 l 392 -382 q 456 -256 456 -339 q 431 -192 456 -219 q 381 -164 407 -164 l 381 -118 l 469 -24 z "},"ñ":{"ha":971,"x_min":74,"x_max":936,"o":"m 74 0 m 168 93 l 168 582 l 74 644 l 74 711 l 294 778 l 338 764 l 338 665 q 468 745 389 714 q 619 776 547 776 q 788 701 739 776 q 836 465 836 625 l 836 93 l 936 78 l 936 0 l 543 0 l 543 78 l 642 94 l 642 436 q 632 558 642 515 q 593 622 622 601 q 504 643 564 643 q 433 631 474 643 q 363 594 393 618 l 363 94 l 451 78 l 451 0 l 79 0 l 79 78 l 168 93 m 236 1001 q 321 1093 258 1053 q 438 1133 383 1133 q 496 1122 472 1133 q 549 1089 519 1110 q 587 1064 571 1072 q 622 1056 603 1056 q 682 1070 654 1056 q 740 1110 710 1085 l 789 1050 q 705 957 765 997 q 592 917 644 917 q 532 928 557 917 q 478 963 507 940 q 440 988 456 979 q 404 996 424 996 q 285 940 351 996 l 236 1001 z "},"o":{"ha":871,"x_min":60,"x_max":815,"o":"m 449 782 q 721 679 626 783 q 814 394 815 575 q 764 178 814 272 q 628 34 714 85 q 432 -17 542 -17 q 155 92 250 -17 q 60 381 60 201 q 110 592 60 503 q 249 731 161 682 q 449 782 338 779 m 439 692 q 306 615 346 692 q 267 401 267 539 q 311 172 267 269 q 440 75 356 75 q 572 156 535 75 q 610 385 610 238 q 568 606 610 521 q 439 692 526 692 z "},"ó":{"ha":871,"x_min":60,"x_max":815,"o":"m 60 0 m 449 782 q 721 679 626 783 q 814 394 815 575 q 764 178 814 272 q 628 34 714 85 q 432 -17 542 -17 q 155 92 250 -17 q 60 381 60 201 q 110 592 60 503 q 249 731 161 682 q 449 782 338 779 m 439 692 q 306 615 346 692 q 267 401 267 539 q 311 172 267 269 q 440 75 356 75 q 572 156 535 75 q 610 385 610 238 q 568 606 610 521 q 439 692 526 692 m 547 1233 l 689 1110 q 563 990 647 1044 q 393 907 479 936 l 343 958 l 547 1233 z "},"ô":{"ha":871,"x_min":60,"x_max":815,"o":"m 60 0 m 449 782 q 721 679 626 783 q 814 394 815 575 q 764 178 814 272 q 628 34 714 85 q 432 -17 542 -17 q 155 92 250 -17 q 60 381 60 201 q 110 592 60 503 q 249 731 161 682 q 449 782 338 779 m 439 692 q 306 615 346 692 q 267 401 267 539 q 311 172 267 269 q 440 75 356 75 q 572 156 535 75 q 610 385 610 238 q 568 606 610 521 q 439 692 526 692 m 365 1204 l 524 1204 l 704 949 l 622 906 l 443 1061 l 254 906 l 182 947 l 365 1204 z "},"ö":{"ha":871,"x_min":60,"x_max":815,"o":"m 60 0 m 449 782 q 721 679 626 783 q 814 394 815 575 q 764 178 814 272 q 628 34 714 85 q 432 -17 542 -17 q 155 92 250 -17 q 60 381 60 201 q 110 592 60 503 q 249 731 161 682 q 449 782 338 779 m 439 692 q 306 615 346 692 q 267 401 267 539 q 311 172 267 269 q 440 75 356 75 q 572 156 535 75 q 610 385 610 238 q 568 606 610 521 q 439 692 526 692 m 265 919 q 190 944 221 919 q 158 1011 158 969 q 197 1090 158 1058 q 283 1121 236 1121 q 364 1096 335 1121 q 393 1026 393 1071 q 354 949 393 978 q 265 919 315 919 m 603 919 q 526 944 557 919 q 496 1011 496 969 q 535 1090 496 1058 q 621 1121 574 1121 q 701 1096 674 1121 q 728 1028 728 1071 q 690 949 728 978 q 603 919 653 919 z "},"ò":{"ha":871,"x_min":60,"x_max":815,"o":"m 60 0 m 449 782 q 721 679 626 783 q 814 394 815 575 q 764 178 814 272 q 628 34 714 85 q 432 -17 542 -17 q 155 92 250 -17 q 60 381 60 201 q 110 592 60 503 q 249 731 161 682 q 449 782 338 779 m 439 692 q 306 615 346 692 q 267 401 267 539 q 311 172 267 269 q 440 75 356 75 q 572 156 535 75 q 610 385 610 238 q 568 606 610 521 q 439 692 526 692 m 532 907 q 373 977 465 914 q 235 1110 281 1040 l 378 1233 l 581 958 l 532 907 z "},"ő":{"ha":871,"x_min":60,"x_max":840,"o":"m 60 0 m 449 782 q 721 679 626 783 q 814 394 815 575 q 764 178 814 272 q 628 34 714 85 q 432 -17 542 -17 q 155 92 250 -17 q 60 381 60 201 q 110 592 60 503 q 249 731 161 682 q 449 782 338 779 m 439 692 q 306 615 346 692 q 267 401 267 539 q 311 172 267 269 q 440 75 356 75 q 572 156 535 75 q 610 385 610 238 q 568 606 610 521 q 439 692 526 692 m 353 1240 l 475 1139 q 348 1002 428 1075 q 215 901 268 929 l 146 957 l 353 1240 m 714 1240 l 840 1139 q 706 997 786 1069 q 575 901 626 925 l 508 957 l 714 1240 z "},"ō":{"ha":871,"x_min":60,"x_max":815,"o":"m 60 0 m 613 1076 l 613 940 l 240 940 l 240 1076 l 613 1076 m 449 782 q 721 679 626 783 q 814 394 815 575 q 764 178 814 272 q 628 34 714 85 q 432 -17 542 -17 q 155 92 250 -17 q 60 381 60 201 q 110 592 60 503 q 249 731 161 682 q 449 782 338 779 m 439 692 q 306 615 346 692 q 267 401 267 539 q 311 172 267 269 q 440 75 356 75 q 572 156 535 75 q 610 385 610 238 q 568 606 610 521 q 439 692 526 692 z "},"ø":{"ha":871,"x_min":60,"x_max":814,"o":"m 276 8 q 113 148 167 50 q 60 376 60 246 q 110 591 60 500 q 249 731 161 682 q 449 782 338 779 q 532 775 488 782 l 568 886 l 635 867 l 599 756 q 759 624 704 718 q 814 400 814 531 q 765 182 814 276 q 628 35 715 88 q 431 -17 540 -17 q 347 -8 385 -17 l 307 -136 l 236 -115 l 276 8 m 496 679 q 439 692 471 692 q 265 401 265 692 q 281 260 265 329 q 325 146 296 190 l 496 679 m 382 89 q 438 75 410 75 q 570 155 533 75 q 607 385 607 235 q 556 626 607 551 l 382 89 z "},"õ":{"ha":871,"x_min":60,"x_max":815,"o":"m 60 0 m 449 782 q 721 679 626 783 q 814 394 815 575 q 764 178 814 272 q 628 34 714 85 q 432 -17 542 -17 q 155 92 250 -17 q 60 381 60 201 q 110 592 60 503 q 249 731 161 682 q 449 782 338 779 m 439 692 q 306 615 346 692 q 267 401 267 539 q 311 172 267 269 q 440 75 356 75 q 572 156 535 75 q 610 385 610 238 q 568 606 610 521 q 439 692 526 692 m 163 1001 q 247 1093 185 1053 q 364 1133 310 1133 q 422 1122 399 1133 q 475 1089 446 1110 q 513 1064 497 1072 q 549 1056 529 1056 q 608 1070 581 1056 q 667 1110 636 1085 l 715 1050 q 631 957 692 997 q 518 917 571 917 q 458 928 483 917 q 404 963 433 940 q 366 988 382 979 q 331 996 350 996 q 211 940 278 996 l 163 1001 z "},"œ":{"ha":1419,"x_min":60,"x_max":1363,"o":"m 1076 781 q 1288 702 1214 781 q 1363 479 1363 624 q 1353 360 1363 418 l 871 360 q 937 169 876 236 q 1107 101 997 101 q 1214 112 1157 101 q 1311 142 1271 122 l 1343 69 q 1211 6 1296 29 q 1044 -18 1126 -18 q 860 21 939 -18 q 735 132 781 60 q 601 22 682 61 q 431 -17 519 -17 q 154 92 249 -17 q 60 379 60 200 q 110 592 60 501 q 249 731 161 682 q 449 782 338 779 q 632 744 554 783 q 756 631 710 704 q 891 742 810 703 q 1076 781 972 781 m 1040 693 q 923 633 968 693 q 872 460 878 572 l 1168 460 q 1169 508 1169 475 q 1139 628 1169 590 q 1040 693 1118 693 m 440 692 q 306 615 346 692 q 267 401 267 538 q 310 174 267 271 q 439 75 354 76 q 572 156 535 75 q 610 385 610 238 q 569 606 610 521 q 440 692 528 692 z "},"p":{"ha":907,"x_min":60,"x_max":850,"o":"m 546 781 q 769 685 688 781 q 850 404 850 589 q 797 193 850 289 q 649 41 743 97 q 442 -15 556 -15 q 381 -10 415 -15 q 339 -4 346 -6 l 346 -147 l 346 -250 l 479 -268 l 479 -347 l 64 -347 l 64 -268 l 153 -250 l 153 582 l 60 644 l 60 711 l 281 778 l 319 764 l 319 681 q 412 750 346 719 q 546 781 478 781 m 465 671 q 397 653 429 671 q 344 615 364 636 l 344 136 q 393 97 357 110 q 475 83 429 83 q 569 120 528 83 q 633 224 610 157 q 657 383 657 292 q 604 595 657 519 q 465 671 551 671 z "},"þ":{"ha":885,"x_min":24,"x_max":828,"o":"m 317 1092 l 317 717 q 511 781 404 781 q 741 685 654 781 q 828 410 828 589 q 775 196 828 294 q 629 39 722 97 q 421 -19 536 -19 q 310 -11 382 -19 l 317 -69 l 317 -250 l 451 -267 l 451 -347 l 25 -347 l 25 -267 l 124 -249 l 124 961 l 24 994 l 24 1075 l 282 1103 l 317 1092 m 435 669 q 317 633 369 669 l 317 125 q 363 84 329 99 q 442 69 396 69 q 581 159 529 69 q 633 396 633 249 q 607 541 633 479 q 535 636 581 603 q 435 669 490 669 z "},"q":{"ha":875,"x_min":58,"x_max":858,"o":"m 485 781 q 574 772 529 781 q 644 749 618 764 l 738 778 l 769 763 l 769 -250 l 858 -267 l 858 -347 l 444 -347 l 444 -267 l 575 -251 l 575 -32 l 582 63 q 496 6 550 29 q 378 -18 442 -18 q 149 76 240 -18 q 58 374 58 169 q 114 582 58 489 q 267 728 169 675 q 485 781 364 781 m 471 690 q 310 612 363 690 q 257 386 257 533 q 305 178 257 254 q 444 103 353 103 q 521 115 486 103 q 576 146 556 126 l 576 644 q 533 678 561 667 q 471 690 504 690 z "},"r":{"ha":642,"x_min":72,"x_max":613,"o":"m 167 94 l 167 582 l 72 644 l 72 711 l 293 778 l 335 764 l 335 643 q 420 735 354 693 q 543 776 486 776 q 613 771 597 776 l 613 585 q 558 606 592 597 q 492 614 525 614 q 361 581 413 614 l 361 99 l 533 78 l 533 0 l 72 0 l 72 78 l 167 94 z "},"ŕ":{"ha":642,"x_min":72,"x_max":613,"o":"m 72 0 m 167 94 l 167 582 l 72 644 l 72 711 l 293 778 l 335 764 l 335 643 q 420 735 354 693 q 543 776 486 776 q 613 771 597 776 l 613 585 q 558 606 592 597 q 492 614 525 614 q 361 581 413 614 l 361 99 l 533 78 l 533 0 l 72 0 l 72 78 l 167 94 m 401 1233 l 543 1110 q 417 990 501 1044 q 247 907 333 936 l 197 958 l 401 1233 z "},"ř":{"ha":642,"x_min":72,"x_max":613,"o":"m 72 0 m 167 94 l 167 582 l 72 644 l 72 711 l 293 778 l 335 764 l 335 643 q 420 735 354 693 q 543 776 486 776 q 613 771 597 776 l 613 585 q 558 606 592 597 q 492 614 525 614 q 361 581 413 614 l 361 99 l 533 78 l 533 0 l 72 0 l 72 78 l 167 94 m 151 1204 l 336 1050 l 519 1204 l 597 1161 l 415 906 l 258 906 l 75 1163 l 151 1204 z "},"ŗ":{"ha":642,"x_min":72,"x_max":613,"o":"m 72 0 m 167 94 l 167 582 l 72 644 l 72 711 l 293 778 l 335 764 l 335 643 q 420 735 354 693 q 543 776 486 776 q 613 771 597 776 l 613 585 q 558 606 592 597 q 492 614 525 614 q 361 581 413 614 l 361 99 l 533 78 l 533 0 l 72 0 l 72 78 l 167 94 m 257 -24 q 374 -86 331 -33 q 417 -208 417 -139 q 389 -309 417 -261 q 321 -390 361 -357 q 243 -435 281 -424 l 179 -399 l 179 -382 q 243 -256 243 -339 q 219 -192 243 -219 q 168 -164 194 -164 l 168 -118 l 257 -24 z "},"s":{"ha":728,"x_min":88,"x_max":679,"o":"m 181 213 l 218 135 q 286 85 257 100 q 361 69 315 69 q 459 96 424 69 q 494 172 494 122 q 459 235 493 210 q 350 294 425 260 l 314 311 q 147 420 206 361 q 88 565 88 479 q 132 683 88 635 q 245 756 176 732 q 388 781 314 781 q 519 769 450 782 q 628 739 588 757 l 628 571 l 536 571 l 501 649 q 397 701 460 701 q 310 680 343 701 q 276 615 276 658 q 300 554 276 581 q 358 509 324 528 q 465 454 392 490 q 580 394 536 421 q 651 325 624 367 q 679 225 679 283 q 585 44 679 104 q 347 -17 492 -17 q 211 -1 281 -17 q 92 43 142 15 l 92 213 l 181 213 z "},"š":{"ha":715,"x_min":85,"x_max":676,"o":"m 183 1204 l 368 1050 l 551 1204 l 629 1161 l 446 906 l 290 906 l 107 1163 l 183 1204 m 179 213 l 215 135 q 283 85 254 100 q 360 69 313 69 q 458 96 422 69 q 493 172 493 122 q 458 235 492 210 q 349 294 424 260 l 313 311 q 144 421 204 361 q 85 568 85 481 q 131 685 86 638 q 244 757 176 733 q 385 781 313 781 q 517 769 449 782 q 626 739 586 757 l 626 571 l 535 571 l 500 649 q 396 701 458 701 q 308 679 342 701 q 275 613 275 657 q 299 551 275 578 q 358 506 322 525 q 465 454 393 488 q 578 394 536 421 q 649 325 621 367 q 676 225 676 283 q 583 44 676 104 q 346 -17 490 -17 q 210 -1 279 -17 q 90 43 140 15 l 90 213 l 179 213 z "},"ş":{"ha":728,"x_min":88,"x_max":679,"o":"m 678 225 q 596 52 678 113 q 383 -17 514 -8 q 386 -86 381 -57 q 499 -128 458 -90 q 540 -215 540 -167 q 485 -324 540 -287 q 339 -360 431 -360 q 281 -356 304 -360 q 238 -348 257 -353 q 210 -342 218 -343 l 210 -254 q 249 -260 226 -257 q 289 -262 272 -262 q 338 -251 321 -262 q 354 -208 354 -239 q 337 -173 354 -186 q 285 -160 319 -160 l 250 -161 q 258 -90 250 -135 q 276 -12 265 -44 q 92 43 167 1 l 92 213 l 181 213 l 218 135 q 286 85 257 100 q 361 69 315 69 q 459 96 424 69 q 494 172 494 122 q 459 235 493 210 q 350 294 425 260 l 314 311 q 147 420 206 361 q 88 565 88 479 q 132 683 88 635 q 245 756 176 732 q 388 781 314 781 q 519 769 450 782 q 628 739 588 757 l 628 571 l 536 571 l 501 649 q 397 701 460 701 q 310 680 343 701 q 276 615 276 658 q 300 554 276 581 q 358 509 324 528 q 465 454 392 490 q 580 394 536 421 q 651 325 624 367 q 679 225 679 283 l 678 225 z "},"ș":{"ha":728,"x_min":88,"x_max":679,"o":"m 88 0 m 181 213 l 218 135 q 286 85 257 100 q 361 69 315 69 q 459 96 424 69 q 494 172 494 122 q 459 235 493 210 q 350 294 425 260 l 314 311 q 147 420 206 361 q 88 565 88 479 q 132 683 88 635 q 245 756 176 732 q 388 781 314 781 q 519 769 450 782 q 628 739 588 757 l 628 571 l 536 571 l 501 649 q 397 701 460 701 q 310 680 343 701 q 276 615 276 658 q 300 554 276 581 q 358 509 324 528 q 465 454 392 490 q 580 394 536 421 q 651 325 624 367 q 679 225 679 283 q 585 44 679 104 q 347 -17 492 -17 q 211 -1 281 -17 q 92 43 142 15 l 92 213 l 181 213 m 335 -32 q 451 -94 408 -42 q 494 -217 494 -147 q 467 -317 494 -269 q 399 -399 439 -365 q 321 -443 358 -432 l 257 -407 l 257 -390 q 321 -264 321 -347 q 297 -200 321 -228 q 246 -172 272 -172 l 246 -126 l 335 -32 z "},"ß":{"ha":954,"x_min":38,"x_max":935,"o":"m 144 110 l 144 592 q 195 852 144 746 q 337 1012 246 958 q 549 1065 428 1065 q 718 1017 650 1065 q 786 871 786 969 q 763 774 786 813 q 696 692 739 735 q 642 629 660 656 q 625 567 625 603 q 657 495 625 521 q 757 440 689 469 q 849 393 814 415 q 910 332 885 371 q 935 236 935 293 q 853 49 935 113 q 638 -15 771 -15 q 535 -10 588 -15 q 457 6 482 -6 l 457 136 q 540 97 493 114 q 625 79 586 79 q 715 108 679 79 q 750 194 750 136 q 719 260 750 238 q 624 311 689 283 q 536 353 569 333 q 479 408 503 374 q 456 497 456 443 q 474 567 456 535 q 528 646 492 600 q 590 738 569 699 q 611 828 611 776 q 583 928 611 890 q 501 967 556 967 q 399 931 435 967 q 351 823 364 894 q 338 632 338 751 l 338 0 l 38 0 l 38 81 l 144 110 z "},"t":{"ha":606,"x_min":47,"x_max":571,"o":"m 332 758 l 557 758 l 557 651 l 338 651 l 338 365 q 342 208 338 260 q 363 131 346 157 q 417 106 379 106 q 484 114 444 106 q 540 132 524 122 l 571 61 q 464 4 536 25 q 326 -17 392 -17 q 190 37 232 -17 q 149 207 149 90 l 149 651 l 47 651 l 47 717 q 133 742 108 731 q 174 779 157 753 q 239 940 197 815 l 332 940 l 332 758 z "},"ť":{"ha":606,"x_min":47,"x_max":618,"o":"m 47 0 m 332 758 l 557 758 l 557 651 l 338 651 l 338 365 q 342 208 338 260 q 363 131 346 157 q 417 106 379 106 q 484 114 444 106 q 540 132 524 122 l 571 61 q 464 4 536 25 q 326 -17 392 -17 q 190 37 232 -17 q 149 207 149 90 l 149 651 l 47 651 l 47 717 q 133 742 108 731 q 174 779 157 753 q 239 940 197 815 l 332 940 l 332 758 m 436 917 q 450 1114 450 1004 q 439 1212 450 1165 q 415 1275 428 1258 l 425 1304 l 572 1340 q 605 1267 592 1321 q 618 1158 618 1213 q 592 997 618 1079 q 531 874 565 915 l 440 899 l 436 917 z "},"ț":{"ha":606,"x_min":47,"x_max":571,"o":"m 47 0 m 332 758 l 557 758 l 557 651 l 338 651 l 338 365 q 342 208 338 260 q 363 131 346 157 q 417 106 379 106 q 484 114 444 106 q 540 132 524 122 l 571 61 q 464 4 536 25 q 326 -17 392 -17 q 190 37 232 -17 q 149 207 149 90 l 149 651 l 47 651 l 47 717 q 133 742 108 731 q 174 779 157 753 q 239 940 197 815 l 332 940 l 332 758 m 289 -24 q 406 -86 363 -33 q 449 -208 449 -139 q 421 -309 449 -261 q 353 -390 393 -357 q 275 -435 313 -424 l 211 -399 l 211 -382 q 275 -256 275 -339 q 251 -192 275 -219 q 200 -164 226 -164 l 200 -118 l 289 -24 z "},"u":{"ha":890,"x_min":56,"x_max":844,"o":"m 56 656 l 56 725 l 279 776 l 310 765 l 310 296 q 335 147 310 193 q 431 101 360 101 q 514 118 471 101 q 576 154 557 135 l 576 611 l 490 647 l 490 725 l 738 776 l 765 765 l 765 78 l 844 78 l 844 13 q 770 -12 822 -1 q 681 -24 718 -24 q 618 -6 642 -24 q 594 46 594 11 l 594 85 q 486 12 551 40 q 364 -17 421 -17 q 213 19 265 -17 q 142 119 160 54 q 122 289 124 183 l 122 619 l 56 656 z "},"ú":{"ha":890,"x_min":56,"x_max":844,"o":"m 533 1233 l 675 1110 q 549 990 635 1044 q 379 907 464 935 l 329 958 l 533 1233 m 56 656 l 56 725 l 279 776 l 310 765 l 310 296 q 335 147 310 193 q 431 101 360 101 q 514 118 471 101 q 576 154 557 135 l 576 611 l 490 647 l 490 725 l 738 776 l 765 765 l 765 78 l 844 78 l 844 13 q 770 -12 822 -1 q 681 -24 718 -24 q 618 -6 642 -24 q 594 46 594 11 l 594 85 q 486 12 551 40 q 364 -17 421 -17 q 213 19 265 -17 q 142 119 160 54 q 122 289 124 183 l 122 619 l 56 656 z "},"û":{"ha":890,"x_min":56,"x_max":844,"o":"m 350 1204 l 508 1204 l 690 949 l 608 906 l 429 1061 l 240 906 l 168 947 l 350 1204 m 56 656 l 56 725 l 279 776 l 310 765 l 310 296 q 335 147 310 193 q 431 101 360 101 q 514 118 471 101 q 576 154 557 135 l 576 611 l 490 647 l 490 725 l 738 776 l 765 765 l 765 78 l 844 78 l 844 13 q 770 -12 822 -1 q 681 -24 718 -24 q 618 -6 642 -24 q 594 46 594 11 l 594 85 q 486 12 551 40 q 364 -17 421 -17 q 213 19 265 -17 q 142 119 160 54 q 122 289 124 183 l 122 619 l 56 656 z "},"ü":{"ha":890,"x_min":56,"x_max":844,"o":"m 56 0 m 56 656 l 56 725 l 279 776 l 310 765 l 310 296 q 335 147 310 193 q 431 101 360 101 q 514 118 471 101 q 576 154 557 135 l 576 611 l 490 647 l 490 725 l 738 776 l 765 765 l 765 78 l 844 78 l 844 13 q 770 -12 822 -1 q 681 -24 718 -24 q 618 -6 642 -24 q 594 46 594 11 l 594 85 q 486 12 551 40 q 364 -17 421 -17 q 213 19 265 -17 q 142 119 160 54 q 122 289 124 183 l 122 619 l 56 656 m 251 919 q 176 944 207 919 q 144 1011 144 969 q 183 1090 144 1058 q 269 1121 222 1121 q 350 1096 321 1121 q 379 1026 379 1071 q 340 949 379 978 q 251 919 301 919 m 589 919 q 513 944 543 919 q 482 1011 482 969 q 521 1090 482 1058 q 607 1121 560 1121 q 687 1096 660 1121 q 714 1028 714 1071 q 676 949 714 978 q 589 919 639 919 z "},"ù":{"ha":890,"x_min":56,"x_max":844,"o":"m 517 907 q 358 976 450 914 q 219 1110 267 1039 l 363 1233 l 567 958 l 517 907 m 56 656 l 56 725 l 279 776 l 310 765 l 310 296 q 335 147 310 193 q 431 101 360 101 q 514 118 471 101 q 576 154 557 135 l 576 611 l 490 647 l 490 725 l 738 776 l 765 765 l 765 78 l 844 78 l 844 13 q 770 -12 822 -1 q 681 -24 718 -24 q 618 -6 642 -24 q 594 46 594 11 l 594 85 q 486 12 551 40 q 364 -17 421 -17 q 213 19 265 -17 q 142 119 160 54 q 122 289 124 183 l 122 619 l 56 656 z "},"ű":{"ha":890,"x_min":56,"x_max":876,"o":"m 56 0 m 56 656 l 56 725 l 279 776 l 310 765 l 310 296 q 335 147 310 193 q 431 101 360 101 q 514 118 471 101 q 576 154 557 135 l 576 611 l 490 647 l 490 725 l 738 776 l 765 765 l 765 78 l 844 78 l 844 13 q 770 -12 822 -1 q 681 -24 718 -24 q 618 -6 642 -24 q 594 46 594 11 l 594 85 q 486 12 551 40 q 364 -17 421 -17 q 213 19 265 -17 q 142 119 160 54 q 122 289 124 183 l 122 619 l 56 656 m 389 1240 l 511 1139 q 384 1002 464 1075 q 251 901 304 929 l 182 957 l 389 1240 m 750 1240 l 876 1139 q 742 997 822 1069 q 611 901 663 925 l 544 957 l 750 1240 z "},"ū":{"ha":890,"x_min":56,"x_max":844,"o":"m 56 0 m 56 656 l 56 725 l 279 776 l 310 765 l 310 296 q 335 147 310 193 q 431 101 360 101 q 514 118 471 101 q 576 154 557 135 l 576 611 l 490 647 l 490 725 l 738 776 l 765 765 l 765 78 l 844 78 l 844 13 q 770 -12 822 -1 q 681 -24 718 -24 q 618 -6 642 -24 q 594 46 594 11 l 594 85 q 486 12 551 40 q 364 -17 421 -17 q 213 19 265 -17 q 142 119 160 54 q 122 289 124 183 l 122 619 l 56 656 m 631 1076 l 631 940 l 258 940 l 258 1076 l 631 1076 z "},"ų":{"ha":890,"x_min":57,"x_max":846,"o":"m 743 -18 q 639 -94 683 -50 q 594 -175 594 -137 q 611 -218 594 -207 q 660 -232 628 -229 q 722 -224 692 -233 q 778 -203 753 -214 q 814 -189 804 -193 l 833 -268 q 710 -332 776 -308 q 557 -353 644 -356 q 453 -317 489 -351 q 418 -231 418 -282 q 481 -110 418 -174 q 622 -8 543 -47 q 596 46 596 10 l 596 85 q 488 12 553 40 q 365 -17 422 -17 q 214 19 267 -17 q 143 119 161 54 q 124 289 125 183 l 124 619 l 57 656 l 57 725 l 281 776 l 311 765 l 311 296 q 336 147 311 193 q 432 101 361 101 q 515 118 472 101 q 578 154 558 135 l 578 611 l 492 647 l 492 725 l 739 776 l 767 765 l 767 78 l 846 78 l 846 13 q 744 -18 818 -6 l 743 -18 z "},"ů":{"ha":890,"x_min":56,"x_max":844,"o":"m 56 0 m 56 656 l 56 725 l 279 776 l 310 765 l 310 296 q 335 147 310 193 q 431 101 360 101 q 514 118 471 101 q 576 154 557 135 l 576 611 l 490 647 l 490 725 l 738 776 l 765 765 l 765 78 l 844 78 l 844 13 q 770 -12 822 -1 q 681 -24 718 -24 q 618 -6 642 -24 q 594 46 594 11 l 594 85 q 486 12 551 40 q 364 -17 421 -17 q 213 19 265 -17 q 142 119 160 54 q 122 289 124 183 l 122 619 l 56 656 m 442 1235 q 535 1210 492 1235 q 603 1146 578 1186 q 628 1058 628 1106 q 602 969 628 1010 q 533 906 576 929 q 442 883 490 883 q 349 907 392 883 q 281 971 307 931 q 256 1058 256 1011 q 281 1147 256 1107 q 349 1211 307 1188 q 442 1235 392 1235 m 442 1146 q 379 1120 404 1146 q 354 1058 354 1094 q 379 996 354 1021 q 442 971 404 971 q 503 997 478 971 q 529 1058 529 1022 q 503 1120 529 1094 q 442 1146 478 1146 z "},"v":{"ha":839,"x_min":3,"x_max":838,"o":"m 3 660 l 3 758 l 353 758 l 353 658 l 283 642 l 407 314 l 457 151 l 503 310 l 611 642 l 528 658 l 528 758 l 838 758 l 838 658 l 763 638 l 500 -10 l 351 -10 l 68 643 l 3 660 z "},"w":{"ha":1199,"x_min":1,"x_max":1197,"o":"m 1 658 l 1 758 l 346 758 l 346 658 l 268 642 l 364 297 l 396 163 l 421 286 l 543 758 l 707 758 l 828 288 l 860 160 l 889 285 l 972 640 l 888 658 l 888 758 l 1197 758 l 1197 658 l 1108 639 l 921 -10 l 742 -10 l 619 414 l 593 536 l 568 414 l 457 -10 l 285 -10 l 74 643 l 1 658 z "},"x":{"ha":838,"x_min":0,"x_max":836,"o":"m 107 97 l 322 365 l 92 643 l 4 658 l 4 758 l 392 758 l 392 658 l 315 643 l 389 535 l 446 456 l 467 492 l 578 646 l 486 658 l 486 758 l 833 758 l 833 658 l 718 640 l 511 394 l 750 96 l 836 78 l 836 0 l 456 0 l 456 78 l 528 96 l 451 203 l 386 290 l 367 253 l 258 99 l 369 78 l 369 0 l 0 0 l 0 78 l 107 97 z "},"y":{"ha":808,"x_min":3,"x_max":817,"o":"m 101 -197 q 179 -206 147 -207 q 290 -155 242 -206 q 368 4 339 -104 l 332 4 l 65 643 l 3 658 l 3 758 l 361 758 l 361 658 l 278 643 l 419 239 l 444 143 l 474 242 l 594 644 l 494 658 l 494 758 l 817 758 l 817 658 l 749 646 q 597 235 689 475 q 492 -33 506 -6 q 404 -215 447 -147 q 306 -312 361 -282 q 182 -358 254 -358 q 133 -356 160 -358 q 100 -349 107 -353 l 101 -197 z "},"ý":{"ha":808,"x_min":3,"x_max":817,"o":"m 3 0 m 101 -197 q 179 -206 147 -207 q 290 -155 242 -206 q 368 4 339 -104 l 332 4 l 65 643 l 3 658 l 3 758 l 361 758 l 361 658 l 278 643 l 419 239 l 444 143 l 474 242 l 594 644 l 494 658 l 494 758 l 817 758 l 817 658 l 749 646 q 597 235 689 475 q 492 -33 506 -6 q 404 -215 447 -147 q 306 -312 361 -282 q 182 -358 254 -358 q 133 -356 160 -358 q 100 -349 107 -353 l 101 -197 m 539 1233 l 681 1110 q 555 990 639 1044 q 385 907 471 936 l 335 958 l 539 1233 z "},"ÿ":{"ha":808,"x_min":3,"x_max":817,"o":"m 3 0 m 101 -197 q 179 -206 147 -207 q 290 -155 242 -206 q 368 4 339 -104 l 332 4 l 65 643 l 3 658 l 3 758 l 361 758 l 361 658 l 278 643 l 419 239 l 444 143 l 474 242 l 594 644 l 494 658 l 494 758 l 817 758 l 817 658 l 749 646 q 597 235 689 475 q 492 -33 506 -6 q 404 -215 447 -147 q 306 -312 361 -282 q 182 -358 254 -358 q 133 -356 160 -358 q 100 -349 107 -353 l 101 -197 m 257 919 q 181 944 213 919 q 150 1011 150 969 q 189 1090 150 1058 q 275 1121 228 1121 q 356 1096 326 1121 q 385 1026 385 1071 q 346 949 385 978 q 257 919 307 919 m 594 919 q 518 944 549 919 q 488 1011 488 969 q 526 1090 488 1058 q 613 1121 565 1121 q 692 1096 665 1121 q 719 1028 719 1071 q 682 949 719 978 q 594 919 644 919 z "},"z":{"ha":756,"x_min":47,"x_max":724,"o":"m 719 686 l 368 185 l 292 88 l 581 108 l 622 222 l 724 222 l 714 0 l 75 0 l 47 64 l 110 158 l 433 610 l 489 672 l 219 660 l 175 529 l 78 529 l 78 758 l 692 758 l 719 686 z "},"ź":{"ha":756,"x_min":47,"x_max":724,"o":"m 47 0 m 719 686 l 368 185 l 292 88 l 581 108 l 622 222 l 724 222 l 714 0 l 75 0 l 47 64 l 110 158 l 433 610 l 489 672 l 219 660 l 175 529 l 78 529 l 78 758 l 692 758 l 719 686 m 457 1233 l 599 1110 q 473 990 557 1044 q 303 907 389 936 l 253 958 l 457 1233 z "},"ž":{"ha":756,"x_min":47,"x_max":724,"o":"m 47 0 m 719 686 l 368 185 l 292 88 l 581 108 l 622 222 l 724 222 l 714 0 l 75 0 l 47 64 l 110 158 l 433 610 l 489 672 l 219 660 l 175 529 l 78 529 l 78 758 l 692 758 l 719 686 m 207 1204 l 392 1050 l 575 1204 l 653 1161 l 471 906 l 314 906 l 131 1163 l 207 1204 z "},"ż":{"ha":756,"x_min":47,"x_max":724,"o":"m 47 0 m 719 686 l 368 185 l 292 88 l 581 108 l 622 222 l 724 222 l 714 0 l 75 0 l 47 64 l 110 158 l 433 610 l 489 672 l 219 660 l 175 529 l 78 529 l 78 758 l 692 758 l 719 686 m 393 1107 q 474 1082 444 1107 q 503 1013 503 1057 q 464 934 503 964 q 375 904 425 904 q 299 930 331 904 q 268 997 268 956 q 307 1076 268 1044 q 393 1107 346 1107 z "},"ﬁ":{"ha":1090,"x_min":47,"x_max":1063,"o":"m 492 1163 q 565 1157 531 1163 q 614 1144 600 1151 l 614 992 q 553 1013 596 1003 q 475 1024 511 1024 q 415 1013 436 1024 q 385 972 394 1001 q 376 883 376 942 l 376 761 l 576 761 l 576 640 l 376 640 l 376 96 l 533 78 l 533 0 l 61 0 l 61 78 l 183 96 l 183 640 l 47 640 l 47 706 l 183 754 l 183 815 q 229 987 183 907 q 347 1115 275 1067 q 492 1163 418 1163 m 861 1150 q 947 1119 917 1150 q 978 1039 978 1089 q 936 945 978 982 q 839 908 894 908 q 756 940 790 908 q 722 1019 722 971 q 765 1112 722 1074 q 861 1150 808 1150 m 960 761 l 960 94 l 1063 78 l 1063 0 l 665 0 l 665 78 l 768 96 l 768 572 l 681 650 l 681 706 l 914 778 l 960 761 z "},"ﬂ":{"ha":1092,"x_min":47,"x_max":1074,"o":"m 183 96 l 183 640 l 47 640 l 47 706 l 183 754 l 183 815 q 229 987 183 907 q 347 1115 275 1067 q 492 1163 418 1163 q 565 1157 531 1163 q 614 1144 600 1151 l 614 992 q 553 1013 596 1003 q 475 1024 511 1024 q 415 1013 436 1024 q 385 972 394 1001 q 376 883 376 942 l 376 761 l 576 761 l 576 640 l 376 640 l 376 96 l 533 78 l 533 0 l 61 0 l 61 78 l 183 96 m 760 94 l 760 958 l 660 992 l 660 1072 l 918 1104 l 954 1090 l 954 96 l 1074 78 l 1074 0 l 661 0 l 661 78 l 760 94 z "},"ª":{"ha":725,"x_min":82,"x_max":665,"o":"m 367 1079 q 549 1038 489 1079 q 610 879 610 996 l 607 589 l 665 589 l 665 525 q 589 505 633 514 q 518 496 544 496 q 465 510 482 496 q 444 558 449 525 q 369 515 417 533 q 254 497 322 497 q 173 517 213 497 q 108 576 133 538 q 82 665 82 614 q 185 817 82 771 q 438 863 288 863 l 438 875 q 406 956 438 938 q 308 975 375 975 q 219 965 264 975 q 151 938 175 954 l 118 1022 q 226 1063 150 1046 q 367 1079 301 1079 m 438 788 q 303 761 353 785 q 253 688 253 738 q 277 622 253 646 q 336 599 301 599 q 388 605 358 599 q 438 624 418 611 l 438 788 z "},"º":{"ha":736,"x_min":74,"x_max":667,"o":"m 381 1081 q 590 1001 513 1081 q 667 783 667 921 q 621 626 665 690 q 508 529 576 561 q 361 497 439 497 q 152 572 231 497 q 74 783 74 647 q 116 947 74 879 q 228 1047 158 1014 q 381 1081 299 1081 m 372 997 q 254 794 254 997 q 286 643 254 704 q 367 582 318 582 q 458 626 432 582 q 485 779 485 669 q 454 933 485 869 q 372 997 424 997 z "},"Ω":{"ha":1385,"x_min":101,"x_max":1286,"o":"m 196 314 l 222 168 l 453 168 q 328 269 389 204 q 231 417 268 335 q 193 583 193 500 q 261 842 193 735 q 443 1004 329 950 q 696 1058 557 1058 q 942 1008 835 1058 q 1111 859 1050 957 q 1172 624 1172 761 q 1135 461 1172 547 q 1040 298 1099 375 q 919 168 982 221 l 1143 168 l 1201 328 l 1286 322 l 1249 0 l 781 0 l 781 144 q 913 342 863 201 q 964 628 964 482 q 888 886 964 796 q 689 976 811 976 q 474 883 546 976 q 401 606 401 789 q 431 424 401 515 q 508 260 461 333 q 607 144 556 188 l 608 0 l 101 0 l 101 308 l 196 314 z "},"μ":{"ha":913,"x_min":90,"x_max":878,"o":"m 157 -243 l 157 619 l 90 656 l 90 725 l 314 776 l 344 765 l 344 294 q 369 147 344 192 q 467 101 394 101 q 549 118 506 101 q 610 154 592 135 l 610 611 l 525 647 l 525 725 l 771 776 l 800 765 l 800 78 l 878 78 l 878 13 q 805 -12 857 -1 q 715 -24 753 -24 q 653 -6 676 -24 q 631 46 631 11 l 631 85 q 521 11 586 39 q 399 -17 456 -17 q 344 -14 375 -17 l 344 -243 l 157 -243 z "},"π":{"ha":1094,"x_min":72,"x_max":1018,"o":"m 1008 831 q 946 659 1003 725 q 796 588 889 593 l 778 214 q 787 151 776 174 q 814 128 797 128 q 876 151 846 128 q 917 208 906 174 l 1018 208 q 969 104 1004 156 q 885 19 935 53 q 782 -14 836 -14 q 636 156 636 -14 l 638 185 l 649 314 l 674 588 l 446 588 l 442 408 l 439 294 q 415 133 432 183 q 347 36 397 82 q 242 -17 306 3 l 104 82 q 151 99 114 83 q 208 129 189 115 q 285 213 265 167 q 308 338 304 260 q 315 447 315 432 l 325 588 l 274 588 q 203 569 235 588 q 161 521 172 551 l 75 535 q 72 553 72 543 q 82 603 72 579 q 165 716 107 674 q 296 758 224 758 l 788 758 q 868 775 835 758 q 921 831 901 792 l 1008 831 z "},"ऄ":{"ha":1222,"x_min":21,"x_max":1226,"o":"m 1226 778 l 1092 778 l 1092 -67 l 1063 -67 l 926 11 l 926 276 l 922 276 q 865 268 897 268 q 785 284 824 268 q 699 339 747 300 l 689 336 q 707 236 707 292 q 642 65 707 129 q 474 0 578 0 q 217 106 326 0 q 21 361 108 213 l 68 399 q 231 222 143 292 q 404 153 318 153 q 521 195 475 153 q 567 294 567 238 q 525 421 567 371 q 325 379 435 393 l 261 497 l 276 532 q 398 547 346 538 q 485 575 450 556 q 553 686 551 611 q 519 763 553 731 q 432 794 486 794 q 322 767 372 794 q 213 686 271 740 l 135 836 q 258 904 189 876 q 379 932 326 932 q 503 882 436 931 q 617 763 571 833 q 664 631 664 693 q 597 464 664 539 q 694 425 640 440 q 793 410 749 410 q 925 449 869 410 l 925 781 l 731 781 l 672 893 l 672 921 l 954 921 q 958 954 958 936 q 922 1046 958 1007 q 807 1085 886 1085 q 743 1081 783 1085 q 683 1075 703 1076 q 532 1063 589 1063 q 371 1089 453 1063 q 235 1157 289 1115 q 181 1243 181 1199 q 215 1386 181 1308 l 292 1375 q 267 1275 267 1317 q 294 1231 267 1247 q 381 1214 322 1214 q 600 1226 413 1214 q 776 1238 747 1238 q 886 1209 835 1238 q 976 1135 938 1181 q 1025 1059 1007 1099 q 1043 983 1043 1019 q 1036 921 1043 953 l 1163 921 l 1224 807 l 1226 778 z "},"ॲ":{"ha":1222,"x_min":19,"x_max":1350,"o":"m 19 0 m 1224 778 l 1090 778 l 1090 -67 l 1061 -67 l 925 11 l 925 276 l 921 276 q 864 268 896 268 q 784 284 822 268 q 697 339 746 300 l 688 336 q 706 236 706 292 q 641 65 706 129 q 472 0 576 0 q 216 106 325 0 q 19 361 107 213 l 67 399 q 229 222 142 292 q 403 153 317 153 q 519 195 474 153 q 565 294 565 238 q 524 421 565 371 q 324 379 433 393 l 260 497 l 275 532 q 397 547 344 538 q 483 575 449 556 q 551 686 550 611 q 518 763 551 731 q 431 794 485 794 q 320 767 371 794 q 211 686 269 740 l 133 836 q 256 904 188 876 q 378 932 325 932 q 502 882 435 931 q 616 763 569 833 q 663 631 663 693 q 596 464 663 539 q 693 425 639 440 q 792 410 747 410 q 924 449 868 410 l 924 781 l 732 781 l 674 893 l 674 921 l 1163 921 l 1222 807 l 1224 778 m 1350 1196 q 1222 1080 1292 1121 q 1053 1039 1153 1039 q 858 1113 946 1039 q 717 1286 771 1188 l 765 1307 q 865 1197 813 1238 q 985 1157 918 1157 q 1130 1203 1067 1158 q 1228 1308 1193 1249 l 1350 1196 z "},"अ":{"ha":1222,"x_min":19,"x_max":1224,"o":"m 1224 778 l 1090 778 l 1090 -67 l 1061 -67 l 925 11 l 925 276 l 921 276 q 864 268 896 268 q 784 284 822 268 q 697 339 746 300 l 688 336 q 706 236 706 292 q 641 65 706 129 q 472 0 576 0 q 216 106 325 0 q 19 361 107 213 l 67 399 q 229 222 142 292 q 403 153 317 153 q 519 195 474 153 q 565 294 565 238 q 524 421 565 371 q 324 379 433 393 l 260 497 l 275 532 q 397 547 344 538 q 483 575 449 556 q 551 686 550 611 q 518 763 551 731 q 431 794 485 794 q 320 767 371 794 q 211 686 269 740 l 133 836 q 256 904 188 876 q 378 932 325 932 q 502 882 435 931 q 616 763 569 833 q 663 631 663 693 q 596 464 663 539 q 693 425 639 440 q 792 410 747 410 q 924 449 868 410 l 924 781 l 732 781 l 674 893 l 674 921 l 1163 921 l 1222 807 l 1224 778 z "},"आ":{"ha":1658,"x_min":19,"x_max":1660,"o":"m 1660 778 l 1524 778 l 1524 -67 l 1494 -67 l 1357 11 l 1357 778 l 1090 778 l 1090 -67 l 1061 -67 l 925 11 l 925 276 l 921 276 q 864 268 896 268 q 784 284 822 268 q 697 339 746 300 l 688 336 q 706 236 706 292 q 641 65 706 129 q 472 0 576 0 q 216 106 325 0 q 19 361 107 213 l 67 399 q 229 222 142 292 q 403 153 317 153 q 519 195 474 153 q 565 294 565 238 q 524 421 565 371 q 324 379 433 393 l 260 497 l 275 532 q 397 547 344 538 q 483 575 449 556 q 551 686 550 611 q 518 763 551 731 q 431 794 485 794 q 320 767 371 794 q 211 686 269 740 l 133 836 q 256 904 188 876 q 378 932 325 932 q 502 882 435 931 q 616 763 569 833 q 663 631 663 693 q 596 464 663 539 q 693 425 639 440 q 792 410 747 410 q 924 449 868 410 l 924 781 l 732 781 l 674 893 l 674 921 l 1597 921 l 1658 807 l 1660 778 z "},"इ":{"ha":743,"x_min":-61,"x_max":738,"o":"m 299 542 q 229 516 249 542 q 210 457 210 490 q 221 415 210 435 q 246 396 232 396 q 399 426 297 397 q 485 446 463 446 q 558 409 521 446 q 618 315 594 372 q 642 200 642 257 q 600 76 642 133 q 490 -15 558 19 q 350 -50 422 -49 l 418 -122 l 422 -264 l 329 -124 l 308 -49 q 144 1 210 -42 q 79 101 79 43 q 97 155 79 132 q 138 191 114 178 q 181 204 161 204 q 206 201 189 204 l 276 90 q 417 110 347 92 q 531 162 486 129 q 576 233 576 194 q 569 278 576 256 q 549 307 563 300 q 494 297 531 307 q 453 285 458 286 q 331 258 363 258 q 247 296 300 258 q 155 389 194 333 q 115 497 115 444 q 154 640 115 593 q 260 688 193 688 l 426 688 l 426 781 l -4 781 l -61 893 l -61 921 l 676 921 l 738 807 l 738 781 l 592 781 l 592 542 l 299 542 z "},"ई":{"ha":743,"x_min":-61,"x_max":767,"o":"m 676 921 l 738 807 l 738 781 l 592 781 l 592 542 l 299 542 q 229 516 249 542 q 210 457 210 490 q 221 415 210 435 q 246 396 232 396 q 399 426 297 397 q 485 446 463 446 q 558 409 521 446 q 618 315 594 372 q 642 200 642 257 q 600 76 642 133 q 490 -15 558 19 q 350 -50 422 -49 l 418 -122 l 422 -264 l 329 -124 l 308 -49 q 144 1 210 -42 q 79 101 79 43 q 97 155 79 132 q 138 191 114 178 q 181 204 161 204 q 206 201 189 204 l 276 90 q 417 110 347 92 q 531 162 486 129 q 576 233 576 194 q 569 278 576 256 q 549 307 563 300 q 494 297 531 307 q 453 285 458 286 q 331 258 363 258 q 247 296 300 258 q 155 389 194 333 q 115 497 115 444 q 154 640 115 593 q 260 688 193 688 l 426 688 l 426 781 l -4 781 l -61 893 l -61 921 l 432 921 q 310 1050 357 979 q 264 1186 264 1121 q 298 1295 264 1249 q 385 1365 332 1342 q 497 1389 439 1389 q 641 1349 571 1389 q 767 1238 711 1308 l 728 1181 q 647 1225 700 1203 q 549 1247 593 1247 q 472 1217 503 1247 q 440 1129 440 1186 q 531 921 440 1032 l 676 921 z "},"उ":{"ha":861,"x_min":-61,"x_max":861,"o":"m 861 781 l 601 781 q 694 594 694 651 q 628 444 694 504 q 749 321 708 376 q 789 201 789 265 q 760 87 789 142 q 679 -3 732 32 q 560 -37 626 -37 q 263 83 397 -37 q 40 350 129 204 l 89 393 q 276 196 165 278 q 490 114 386 114 q 574 135 538 114 q 631 188 611 156 q 650 253 650 221 q 560 400 650 325 q 443 375 504 375 q 331 394 381 375 l 269 535 l 283 560 q 313 556 296 560 q 392 549 372 549 q 524 578 478 549 q 572 661 571 608 q 551 721 572 689 q 499 781 529 753 l -3 781 l -61 893 l -61 921 l 800 921 l 861 807 l 861 781 z "},"ऊ":{"ha":1231,"x_min":-61,"x_max":1229,"o":"m 1228 779 l 600 779 q 693 593 693 650 q 626 443 693 503 l 675 401 q 824 507 754 467 q 956 547 894 547 q 1049 511 1000 547 q 1130 415 1097 475 q 1163 289 1163 356 q 1146 158 1163 232 q 1099 18 1129 83 l 918 93 q 1019 228 972 154 q 1067 347 1067 301 q 1044 400 1067 382 q 983 418 1022 418 q 883 379 935 418 q 774 272 831 340 q 789 201 789 238 q 760 87 789 142 q 679 -3 732 32 q 560 -37 626 -37 q 263 83 397 -37 q 40 350 129 204 l 89 393 q 276 196 165 278 q 490 114 386 114 q 574 135 538 114 q 631 188 611 156 q 650 253 650 221 q 560 400 650 325 q 443 375 504 375 q 331 394 381 375 l 269 535 l 283 560 q 313 556 296 560 q 392 549 372 549 q 524 578 478 549 q 572 661 571 608 q 551 721 572 689 q 499 781 529 753 l -3 781 l -61 893 l -61 921 l 1169 921 l 1229 807 l 1228 779 z "},"ऋ":{"ha":1246,"x_min":-61,"x_max":1251,"o":"m 1246 807 l 1246 781 l 724 781 l 724 479 q 879 531 808 483 l 840 633 q 879 658 854 647 q 928 668 904 668 q 1015 638 981 668 q 1049 561 1049 608 q 1015 475 1049 517 l 1117 217 q 995 151 1036 183 q 953 82 954 118 q 975 44 953 60 q 1039 29 997 29 q 1110 42 1071 29 q 1176 75 1149 56 l 1251 -57 q 1176 -88 1219 -75 q 1104 -101 1133 -101 q 997 -66 1056 -101 q 896 22 938 -31 q 854 124 854 75 q 972 299 856 218 l 931 410 q 724 360 833 356 l 724 -64 l 694 -64 l 557 14 l 561 279 l 560 285 l 224 49 l 121 164 l 557 436 q 444 495 499 478 q 333 513 389 513 q 239 499 286 513 q 133 464 192 485 l 47 617 q 150 647 81 629 q 263 664 219 664 q 397 619 318 664 q 558 507 476 575 l 558 781 l -3 781 l -61 893 l -61 921 l 1185 921 l 1246 807 z "},"ॠ":{"ha":1246,"x_min":-61,"x_max":1356,"o":"m 1246 807 l 1246 781 l 724 781 l 724 478 q 879 529 807 483 l 840 633 q 879 658 854 647 q 928 668 904 668 q 1015 638 981 668 q 1050 561 1050 608 q 1015 475 1050 515 l 1117 217 q 995 151 1036 183 q 953 82 954 118 q 1032 33 953 33 q 1103 47 1064 33 q 1169 79 1142 60 l 1246 -53 q 1172 -83 1215 -71 q 1094 -97 1129 -96 q 1065 -129 1075 -110 q 1054 -168 1054 -149 q 1078 -209 1054 -192 q 1143 -226 1101 -226 q 1213 -213 1175 -226 q 1281 -179 1251 -200 l 1356 -312 q 1281 -342 1324 -329 q 1207 -356 1239 -356 q 1101 -321 1160 -356 q 1002 -234 1043 -286 q 961 -132 961 -182 q 976 -54 961 -86 q 890 29 925 -19 q 854 124 854 78 q 972 299 856 218 l 931 410 q 724 360 831 354 l 724 -64 l 694 -64 l 557 14 l 561 275 l 560 285 l 224 49 l 121 164 l 557 436 q 444 495 499 478 q 333 513 389 513 q 239 499 286 513 q 133 464 192 485 l 47 617 q 150 647 81 629 q 263 664 219 664 q 398 619 319 664 q 558 507 476 575 l 558 781 l -3 781 l -61 893 l -61 921 l 1185 921 l 1246 807 z "},"ऌ":{"ha":1117,"x_min":-61,"x_max":1164,"o":"m 1115 807 l 1115 781 l 838 781 l 838 601 q 982 503 918 569 q 1046 369 1046 438 q 1012 261 1047 311 q 910 144 976 211 q 832 58 857 92 q 807 -7 807 25 q 826 -52 807 -35 q 878 -69 846 -69 q 1058 76 960 -69 l 1164 -26 q 1040 -122 1090 -93 q 921 -150 989 -150 q 810 -120 871 -150 q 706 -43 749 -90 q 664 54 664 4 q 690 122 664 90 q 771 206 715 154 q 874 314 839 267 q 908 421 908 361 q 890 472 908 450 q 847 505 872 493 q 803 517 822 517 q 658 420 715 517 q 576 210 600 324 l 429 278 q 490 442 447 364 q 415 486 457 471 q 343 501 374 501 q 244 458 286 501 q 203 344 203 415 q 238 164 203 246 q 340 -15 272 82 l 290 -49 q 125 169 199 46 q 51 408 51 292 q 81 527 51 474 q 160 611 110 581 q 274 642 211 642 q 528 499 396 642 q 672 607 590 582 l 672 781 l -3 781 l -61 893 l -61 921 l 1056 921 l 1115 807 z "},"ॡ":{"ha":1117,"x_min":-61,"x_max":1344,"o":"m 1115 807 l 1115 781 l 838 781 l 838 601 q 982 503 918 569 q 1046 369 1046 438 q 1012 261 1047 311 q 910 144 976 211 q 832 58 857 92 q 807 -7 807 25 q 826 -52 807 -35 q 878 -69 846 -69 q 1058 76 960 -69 l 1164 -26 q 1081 -97 1114 -72 q 1008 -135 1047 -121 q 975 -199 975 -171 q 995 -249 975 -231 q 1054 -268 1015 -268 q 1149 -223 1101 -268 q 1238 -115 1196 -178 l 1344 -221 q 1258 -293 1290 -268 q 1185 -334 1225 -318 q 1096 -350 1144 -350 q 996 -327 1050 -349 q 904 -269 942 -306 q 867 -192 867 -233 q 876 -146 867 -167 q 778 -104 828 -135 q 697 -31 729 -74 q 664 54 664 11 q 690 122 664 90 q 771 206 715 154 q 874 314 839 267 q 908 421 908 361 q 890 472 908 450 q 847 505 872 493 q 803 517 822 517 q 658 420 715 517 q 576 210 600 324 l 429 278 q 490 442 447 369 q 415 486 457 471 q 343 501 372 501 q 244 458 286 501 q 203 344 203 415 q 238 164 203 246 q 340 -15 272 82 l 290 -49 q 125 169 199 46 q 51 408 51 292 q 81 527 51 474 q 160 611 110 581 q 274 642 211 642 q 528 499 399 642 q 672 607 592 582 l 672 781 l -3 781 l -61 893 l -61 921 l 1056 921 l 1115 807 z "},"ऍ":{"ha":860,"x_min":-61,"x_max":908,"o":"m 0 0 m 735 -1 q 873 -108 838 -69 q 908 -187 908 -147 q 876 -270 908 -239 q 788 -301 843 -301 q 706 -281 738 -301 q 650 -229 675 -260 l 650 -226 l 746 -119 l 288 189 q 167 276 203 247 q 118 328 131 304 q 106 390 106 353 l 106 781 l -3 781 l -61 893 l -61 921 l 799 921 l 860 807 l 860 781 l 710 781 l 710 481 q 667 324 710 378 q 564 247 624 271 l 433 335 l 433 353 q 517 393 490 374 q 544 449 544 413 l 544 781 l 272 781 l 272 369 q 283 315 272 335 q 326 272 293 296 l 735 -1 m 710 1196 q 582 1080 651 1121 q 413 1039 513 1039 q 218 1113 306 1039 q 76 1286 131 1188 l 125 1307 q 225 1197 172 1238 q 344 1157 278 1157 q 490 1203 426 1158 q 588 1308 553 1249 l 710 1196 z "},"ऎ":{"ha":860,"x_min":-187,"x_max":908,"o":"m -75 1375 q -100 1275 -100 1310 q -72 1231 -100 1247 q 14 1214 -44 1214 q 238 1226 50 1214 q 408 1238 382 1238 q 519 1209 467 1238 q 608 1135 571 1181 q 659 1059 640 1099 q 678 983 678 1019 q 668 921 678 960 l 799 921 l 860 807 l 860 781 l 710 781 l 710 481 q 563 247 710 303 l 433 335 l 433 353 q 517 393 490 374 q 544 449 544 413 l 544 781 l 271 781 l 271 369 q 281 315 271 333 q 326 272 292 296 l 735 -1 q 872 -108 836 -69 q 907 -187 907 -147 q 875 -269 908 -237 q 786 -301 842 -301 q 650 -229 706 -301 l 650 -226 l 746 -119 l 288 189 q 167 275 203 246 q 118 328 131 304 q 106 390 106 353 l 106 781 l -3 781 l -61 893 l -61 921 l 586 921 q 592 954 592 933 q 556 1046 592 1007 q 439 1085 519 1085 q 376 1081 417 1085 q 318 1075 336 1076 q 254 1068 306 1074 q 165 1063 203 1063 q 3 1089 86 1063 q -133 1157 -79 1115 q -187 1243 -187 1199 q -153 1386 -187 1300 l -75 1375 z "},"ए":{"ha":860,"x_min":-61,"x_max":908,"o":"m 735 -1 q 873 -108 838 -69 q 908 -187 908 -147 q 876 -270 908 -239 q 788 -301 843 -301 q 706 -281 738 -301 q 650 -229 675 -260 l 650 -226 l 746 -119 l 288 189 q 167 276 203 247 q 118 328 131 304 q 106 390 106 353 l 106 781 l -3 781 l -61 893 l -61 921 l 799 921 l 860 807 l 860 781 l 710 781 l 710 481 q 667 324 710 378 q 564 247 624 271 l 433 335 l 433 353 q 517 393 490 374 q 544 449 544 413 l 544 781 l 272 781 l 272 369 q 283 315 272 335 q 326 272 293 296 l 735 -1 z "},"ऐ":{"ha":860,"x_min":-61,"x_max":908,"o":"m 0 0 m 735 -1 q 873 -108 838 -69 q 908 -187 908 -147 q 876 -270 908 -239 q 788 -301 843 -301 q 706 -281 738 -301 q 650 -229 675 -260 l 650 -226 l 746 -119 l 288 189 q 167 276 203 247 q 118 328 131 304 q 106 390 106 353 l 106 781 l -3 781 l -61 893 l -61 921 l 799 921 l 860 807 l 860 781 l 710 781 l 710 481 q 667 324 710 378 q 564 247 624 271 l 433 335 l 433 353 q 517 393 490 374 q 544 449 544 413 l 544 781 l 272 781 l 272 369 q 283 315 272 335 q 326 272 293 296 l 735 -1 m 246 1396 q 413 1319 340 1396 q 563 1097 486 1243 q 672 875 646 936 l 596 875 q 552 955 583 904 q 508 1021 521 1006 q 422 1150 456 1103 q 365 1214 389 1197 l 186 1156 q 144 1211 160 1178 q 129 1282 129 1244 q 163 1366 129 1336 q 246 1396 196 1396 z "},"ऑ":{"ha":1658,"x_min":19,"x_max":1771,"o":"m 19 0 m 1660 778 l 1524 778 l 1524 -67 l 1494 -67 l 1357 11 l 1357 778 l 1090 778 l 1090 -67 l 1061 -67 l 925 11 l 925 276 l 921 276 q 864 268 896 268 q 784 284 822 268 q 697 339 746 300 l 688 336 q 706 236 706 292 q 641 65 706 129 q 472 0 576 0 q 216 106 325 0 q 19 361 107 213 l 67 399 q 229 222 142 292 q 403 153 317 153 q 519 195 474 153 q 565 294 565 238 q 524 421 565 371 q 324 379 433 393 l 260 497 l 275 532 q 397 547 344 538 q 483 575 449 556 q 551 686 550 611 q 518 763 551 731 q 431 794 485 794 q 320 767 371 794 q 211 686 269 740 l 133 836 q 256 904 188 876 q 378 932 325 932 q 502 882 435 931 q 616 763 569 833 q 663 631 663 693 q 596 464 663 539 q 693 425 639 440 q 792 410 747 410 q 924 449 868 410 l 924 781 l 732 781 l 674 893 l 674 921 l 1597 921 l 1658 807 l 1660 778 m 1771 1196 q 1643 1080 1713 1121 q 1474 1039 1574 1039 q 1279 1113 1367 1039 q 1138 1286 1192 1188 l 1186 1307 q 1286 1197 1233 1238 q 1406 1157 1339 1157 q 1551 1203 1488 1158 q 1649 1308 1614 1249 l 1771 1196 z "},"ऒ":{"ha":1658,"x_min":19,"x_max":1657,"o":"m 731 1375 q 706 1275 706 1310 q 733 1231 706 1247 q 819 1214 761 1214 q 1042 1226 854 1214 q 1214 1238 1186 1238 q 1325 1209 1274 1238 q 1415 1135 1376 1181 q 1483 983 1483 1051 q 1474 921 1483 950 l 1597 921 l 1657 807 l 1657 781 l 1521 781 l 1521 -64 l 1493 -64 l 1357 14 l 1357 781 l 1088 781 l 1088 -64 l 1058 -64 l 922 14 l 922 279 l 919 279 q 861 271 901 271 q 781 287 819 271 q 696 342 743 303 l 689 339 q 706 239 706 293 q 641 67 706 132 q 472 3 576 3 q 216 109 325 3 q 19 364 107 215 l 67 401 q 229 225 142 294 q 403 156 317 156 q 519 198 474 156 q 565 297 565 240 q 557 365 565 333 q 524 424 549 397 q 422 398 479 410 q 322 382 365 386 l 258 500 l 274 535 q 395 549 343 540 q 482 578 447 558 q 550 689 549 614 q 517 765 550 733 q 429 797 483 797 q 319 770 369 797 q 208 689 268 743 l 132 839 q 255 907 186 879 q 376 935 324 935 q 501 885 433 933 q 615 766 568 836 q 661 633 661 696 q 643 542 661 585 q 594 465 625 499 q 692 427 638 443 q 790 411 746 411 q 863 420 832 411 q 922 447 893 429 l 922 781 l 732 781 l 672 893 l 672 921 l 1390 921 q 1397 954 1397 938 q 1361 1046 1397 1007 q 1246 1085 1325 1085 q 1182 1081 1222 1085 q 1122 1075 1142 1076 q 971 1063 1028 1063 q 809 1089 892 1063 q 673 1157 726 1115 q 619 1243 619 1199 q 635 1338 619 1293 q 653 1386 651 1382 l 731 1375 z "},"ओ":{"ha":1658,"x_min":19,"x_max":1660,"o":"m 19 0 m 1660 778 l 1524 778 l 1524 -67 l 1494 -67 l 1357 11 l 1357 778 l 1090 778 l 1090 -67 l 1061 -67 l 925 11 l 925 276 l 921 276 q 864 268 896 268 q 784 284 822 268 q 697 339 746 300 l 688 336 q 706 236 706 292 q 641 65 706 129 q 472 0 576 0 q 216 106 325 0 q 19 361 107 213 l 67 399 q 229 222 142 292 q 403 153 317 153 q 519 195 474 153 q 565 294 565 238 q 524 421 565 371 q 324 379 433 393 l 260 497 l 275 532 q 397 547 344 538 q 483 575 449 556 q 551 686 550 611 q 518 763 551 731 q 431 794 485 794 q 320 767 371 794 q 211 686 269 740 l 133 836 q 256 904 188 876 q 378 932 325 932 q 502 882 435 931 q 616 763 569 833 q 663 631 663 693 q 596 464 663 539 q 693 425 639 440 q 792 410 747 410 q 924 449 868 410 l 924 781 l 732 781 l 674 893 l 674 921 l 1597 921 l 1658 807 l 1660 778 m 1047 1406 q 1215 1329 1142 1406 q 1364 1107 1288 1253 q 1474 885 1447 946 l 1397 885 q 1353 965 1385 914 q 1310 1031 1322 1015 q 1224 1160 1257 1113 q 1167 1224 1190 1207 l 988 1165 q 946 1221 961 1188 q 931 1292 931 1254 q 964 1376 931 1346 q 1047 1406 997 1406 z "},"औ":{"ha":1658,"x_min":19,"x_max":1660,"o":"m 19 0 m 1660 778 l 1524 778 l 1524 -67 l 1494 -67 l 1357 11 l 1357 778 l 1090 778 l 1090 -67 l 1061 -67 l 925 11 l 925 276 l 921 276 q 864 268 896 268 q 784 284 822 268 q 697 339 746 300 l 688 336 q 706 236 706 292 q 641 65 706 129 q 472 0 576 0 q 216 106 325 0 q 19 361 107 213 l 67 399 q 229 222 142 292 q 403 153 317 153 q 519 195 474 153 q 565 294 565 238 q 524 421 565 371 q 324 379 433 393 l 260 497 l 275 532 q 397 547 344 538 q 483 575 449 556 q 551 686 550 611 q 518 763 551 731 q 431 794 485 794 q 320 767 371 794 q 211 686 269 740 l 133 836 q 256 904 188 876 q 378 932 325 932 q 502 882 435 931 q 616 763 569 833 q 663 631 663 693 q 596 464 663 539 q 693 425 639 440 q 792 410 747 410 q 924 449 868 410 l 924 781 l 732 781 l 674 893 l 674 921 l 1597 921 l 1658 807 l 1660 778 m 1064 1511 q 1262 1399 1175 1511 q 1421 1108 1349 1286 l 1450 1035 q 1494 918 1475 975 l 1424 918 q 1375 1036 1411 954 q 1277 1220 1331 1131 q 1193 1339 1224 1310 l 986 1297 l 983 1297 q 956 1342 967 1315 q 946 1397 946 1368 q 980 1481 946 1451 q 1064 1511 1014 1511 m 1019 1238 q 1174 1183 1101 1238 q 1295 1063 1246 1129 q 1410 896 1344 997 l 1343 897 q 1276 982 1328 919 q 1201 1067 1224 1044 l 947 1039 l 943 1039 q 906 1133 906 1076 q 939 1210 906 1182 q 1019 1238 972 1238 z "},"ॳ":{"ha":1222,"x_min":19,"x_max":1224,"o":"m 19 0 m 1224 778 l 1090 778 l 1090 -67 l 1061 -67 l 925 11 l 925 276 l 921 276 q 864 268 896 268 q 784 284 822 268 q 697 339 746 300 l 688 336 q 706 236 706 292 q 641 65 706 129 q 472 0 576 0 q 216 106 325 0 q 19 361 107 213 l 67 399 q 229 222 142 292 q 403 153 317 153 q 519 195 474 153 q 565 294 565 238 q 524 421 565 371 q 324 379 433 393 l 260 497 l 275 532 q 397 547 344 538 q 483 575 449 556 q 551 686 550 611 q 518 763 551 731 q 431 794 485 794 q 320 767 371 794 q 211 686 269 740 l 133 836 q 256 904 188 876 q 378 932 325 932 q 502 882 435 931 q 616 763 569 833 q 663 631 663 693 q 596 464 663 539 q 693 425 639 440 q 792 410 747 410 q 924 449 868 410 l 924 781 l 732 781 l 674 893 l 674 921 l 1163 921 l 1222 807 l 1224 778 m 1089 1261 l 1089 886 l 922 886 l 922 1261 l 1089 1261 z "},"ॴ":{"ha":1658,"x_min":19,"x_max":1660,"o":"m 19 0 m 1660 778 l 1524 778 l 1524 -67 l 1494 -67 l 1357 11 l 1357 778 l 1090 778 l 1090 -67 l 1061 -67 l 925 11 l 925 276 l 921 276 q 864 268 896 268 q 784 284 822 268 q 697 339 746 300 l 688 336 q 706 236 706 292 q 641 65 706 129 q 472 0 576 0 q 216 106 325 0 q 19 361 107 213 l 67 399 q 229 222 142 292 q 403 153 317 153 q 519 195 474 153 q 565 294 565 238 q 524 421 565 371 q 324 379 433 393 l 260 497 l 275 532 q 397 547 344 538 q 483 575 449 556 q 551 686 550 611 q 518 763 551 731 q 431 794 485 794 q 320 767 371 794 q 211 686 269 740 l 133 836 q 256 904 188 876 q 378 932 325 932 q 502 882 435 931 q 616 763 569 833 q 663 631 663 693 q 596 464 663 539 q 693 425 639 440 q 792 410 747 410 q 924 449 868 410 l 924 781 l 732 781 l 674 893 l 674 921 l 1597 921 l 1658 807 l 1660 778 m 1524 1261 l 1524 886 l 1357 886 l 1357 1261 l 1524 1261 z "},"ॶ":{"ha":1222,"x_min":19,"x_max":1224,"o":"m 19 0 m 1224 778 l 1090 778 l 1090 -67 l 1061 -67 l 925 11 l 925 276 l 921 276 q 864 268 896 268 q 784 284 822 268 q 697 339 746 300 l 688 336 q 706 236 706 292 q 641 65 706 129 q 472 0 576 0 q 216 106 325 0 q 19 361 107 213 l 67 399 q 229 222 142 292 q 403 153 317 153 q 519 195 474 153 q 565 294 565 238 q 524 421 565 371 q 324 379 433 393 l 260 497 l 275 532 q 397 547 344 538 q 483 575 449 556 q 551 686 550 611 q 518 763 551 731 q 431 794 485 794 q 320 767 371 794 q 211 686 269 740 l 133 836 q 256 904 188 876 q 378 932 325 932 q 502 882 435 931 q 616 763 569 833 q 663 631 663 693 q 596 464 663 539 q 693 425 639 440 q 792 410 747 410 q 924 449 868 410 l 924 781 l 732 781 l 674 893 l 674 921 l 1163 921 l 1222 807 l 1224 778 m 813 -189 q 1063 -85 967 -189 l 1115 -129 q 990 -263 1072 -210 q 813 -317 907 -317 q 634 -262 717 -317 q 508 -129 551 -208 l 563 -85 q 813 -189 658 -189 z "},"ॷ":{"ha":1222,"x_min":19,"x_max":1224,"o":"m 19 0 m 1224 778 l 1090 778 l 1090 -67 l 1061 -67 l 925 11 l 925 276 l 921 276 q 864 268 896 268 q 784 284 822 268 q 697 339 746 300 l 688 336 q 706 236 706 292 q 641 65 706 129 q 472 0 576 0 q 216 106 325 0 q 19 361 107 213 l 67 399 q 229 222 142 292 q 403 153 317 153 q 519 195 474 153 q 565 294 565 238 q 524 421 565 371 q 324 379 433 393 l 260 497 l 275 532 q 397 547 344 538 q 483 575 449 556 q 551 686 550 611 q 518 763 551 731 q 431 794 485 794 q 320 767 371 794 q 211 686 269 740 l 133 836 q 256 904 188 876 q 378 932 325 932 q 502 882 435 931 q 616 763 569 833 q 663 631 663 693 q 596 464 663 539 q 693 425 639 440 q 792 410 747 410 q 924 449 868 410 l 924 781 l 732 781 l 674 893 l 674 921 l 1163 921 l 1222 807 l 1224 778 m 813 -189 q 1063 -85 967 -189 l 1115 -129 q 990 -263 1072 -210 q 813 -317 907 -317 q 634 -262 717 -317 q 508 -129 551 -208 l 563 -85 q 813 -189 658 -189 m 813 -419 q 1063 -315 967 -419 l 1115 -360 q 990 -494 1072 -440 q 813 -547 907 -547 q 634 -493 717 -547 q 508 -360 551 -439 l 563 -315 q 813 -419 658 -419 z "},"ा":{"ha":436,"x_min":-61,"x_max":436,"o":"m 436 807 l 436 781 l 301 781 l 301 -64 l 274 -64 l 136 14 l 135 781 l -3 781 l -61 893 l -61 921 l 376 921 l 436 807 z "},"ि":{"ha":436,"x_min":-60,"x_max":1032,"o":"m 403 1260 q 260 1217 315 1258 q 206 1097 204 1175 q 220 1004 206 1053 q 254 921 235 956 l 378 921 l 438 807 l 438 781 l 303 781 l 303 -64 l 275 -64 l 138 14 l 136 781 l -1 781 l -60 893 l -60 921 l 153 921 q 28 1183 29 1072 q 66 1298 28 1247 q 174 1378 104 1349 q 333 1407 244 1407 q 660 1292 482 1407 q 1032 1010 839 1178 l 990 957 q 673 1176 824 1090 q 401 1260 522 1261 l 403 1260 z "},"ी":{"ha":432,"x_min":-421,"x_max":436,"o":"m 436 807 l 436 781 l 301 781 l 301 -64 l 274 -64 l 136 14 l 135 781 l -3 781 l -61 893 l -61 921 l 157 921 q 21 1162 92 1064 q -132 1260 -50 1260 q -212 1224 -183 1260 q -242 1139 -242 1189 q -226 1059 -242 1100 q -192 993 -211 1018 l -192 990 l -261 957 q -374 1067 -326 1001 q -421 1206 -421 1132 q -391 1305 -421 1258 q -306 1379 -361 1351 q -181 1407 -251 1407 q -3 1333 -81 1407 q 125 1163 75 1258 q 238 921 175 1068 l 376 921 l 436 807 z "},"ॉ":{"ha":436,"x_min":-82,"x_max":551,"o":"m 0 0 m 436 807 l 436 781 l 301 781 l 301 -64 l 274 -64 l 136 14 l 135 781 l -3 781 l -61 893 l -61 921 l 376 921 l 436 807 m 551 1196 q 424 1080 493 1121 q 254 1039 354 1039 q 60 1113 147 1039 q -82 1286 -28 1188 l -33 1307 q 67 1197 14 1238 q 186 1157 119 1157 q 331 1203 268 1158 q 429 1308 394 1249 l 551 1196 z "},"ॊ":{"ha":436,"x_min":-596,"x_max":438,"o":"m -485 1375 q -510 1275 -510 1317 q -482 1231 -510 1247 q -397 1214 -454 1214 q -175 1226 -362 1214 q -1 1238 -28 1238 q 109 1209 57 1238 q 200 1135 161 1181 q 249 1059 231 1099 q 267 983 267 1019 q 258 921 267 954 l 376 921 l 438 807 l 438 781 l 303 781 l 303 -64 l 274 -64 l 136 14 l 136 781 l -3 781 l -61 893 l -61 921 l 175 921 q 182 954 182 938 q 146 1046 182 1007 q 29 1085 110 1085 q -33 1081 7 1085 q -93 1075 -74 1076 q -244 1063 -187 1063 q -406 1089 -324 1063 q -542 1157 -489 1115 q -596 1243 -596 1199 q -562 1386 -596 1303 l -485 1375 z "},"ो":{"ha":436,"x_min":-275,"x_max":435,"o":"m 435 807 l 435 781 l 300 781 l 300 -64 l 272 -64 l 135 14 l 133 781 l -4 781 l -62 893 l -62 921 l 164 921 q 103 1021 119 1001 q 17 1150 50 1103 q -40 1214 -17 1197 l -218 1156 q -260 1211 -244 1178 q -275 1282 -275 1244 q -242 1366 -275 1336 q -158 1396 -208 1396 q 8 1319 -64 1396 q 157 1097 81 1243 q 244 921 208 997 l 376 921 l 435 807 z "},"ौ":{"ha":432,"x_min":-307,"x_max":438,"o":"m 438 807 l 438 781 l 303 781 l 303 -64 l 275 -64 l 138 14 l 136 781 l -1 781 l -60 893 l -60 921 l 100 921 q -11 1051 22 1015 l -267 1024 l -269 1024 q -297 1067 -287 1043 q -307 1118 -307 1092 q -274 1194 -307 1165 q -194 1222 -240 1222 q 1 1138 -86 1222 q 172 919 88 1053 l 207 919 q 164 1021 193 957 q 66 1208 118 1119 q -18 1325 14 1296 l -225 1283 l -226 1283 q -253 1327 -243 1300 q -264 1383 -264 1354 q -231 1467 -264 1438 q -147 1497 -197 1497 q 50 1383 -36 1497 q 210 1089 136 1269 q 275 921 253 988 l 376 921 l 438 807 z "},"ऻ":{"ha":436,"x_min":-61,"x_max":436,"o":"m 436 807 l 436 781 l 301 781 l 301 -64 l 274 -64 l 136 14 l 135 781 l -3 781 l -61 893 l -61 921 l 135 921 l 135 1261 l 301 1261 l 301 921 l 376 921 l 436 807 z "},"क":{"ha":1208,"x_min":-61,"x_max":1208,"o":"m 715 783 l 715 542 q 892 617 810 617 q 1024 580 967 617 q 1114 480 1082 543 q 1146 340 1146 417 q 1126 197 1146 281 q 1071 40 1106 113 l 928 146 q 1011 278 971 203 q 1051 397 1051 354 q 1024 463 1051 438 q 949 489 996 489 q 835 456 893 489 q 715 368 778 422 l 715 -62 l 688 -62 l 544 18 l 556 232 l 553 233 q 444 165 494 189 q 331 142 393 142 q 199 174 258 142 q 103 267 139 206 q 68 411 68 328 q 94 533 68 475 q 169 626 119 590 q 289 663 219 663 q 439 613 378 663 q 547 481 500 563 l 547 781 l -3 781 l -61 893 l -61 921 l 1150 921 l 1208 807 l 1208 781 l 715 783 m 279 281 q 419 312 351 281 q 547 393 488 343 l 547 403 q 459 472 519 439 q 338 506 399 504 q 247 492 293 506 q 168 449 200 478 q 136 379 136 421 q 179 310 136 338 q 278 282 222 282 l 279 281 z "},"ख":{"ha":1232,"x_min":-61,"x_max":1225,"o":"m 1225 807 l 1225 781 l 1094 781 l 1094 -64 l 1065 -64 l 928 14 l 932 82 q 764 1 863 35 q 581 -32 665 -32 q 169 260 421 -32 q 153 278 161 268 q 136 299 146 289 q 76 376 93 350 q 58 431 58 403 q 83 496 58 464 q 135 546 108 528 l 217 496 q 236 555 226 513 q 246 639 246 597 q 236 781 246 693 l -3 781 l -61 893 l -61 921 l 1165 921 l 1225 807 m 578 92 q 762 136 656 92 q 933 246 868 181 l 933 318 l 931 318 q 828 248 872 272 q 733 224 783 224 q 615 256 674 224 q 520 344 557 288 q 483 474 483 401 q 515 597 483 544 q 600 678 546 650 q 721 707 654 707 q 832 673 783 707 q 928 586 881 639 l 929 586 l 929 781 l 379 781 q 395 667 389 728 q 401 563 401 607 q 359 403 401 472 q 256 274 317 333 q 398 150 313 208 q 578 92 483 92 m 929 501 q 853 551 900 535 q 760 567 807 567 q 655 548 703 567 q 578 499 607 529 q 550 433 550 468 q 588 378 550 403 q 683 354 626 354 q 812 396 744 354 q 928 500 879 438 l 928 501 l 929 501 z "},"ग":{"ha":913,"x_min":-61,"x_max":913,"o":"m 913 807 l 913 781 l 775 781 l 775 -64 l 747 -64 l 608 14 l 608 781 l 321 781 q 350 386 350 518 q 322 273 350 324 q 214 222 294 222 q 123 253 160 222 q 67 328 86 283 q 49 410 49 372 q 57 478 49 451 l 194 460 l 206 781 l -3 781 l -61 893 l -61 921 l 851 921 l 913 807 z "},"घ":{"ha":924,"x_min":-61,"x_max":950,"o":"m 950 808 l 950 782 l 814 782 l 814 -62 l 786 -62 l 646 15 l 651 207 l 649 210 q 532 148 585 169 q 428 126 479 126 q 233 199 318 126 q 160 284 190 238 q 129 365 129 331 q 158 475 129 422 q 232 563 186 528 q 97 638 142 601 q 50 735 51 675 q 49 752 50 739 q 50 781 49 765 l -3 781 l -61 893 l -61 921 l 890 921 l 950 808 m 353 256 q 505 305 415 256 q 649 415 594 354 l 649 782 l 235 782 q 200 699 200 754 q 240 641 201 668 q 319 604 279 614 q 369 614 351 614 q 506 594 468 614 l 528 501 l 511 463 q 417 475 469 475 q 326 451 367 475 q 265 393 286 428 q 243 325 243 358 q 278 274 243 292 q 353 256 314 256 z "},"ङ":{"ha":1056,"x_min":-61,"x_max":1054,"o":"m 1054 807 l 1054 781 l 672 781 l 672 517 l 325 517 q 224 431 224 517 q 238 378 224 406 q 268 351 251 351 q 349 360 311 351 q 438 385 388 368 q 512 407 482 400 q 574 414 542 414 q 654 374 613 414 q 723 274 696 335 q 750 154 750 213 q 696 -24 750 42 q 535 -89 642 -89 q 286 -17 414 -89 q 29 203 158 54 l 81 253 q 275 99 186 143 q 467 56 364 56 q 610 89 546 56 q 675 186 675 122 q 662 233 675 210 q 624 267 649 257 q 555 258 585 265 q 478 236 525 251 q 409 215 439 222 q 343 207 379 207 q 258 249 311 208 q 163 350 204 289 q 122 471 122 411 q 165 616 122 569 q 276 663 208 663 l 507 663 l 507 781 l -4 781 l -61 893 l -61 921 l 996 921 l 1054 807 m 1035 453 l 900 314 l 764 451 l 899 589 l 1035 453 z "},"च":{"ha":936,"x_min":-61,"x_max":935,"o":"m 935 806 l 935 779 l 797 779 l 797 -65 l 769 -65 l 626 15 l 635 157 l 631 161 q 536 117 588 133 q 438 100 485 100 q 334 123 382 100 q 249 185 286 146 q 165 350 165 274 q 194 469 165 411 l 83 469 l 24 582 l 24 610 l 518 610 l 578 497 l 578 469 l 389 469 q 309 400 340 446 q 278 308 278 354 q 305 240 278 269 q 368 211 332 211 q 504 253 426 211 q 633 349 582 296 l 633 781 l -3 781 l -61 893 l -61 921 l 875 921 l 935 806 z "},"छ":{"ha":1179,"x_min":-61,"x_max":1179,"o":"m 872 782 l 872 644 q 984 555 940 614 q 1028 406 1028 496 q 978 229 1028 318 q 1090 144 1050 192 q 1129 26 1129 97 q 1106 -103 1129 -25 q 1056 -239 1083 -181 l 908 -125 q 1001 -22 965 -68 q 1036 69 1036 25 q 1011 117 1036 96 q 935 164 986 139 q 748 0 858 64 q 526 -64 638 -64 q 360 -15 444 -64 q 219 101 276 35 q 163 206 163 167 q 210 335 163 276 q 197 344 203 340 q 186 350 190 347 q 94 423 126 390 q 63 501 63 456 q 90 588 63 549 q 164 649 117 626 q 268 671 211 671 q 337 663 303 671 q 389 647 371 656 l 438 518 q 368 542 413 531 q 296 554 324 554 q 232 528 257 554 q 207 457 207 501 q 226 414 207 433 q 269 389 244 394 q 365 418 317 418 q 488 410 438 418 l 526 307 l 510 268 q 411 281 465 281 q 344 263 372 281 q 303 220 317 246 q 289 172 289 194 q 309 125 289 150 q 362 84 329 100 q 429 68 394 68 q 622 113 522 68 q 793 233 722 158 q 624 362 692 285 q 557 528 557 439 q 601 631 557 594 q 710 672 644 667 l 710 781 l -3 781 l -61 893 l -61 921 l 1119 921 l 1179 807 l 1179 781 l 872 782 m 840 293 q 889 458 889 372 q 856 538 889 510 q 776 567 822 567 q 721 544 742 567 q 700 481 700 522 q 740 373 700 422 q 839 294 779 324 l 840 293 z "},"ज":{"ha":1040,"x_min":-61,"x_max":1040,"o":"m 1040 781 l 903 781 l 903 -64 l 876 -64 l 739 14 l 739 489 l 482 489 q 572 376 539 433 q 604 271 604 319 q 578 153 604 204 q 506 74 551 103 q 407 46 461 46 q 163 205 258 46 q 18 579 67 364 l 83 599 q 203 319 131 438 q 375 201 275 201 q 453 233 422 201 q 485 313 485 265 q 413 450 485 378 q 253 575 342 522 l 276 629 l 739 629 l 739 781 l -3 781 l -61 893 l -61 921 l 981 921 l 1040 807 l 1040 781 z "},"झ":{"ha":1143,"x_min":-61,"x_max":1142,"o":"m 1142 807 l 1142 781 l 1007 781 l 1007 -64 l 979 -64 l 843 14 l 843 261 l 839 261 q 765 249 801 249 q 697 259 729 249 q 613 299 665 269 l 611 299 q 633 183 633 239 q 592 67 633 119 q 486 -17 551 14 q 350 -50 421 -47 l 418 -122 l 422 -264 l 329 -124 l 308 -49 q 144 1 210 -42 q 79 101 79 43 q 97 155 79 132 q 138 191 114 178 q 181 204 161 204 q 201 201 193 204 l 276 90 q 480 127 392 92 q 568 219 568 163 q 557 272 568 244 q 529 307 546 299 q 450 286 510 307 q 402 272 443 285 q 331 258 361 258 q 246 296 299 258 q 153 389 193 333 q 114 497 114 444 q 152 640 114 593 q 257 688 190 688 l 419 688 l 419 781 l -4 781 l -61 893 l -61 921 l 1083 921 l 1142 807 m 707 394 q 844 431 786 394 l 844 782 l 585 782 l 585 543 l 297 543 q 226 517 246 543 q 207 458 207 490 q 220 419 207 439 q 247 400 233 400 q 311 406 281 400 q 381 425 342 413 q 417 435 386 426 q 476 444 449 444 q 539 415 507 444 q 706 394 618 394 l 707 394 z "},"ञ":{"ha":1140,"x_min":-61,"x_max":1143,"o":"m 1143 782 l 1007 782 l 1007 -69 l 978 -69 l 842 8 l 842 324 q 796 310 821 310 q 756 320 776 310 q 704 353 736 331 l 701 353 q 632 209 690 268 q 482 149 574 150 q 252 238 365 149 q 17 483 139 328 l 68 522 q 264 346 185 401 q 433 290 343 290 q 538 328 496 292 q 579 421 579 365 q 558 487 579 458 q 497 515 536 515 q 434 497 467 515 q 361 443 401 478 l 256 564 q 342 616 294 594 q 425 638 390 638 q 573 582 494 638 q 685 454 651 526 q 726 451 713 451 q 842 485 794 451 l 842 781 l -4 781 l -61 893 l -61 921 l 1083 921 l 1143 807 l 1143 782 z "},"ट":{"ha":800,"x_min":-61,"x_max":793,"o":"m 793 807 l 793 781 l 596 781 l 596 469 q 291 410 408 458 q 174 264 174 361 q 228 161 174 193 q 354 129 282 129 q 696 243 524 129 l 772 93 q 590 13 671 36 q 417 -11 508 -11 q 249 33 322 -11 q 135 152 175 78 q 94 313 94 226 q 190 532 94 461 q 429 619 285 603 l 429 781 l -3 781 l -61 893 l -61 921 l 735 921 l 793 807 z "},"ठ":{"ha":892,"x_min":-61,"x_max":894,"o":"m 894 779 l 622 779 q 658 676 658 721 q 619 564 658 629 q 746 436 699 510 q 793 276 793 363 q 749 108 793 181 q 622 -6 706 35 q 421 -47 538 -47 q 249 3 326 -47 q 128 136 172 53 q 83 313 83 219 q 188 538 83 461 q 475 624 293 615 q 490 704 490 664 q 463 781 490 738 l -3 781 l -61 893 l -61 921 l 832 921 l 892 807 l 894 779 m 688 344 q 658 422 688 388 q 596 468 628 456 q 285 409 406 458 q 164 264 164 360 q 195 169 164 207 q 272 113 226 131 q 360 96 317 96 q 610 167 532 96 q 688 344 688 239 z "},"ड":{"ha":867,"x_min":-61,"x_max":865,"o":"m 865 807 l 865 781 l 699 781 l 699 517 l 324 517 q 224 431 224 517 q 238 378 224 406 q 268 351 253 351 q 353 360 311 351 q 451 385 394 368 q 534 406 500 399 q 600 414 568 414 q 681 374 639 414 q 750 274 722 335 q 778 154 778 213 q 715 -23 776 43 q 544 -89 653 -89 q 291 -17 425 -89 q 28 203 157 56 l 81 253 q 279 100 186 144 q 476 56 372 56 q 632 89 561 56 q 703 186 703 122 q 688 233 703 208 q 649 267 674 257 q 574 258 610 265 q 492 236 539 250 q 409 214 440 221 q 343 207 378 207 q 257 249 311 208 q 163 350 203 289 q 122 471 122 411 q 165 616 122 569 q 275 663 207 663 l 533 663 l 533 781 l -4 781 l -61 893 l -61 921 l 807 921 l 865 807 z "},"ढ":{"ha":810,"x_min":-61,"x_max":810,"o":"m 385 497 q 212 453 279 497 q 144 325 144 408 q 213 172 144 233 q 368 85 281 110 q 329 215 329 153 q 385 356 331 313 q 514 399 439 399 q 626 367 575 399 q 706 280 676 335 q 736 157 736 225 q 698 33 736 85 q 602 -46 660 -19 q 488 -72 544 -72 q 305 -24 403 -72 q 139 124 207 25 q 71 363 71 222 q 151 584 71 518 q 350 650 232 650 l 468 650 l 468 781 l -4 781 l -61 893 l -61 921 l 750 921 l 810 807 l 810 781 l 632 781 l 632 497 l 385 497 m 418 150 q 431 74 417 110 l 439 74 q 555 90 501 74 q 640 131 608 106 q 672 186 672 156 q 637 251 672 225 q 561 276 601 276 q 496 262 529 276 q 440 218 463 247 q 417 150 417 189 l 418 150 z "},"ण":{"ha":1143,"x_min":-60,"x_max":1143,"o":"m 1143 781 l 1008 781 l 1008 -64 l 981 -64 l 843 14 l 843 781 l 654 781 l 654 399 q 619 278 654 332 q 524 193 583 224 q 396 163 464 163 q 301 197 349 163 q 194 294 253 232 q 122 381 142 350 q 101 453 101 411 l 101 781 l -1 781 l -60 893 l -60 921 l 1083 921 l 1143 807 l 1143 781 m 488 781 l 268 781 l 268 401 q 297 322 268 340 q 383 304 326 304 q 464 344 440 304 q 488 432 488 383 l 488 781 z "},"त":{"ha":885,"x_min":-61,"x_max":885,"o":"m 885 781 l 749 781 l 749 -64 l 722 -64 l 585 14 l 585 485 l 369 485 q 258 451 293 485 q 222 347 222 418 q 428 4 222 207 l 375 -53 q 156 173 243 60 q 69 403 69 286 q 130 570 69 510 q 335 631 190 631 l 585 631 l 585 781 l -3 781 l -61 893 l -61 921 l 825 921 l 885 807 l 885 781 z "},"थ":{"ha":994,"x_min":63,"x_max":993,"o":"m 993 806 l 993 779 l 858 779 l 858 -65 l 831 -65 l 690 13 l 694 189 l 690 192 q 604 151 654 168 q 501 133 554 133 q 136 425 254 133 q 293 494 231 447 q 130 619 197 540 q 63 786 63 699 q 112 893 63 856 q 238 931 161 931 q 376 901 307 931 q 490 812 444 872 q 535 661 535 751 q 468 486 535 571 q 290 347 401 401 q 345 291 307 311 q 433 271 383 271 q 577 303 508 271 q 693 378 646 336 l 693 781 l 590 781 l 532 893 l 532 921 l 935 921 l 993 806 m 208 739 q 251 628 208 682 q 349 551 293 575 q 396 706 396 617 q 365 788 396 753 q 285 824 335 824 q 230 803 251 824 q 208 739 208 782 z "},"द":{"ha":811,"x_min":-61,"x_max":811,"o":"m 811 807 l 811 781 l 625 781 l 625 507 l 389 507 q 216 464 275 507 q 156 343 157 421 q 199 240 156 282 q 302 178 243 199 q 407 157 361 157 q 481 163 439 157 l 421 303 q 485 351 447 333 q 557 368 522 368 q 672 326 631 368 q 713 218 713 283 q 685 128 713 171 q 606 58 657 86 l 765 -183 l 656 -242 l 538 29 q 408 13 482 13 q 263 57 339 13 q 134 186 186 101 q 82 383 82 271 q 153 594 83 531 q 354 658 224 658 l 460 658 l 460 781 l -4 781 l -61 893 l -61 921 l 753 921 l 811 807 z "},"ध":{"ha":997,"x_min":64,"x_max":999,"o":"m 999 781 l 864 781 l 864 -64 l 836 -64 l 694 14 l 700 204 l 697 207 q 574 136 629 160 q 464 113 518 113 q 360 131 411 113 q 269 186 310 150 q 164 353 164 286 q 187 453 164 403 q 249 540 210 503 q 64 807 64 658 q 109 916 64 878 q 233 954 154 954 q 310 940 269 954 q 375 907 351 925 q 435 851 413 878 q 457 779 457 824 q 439 728 457 750 q 382 707 421 707 q 335 715 356 707 l 335 822 q 282 843 317 843 q 228 822 247 843 q 208 758 208 800 q 317 590 208 672 q 410 613 358 613 q 547 593 508 613 l 569 501 l 553 461 q 460 474 511 474 q 361 448 403 474 q 298 385 319 422 q 276 314 276 347 q 312 261 276 279 q 386 243 347 243 q 547 297 453 243 q 694 415 640 350 l 694 781 l 543 781 l 485 893 l 485 921 l 936 921 l 996 807 l 999 781 z "},"न":{"ha":874,"x_min":-61,"x_max":875,"o":"m 875 808 l 875 782 l 739 782 l 739 -62 l 711 -62 l 574 15 l 574 418 l 283 393 l 301 256 q 233 249 269 249 q 151 267 196 249 q 76 323 107 286 q 44 414 44 360 q 93 524 44 497 q 208 550 142 550 q 572 524 331 550 l 572 781 l -3 781 l -61 893 l -61 921 l 813 921 l 875 808 z "},"ऩ":{"ha":874,"x_min":-61,"x_max":875,"o":"m 875 808 l 875 782 l 739 782 l 739 -62 l 711 -62 l 574 15 l 574 418 l 283 393 l 301 256 q 233 249 269 249 q 151 267 196 249 q 76 323 107 286 q 44 414 44 360 q 93 524 44 497 q 208 550 142 550 q 572 524 331 550 l 572 781 l -3 781 l -61 893 l -61 921 l 813 921 l 875 808 m 351 186 l 488 50 l 353 -87 l 215 49 l 351 186 z "},"प":{"ha":850,"x_min":-61,"x_max":849,"o":"m 849 807 l 849 781 l 714 781 l 714 -64 l 686 -64 l 549 14 l 549 257 l 546 257 q 392 210 469 210 q 303 244 347 210 q 193 349 260 279 q 124 436 144 400 q 103 513 103 472 l 103 781 l -3 781 l -61 893 l -61 921 l 789 921 l 849 807 m 361 357 q 460 377 410 357 q 549 426 510 397 l 549 781 l 268 781 l 268 443 q 361 357 268 357 z "},"फ":{"ha":1200,"x_min":-61,"x_max":1200,"o":"m 707 779 l 707 557 q 882 635 803 635 q 1015 598 957 635 q 1104 498 1072 561 q 1136 358 1136 435 q 1116 216 1136 301 q 1061 58 1096 131 l 918 164 q 1000 297 960 219 q 1040 415 1040 374 q 1013 481 1040 456 q 939 507 985 507 q 824 472 879 507 q 704 382 768 438 l 704 -64 l 678 -64 l 532 17 l 546 254 l 543 254 q 471 223 511 236 q 392 210 431 210 q 303 244 347 210 q 193 349 260 279 q 124 436 144 400 q 103 513 103 472 l 103 781 l -3 781 l -61 893 l -61 921 l 1139 921 l 1200 807 l 1200 781 l 707 779 m 363 356 q 453 372 407 356 q 540 415 500 389 l 540 779 l 271 779 l 271 442 q 363 356 271 356 z "},"ब":{"ha":939,"x_min":-61,"x_max":939,"o":"m 939 807 l 939 781 l 801 781 l 801 -64 l 774 -64 l 629 17 l 638 222 l 632 225 q 540 163 571 182 q 467 130 510 144 q 376 115 425 115 q 235 148 306 115 q 121 243 165 181 q 76 389 76 306 q 116 549 76 481 q 217 655 156 618 q 343 692 279 692 q 498 638 421 692 q 633 511 575 585 l 636 511 l 636 781 l -3 781 l -61 893 l -61 921 l 876 921 l 939 807 m 478 296 q 635 418 572 346 q 532 503 592 468 q 419 538 472 538 q 325 525 368 538 l 481 293 l 478 296 m 310 246 q 431 272 367 246 l 274 510 q 178 444 214 485 q 142 360 142 403 q 189 278 142 310 q 310 246 236 246 z "},"भ":{"ha":1082,"x_min":63,"x_max":1081,"o":"m 1081 807 l 1081 781 l 944 781 l 944 -64 l 917 -64 l 781 14 l 781 279 l 496 279 q 381 147 482 147 q 284 199 322 147 q 233 317 246 251 q 225 389 225 353 q 226 418 225 408 l 335 418 l 335 506 q 140 624 217 553 q 63 783 63 694 q 111 894 63 856 q 238 932 160 932 q 360 909 300 932 q 459 833 419 886 q 499 697 499 781 l 499 418 l 781 418 l 781 781 l 574 781 l 515 893 l 515 921 l 1021 921 l 1081 807 m 207 738 q 244 649 207 689 q 342 583 282 610 q 353 660 349 615 q 358 732 358 704 q 337 796 358 768 q 285 824 315 824 q 228 803 250 824 q 207 738 207 782 z "},"म":{"ha":926,"x_min":-61,"x_max":928,"o":"m 928 807 l 928 781 l 792 781 l 792 -64 l 764 -64 l 628 14 l 628 306 l 322 306 q 206 174 308 174 q 110 225 149 174 q 61 339 72 276 q 50 419 50 383 q 51 444 50 436 l 160 444 l 160 781 l -3 781 l -61 893 l -61 921 l 865 921 l 928 807 m 628 444 l 628 781 l 325 781 l 325 444 l 628 444 z "},"य":{"ha":929,"x_min":-61,"x_max":929,"o":"m 929 781 l 793 781 l 793 -64 l 765 -64 l 626 14 l 631 192 l 626 194 q 538 153 588 171 q 435 135 488 135 q 216 222 314 135 q 67 464 118 310 q 218 537 164 494 q 272 640 272 579 q 258 709 272 678 q 208 781 243 740 l -3 781 l -61 893 l -61 921 l 869 921 l 929 807 l 929 781 m 367 272 q 512 305 443 272 q 629 381 581 338 l 628 781 l 328 781 l 328 779 q 403 678 372 728 q 435 594 435 629 q 369 475 435 532 q 222 386 304 418 q 270 302 228 332 q 367 272 313 272 z "},"र":{"ha":621,"x_min":-61,"x_max":621,"o":"m 621 778 l 400 778 q 415 667 410 726 q 421 561 421 607 q 379 401 421 471 q 275 272 338 332 l 567 -8 l 481 -72 l 161 293 q 142 317 143 315 q 92 378 107 354 q 78 429 78 401 q 103 495 78 463 q 157 544 129 528 l 238 494 q 257 556 247 514 q 267 638 267 597 q 256 781 267 700 l -3 781 l -61 893 l -61 921 l 561 921 l 621 807 l 621 778 z "},"ऱ":{"ha":633,"x_min":-61,"x_max":633,"o":"m 633 778 l 400 778 q 415 667 410 726 q 421 561 421 607 q 379 401 421 471 q 275 272 338 332 l 567 -8 l 481 -72 l 161 293 q 142 317 143 315 q 92 378 107 354 q 78 429 78 401 q 103 495 78 463 q 157 544 129 528 l 238 494 q 257 556 247 514 q 267 638 267 597 q 256 781 267 700 l -3 781 l -61 893 l -61 921 l 574 921 l 633 807 l 633 778 m 179 128 l 315 -8 l 181 -146 l 43 -10 l 179 128 z "},"ल":{"ha":1103,"x_min":-61,"x_max":1103,"o":"m 1101 783 l 964 783 l 964 -61 l 938 -61 l 799 17 l 799 490 q 754 506 775 506 q 633 418 686 506 q 556 231 579 331 l 421 311 q 474 454 436 388 q 408 492 442 481 q 343 503 374 503 q 244 461 285 503 q 204 354 204 419 q 439 -36 204 164 l 394 -83 q 152 140 251 19 q 53 408 53 260 q 81 527 53 474 q 160 611 110 581 q 274 643 211 642 q 393 610 338 643 q 511 510 449 578 q 597 587 549 558 q 701 617 646 615 q 800 556 750 617 l 800 781 l -3 781 l -61 893 l -61 921 l 1042 921 l 1103 807 l 1101 783 z "},"ळ":{"ha":1158,"x_min":-61,"x_max":1158,"o":"m 943 782 l 943 629 q 1049 519 1010 588 q 1089 361 1089 450 q 1060 213 1089 279 q 977 107 1031 146 q 853 68 924 68 q 717 113 782 68 q 603 221 651 157 q 511 92 564 136 q 376 47 458 47 q 228 90 300 47 q 113 203 157 132 q 68 354 68 274 q 99 510 68 440 q 187 621 131 581 q 315 661 243 661 q 449 622 388 661 q 568 519 510 582 q 654 634 604 594 q 775 675 704 674 l 775 781 l -3 781 l -61 893 l -61 921 l 1099 921 l 1158 807 l 1158 781 l 943 782 m 1007 422 q 968 508 1007 472 q 869 543 929 543 q 762 510 804 543 q 694 428 719 476 q 629 281 669 379 q 796 218 699 218 q 890 248 840 218 q 974 326 940 278 q 1007 424 1007 374 l 1007 422 m 296 179 q 395 210 354 179 q 463 289 436 242 q 525 421 489 336 l 542 461 q 393 513 474 513 q 272 485 326 513 q 188 411 218 458 q 158 308 158 364 q 194 217 158 254 q 297 179 231 179 l 296 179 z "},"ऴ":{"ha":1158,"x_min":-61,"x_max":1158,"o":"m 943 782 l 943 629 q 1049 519 1010 588 q 1089 361 1089 450 q 1060 213 1089 279 q 977 107 1031 146 q 853 68 924 68 q 717 113 782 68 q 603 221 651 157 q 511 92 564 136 q 376 47 458 47 q 228 90 300 47 q 113 203 157 132 q 68 354 68 274 q 99 510 68 440 q 187 621 131 581 q 315 661 243 661 q 449 622 388 661 q 568 519 510 582 q 654 634 604 594 q 775 675 704 674 l 775 781 l -3 781 l -61 893 l -61 921 l 1099 921 l 1158 807 l 1158 781 l 943 782 m 1007 422 q 968 508 1007 472 q 869 543 929 543 q 762 510 804 543 q 694 428 719 476 q 629 281 669 379 q 796 218 699 218 q 890 248 840 218 q 974 326 940 278 q 1007 424 1007 374 l 1007 422 m 296 179 q 395 210 354 179 q 463 289 436 242 q 525 421 489 336 l 542 461 q 393 513 474 513 q 272 485 326 513 q 188 411 218 458 q 158 308 158 364 q 194 217 158 254 q 297 179 231 179 l 296 179 m 608 43 l 744 -93 l 610 -231 l 472 -93 l 608 43 z "},"व":{"ha":932,"x_min":-61,"x_max":929,"o":"m 929 806 l 929 779 l 793 779 l 793 -65 l 767 -65 l 622 15 l 631 214 l 626 217 q 492 140 550 165 q 367 115 435 115 q 228 148 294 115 q 119 242 161 181 q 76 389 76 304 q 113 549 76 481 q 210 655 150 618 q 336 692 269 692 q 492 638 415 692 q 628 513 568 585 l 631 513 l 631 781 l -3 781 l -61 893 l -61 921 l 872 921 l 929 806 m 299 242 q 472 294 378 242 q 629 417 567 347 q 526 501 586 468 q 414 535 467 535 q 278 507 340 535 q 179 438 215 479 q 143 356 143 396 q 187 274 143 306 q 300 242 231 242 l 299 242 z "},"श":{"ha":1074,"x_min":-61,"x_max":1074,"o":"m 938 781 l 938 -64 l 910 -64 l 772 14 l 772 781 l 553 781 q 603 628 603 719 q 569 468 603 550 q 475 320 535 386 q 340 225 415 254 l 506 -24 l 383 -90 l 272 207 l 242 204 q 167 221 210 204 q 94 265 125 238 q 64 325 64 293 q 82 383 64 357 q 126 426 100 410 q 172 442 151 442 q 200 438 192 442 l 263 343 q 381 440 329 375 q 203 567 276 485 q 129 743 129 650 q 133 781 129 764 l -3 781 l -61 893 l -61 921 l 1014 921 l 1074 807 l 1074 781 l 938 781 m 464 669 q 433 747 464 714 q 353 779 403 779 q 298 758 319 779 q 276 696 276 736 q 319 583 276 638 q 421 504 363 529 q 464 669 464 588 z "},"ष":{"ha":876,"x_min":-61,"x_max":876,"o":"m 876 807 l 876 781 l 740 781 l 740 -64 l 714 -64 l 576 14 l 576 210 l 574 210 q 404 157 475 157 q 311 197 361 157 q 197 304 261 238 q 124 391 144 358 q 103 463 103 424 l 103 781 l -3 781 l -61 893 l -61 921 l 817 921 l 876 807 m 576 781 l 268 781 l 576 424 l 576 781 m 374 304 q 468 323 419 304 q 560 371 517 342 l 268 708 l 268 393 q 300 324 268 343 q 375 304 332 304 l 374 304 z "},"स":{"ha":1001,"x_min":-61,"x_max":1000,"o":"m 1000 806 l 1000 779 l 864 779 l 864 -65 l 836 -65 l 699 13 l 699 282 l 696 282 q 576 265 636 265 q 467 293 525 265 q 357 364 408 321 l 353 364 q 272 272 322 319 l 571 -8 l 483 -72 l 158 293 q 94 372 113 344 q 75 429 75 399 q 101 495 75 463 q 154 544 126 528 l 235 494 q 254 556 244 514 q 264 638 264 597 q 254 781 264 696 l -3 781 l -61 893 l -61 921 l 940 921 l 1000 806 m 543 421 q 699 450 638 421 l 699 779 l 397 779 q 418 561 418 663 q 400 456 418 507 q 472 429 433 439 q 543 419 511 419 l 543 421 z "},"ह":{"ha":821,"x_min":-61,"x_max":821,"o":"m 281 533 q 219 519 238 533 q 200 474 200 504 q 246 378 200 424 q 440 429 331 429 q 585 388 515 429 q 699 288 656 346 q 742 186 742 229 q 692 67 742 128 q 579 -33 643 6 l 456 74 l 456 76 q 576 162 533 122 q 618 246 618 201 q 585 301 618 278 q 492 324 551 324 q 396 300 442 324 q 323 237 350 276 q 296 151 296 197 q 335 28 296 85 q 445 -79 374 -28 q 635 -196 517 -131 l 599 -246 q 369 -117 465 -179 q 205 26 272 -56 q 138 203 138 107 q 183 325 138 271 q 122 419 144 374 q 100 513 100 465 q 135 640 100 603 q 242 678 169 678 l 501 678 l 501 781 l -4 781 l -61 893 l -61 921 l 761 921 l 821 807 l 821 781 l 665 781 l 665 533 l 281 533 z "},"क़":{"ha":1208,"x_min":-61,"x_max":1208,"o":"m 0 0 m 715 783 l 715 542 q 892 617 810 617 q 1024 580 967 617 q 1114 480 1082 543 q 1146 340 1146 417 q 1126 197 1146 281 q 1071 40 1106 113 l 928 146 q 1011 278 971 203 q 1051 397 1051 354 q 1024 463 1051 438 q 949 489 996 489 q 835 456 893 489 q 715 368 778 422 l 715 -62 l 688 -62 l 544 18 l 556 232 l 553 233 q 444 165 494 189 q 331 142 393 142 q 199 174 258 142 q 103 267 139 206 q 68 411 68 328 q 94 533 68 475 q 169 626 119 590 q 289 663 219 663 q 439 613 378 663 q 547 481 500 563 l 547 781 l -3 781 l -61 893 l -61 921 l 1150 921 l 1208 807 l 1208 781 l 715 783 m 279 281 q 419 312 351 281 q 547 393 488 343 l 547 403 q 459 472 519 439 q 338 506 399 504 q 247 492 293 506 q 168 449 200 478 q 136 379 136 421 q 179 310 136 338 q 278 282 222 282 l 279 281 m 468 -26 l 333 -165 l 196 -28 l 332 108 l 468 -26 z "},"ख़":{"ha":1232,"x_min":-61,"x_max":1225,"o":"m 0 0 m 1225 807 l 1225 781 l 1094 781 l 1094 -64 l 1065 -64 l 928 14 l 932 82 q 764 1 863 35 q 581 -32 665 -32 q 169 260 421 -32 q 153 278 161 268 q 136 299 146 289 q 76 376 93 350 q 58 431 58 403 q 83 496 58 464 q 135 546 108 528 l 217 496 q 236 555 226 513 q 246 639 246 597 q 236 781 246 693 l -3 781 l -61 893 l -61 921 l 1165 921 l 1225 807 m 578 92 q 762 136 656 92 q 933 246 868 181 l 933 318 l 931 318 q 828 248 872 272 q 733 224 783 224 q 615 256 674 224 q 520 344 557 288 q 483 474 483 401 q 515 597 483 544 q 600 678 546 650 q 721 707 654 707 q 832 673 783 707 q 928 586 881 639 l 929 586 l 929 781 l 379 781 q 395 667 389 728 q 401 563 401 607 q 359 403 401 472 q 256 274 317 333 q 398 150 313 208 q 578 92 483 92 m 929 501 q 853 551 900 535 q 760 567 807 567 q 655 548 703 567 q 578 499 607 529 q 550 433 550 468 q 588 378 550 403 q 683 354 626 354 q 812 396 744 354 q 928 500 879 438 l 928 501 l 929 501 m 282 1 l 147 -137 l 10 0 l 146 136 l 282 1 z "},"ग़":{"ha":913,"x_min":-61,"x_max":913,"o":"m 0 0 m 913 807 l 913 781 l 775 781 l 775 -64 l 747 -64 l 608 14 l 608 781 l 321 781 q 350 386 350 518 q 322 273 350 324 q 214 222 294 222 q 123 253 160 222 q 67 328 86 283 q 49 410 49 372 q 57 478 49 451 l 194 460 l 206 781 l -3 781 l -61 893 l -61 921 l 851 921 l 913 807 m 347 29 l 213 -110 l 75 28 l 211 164 l 347 29 z "},"ज़":{"ha":1040,"x_min":-61,"x_max":1040,"o":"m 0 0 m 1040 781 l 903 781 l 903 -64 l 876 -64 l 739 14 l 739 489 l 482 489 q 572 376 539 433 q 604 271 604 319 q 578 153 604 204 q 506 74 551 103 q 407 46 461 46 q 163 205 258 46 q 18 579 67 364 l 83 599 q 203 319 131 438 q 375 201 275 201 q 453 233 422 201 q 485 313 485 265 q 413 450 485 378 q 253 575 342 522 l 276 629 l 739 629 l 739 781 l -3 781 l -61 893 l -61 921 l 981 921 l 1040 807 l 1040 781 m 453 -114 l 318 -253 l 181 -115 l 317 21 l 453 -114 z "},"ड़":{"ha":867,"x_min":-61,"x_max":865,"o":"m 0 0 m 865 807 l 865 781 l 699 781 l 699 517 l 324 517 q 224 431 224 517 q 238 378 224 406 q 268 351 253 351 q 353 360 311 351 q 451 385 394 368 q 534 406 500 399 q 600 414 568 414 q 681 374 639 414 q 750 274 722 335 q 778 154 778 213 q 715 -23 776 43 q 544 -89 653 -89 q 291 -17 425 -89 q 28 203 157 56 l 81 253 q 279 100 186 144 q 476 56 372 56 q 632 89 561 56 q 703 186 703 122 q 688 233 703 208 q 649 267 674 257 q 574 258 610 265 q 492 236 539 250 q 409 214 440 221 q 343 207 378 207 q 257 249 311 208 q 163 350 203 289 q 122 471 122 411 q 165 616 122 569 q 275 663 207 663 l 533 663 l 533 781 l -4 781 l -61 893 l -61 921 l 807 921 l 865 807 m 658 -269 l 524 -408 l 386 -271 l 522 -135 l 658 -269 z "},"ढ़":{"ha":810,"x_min":-61,"x_max":810,"o":"m 0 0 m 385 497 q 212 453 279 497 q 144 325 144 408 q 213 172 144 233 q 368 85 281 110 q 329 215 329 153 q 385 356 331 313 q 514 399 439 399 q 626 367 575 399 q 706 280 676 335 q 736 157 736 225 q 698 33 736 85 q 602 -46 660 -19 q 488 -72 544 -72 q 305 -24 403 -72 q 139 124 207 25 q 71 363 71 222 q 151 584 71 518 q 350 650 232 650 l 468 650 l 468 781 l -4 781 l -61 893 l -61 921 l 750 921 l 810 807 l 810 781 l 632 781 l 632 497 l 385 497 m 418 150 q 431 74 417 110 l 439 74 q 555 90 501 74 q 640 131 608 106 q 672 186 672 156 q 637 251 672 225 q 561 276 601 276 q 496 262 529 276 q 440 218 463 247 q 417 150 417 189 l 418 150 m 625 -243 l 490 -382 l 353 -244 l 489 -108 l 625 -243 z "},"फ़":{"ha":1200,"x_min":-61,"x_max":1200,"o":"m 0 0 m 707 779 l 707 557 q 882 635 803 635 q 1015 598 957 635 q 1104 498 1072 561 q 1136 358 1136 435 q 1116 216 1136 301 q 1061 58 1096 131 l 918 164 q 1000 297 960 219 q 1040 415 1040 374 q 1013 481 1040 456 q 939 507 985 507 q 824 472 879 507 q 704 382 768 438 l 704 -64 l 678 -64 l 532 17 l 546 254 l 543 254 q 471 223 511 236 q 392 210 431 210 q 303 244 347 210 q 193 349 260 279 q 124 436 144 400 q 103 513 103 472 l 103 781 l -3 781 l -61 893 l -61 921 l 1139 921 l 1200 807 l 1200 781 l 707 779 m 363 356 q 453 372 407 356 q 540 415 500 389 l 540 779 l 271 779 l 271 442 q 363 356 271 356 m 265 131 l 131 -8 l -7 129 l 129 265 l 265 131 z "},"य़":{"ha":929,"x_min":-61,"x_max":929,"o":"m 0 0 m 929 781 l 793 781 l 793 -64 l 765 -64 l 626 14 l 631 192 l 626 194 q 538 153 588 171 q 435 135 488 135 q 216 222 314 135 q 67 464 118 310 q 218 537 164 494 q 272 640 272 579 q 258 709 272 678 q 208 781 243 740 l -3 781 l -61 893 l -61 921 l 869 921 l 929 807 l 929 781 m 367 272 q 512 305 443 272 q 629 381 581 338 l 628 781 l 328 781 l 328 779 q 403 678 372 728 q 435 594 435 629 q 369 475 435 532 q 222 386 304 418 q 270 302 228 332 q 367 272 313 272 m 239 61 l 104 -78 l -33 60 l 103 196 l 239 61 z "},"ॹ":{"ha":1040,"x_min":-61,"x_max":1040,"o":"m 1040 781 l 903 781 l 903 -64 l 876 -64 l 739 14 l 739 489 l 482 489 q 572 376 539 433 q 604 271 604 319 q 578 153 604 204 q 506 74 551 103 q 407 46 461 46 q 163 205 258 46 q 18 579 67 364 l 83 599 q 203 319 131 438 q 375 201 275 201 q 453 233 422 201 q 485 313 485 265 q 413 450 485 378 q 253 575 342 522 l 276 629 l 739 629 l 739 781 l -3 781 l -61 893 l -61 921 l 981 921 l 1040 807 l 1040 781 m 356 -69 l 240 -189 l 124 -71 l 240 46 l 356 -69 m 549 46 l 664 -69 l 549 -189 l 432 -71 l 549 46 m 394 -111 l 510 -226 l 394 -346 l 278 -228 l 394 -111 z "},"ॺ":{"ha":929,"x_min":-61,"x_max":929,"o":"m 929 807 l 929 781 l 793 781 l 793 -64 l 765 -64 l 626 14 l 631 192 l 626 194 q 538 153 588 171 q 435 135 488 135 q 216 222 314 135 q 67 464 118 310 q 218 537 164 494 q 272 640 272 579 q 258 709 272 678 q 208 781 243 740 l -3 781 l -61 893 l -61 921 l 869 921 l 929 807 m 328 781 q 364 736 347 758 l 629 419 l 628 781 l 328 781 m 367 272 q 497 299 435 272 q 608 364 560 326 l 432 575 q 358 467 421 518 q 222 388 296 417 q 270 303 228 333 q 367 274 313 274 l 367 272 z "},"ॻ":{"ha":913,"x_min":-61,"x_max":913,"o":"m 913 807 l 913 781 l 775 781 l 775 -76 l 86 -76 l 39 10 l 39 38 l 608 38 l 608 781 l 322 781 q 354 388 354 538 q 326 273 354 324 q 214 222 297 222 q 123 253 160 222 q 67 328 86 283 q 49 410 49 372 q 57 478 49 451 l 194 460 l 194 781 l -3 781 l -61 893 l -61 921 l 851 921 l 913 807 z "},"ॼ":{"ha":1040,"x_min":-61,"x_max":1040,"o":"m 1040 807 l 1040 781 l 904 781 l 904 -133 l 86 -133 l 39 -46 l 39 -19 l 739 -19 l 739 489 l 482 489 q 572 377 539 433 q 604 271 604 321 q 577 153 604 204 q 505 74 550 103 q 407 46 460 46 q 161 205 257 46 q 17 579 65 364 l 82 599 q 203 319 131 436 q 374 201 275 201 q 453 233 421 201 q 485 313 485 265 q 413 451 485 379 q 251 575 342 524 l 276 629 l 739 629 l 739 781 l -3 781 l -61 893 l -61 921 l 981 921 l 1040 807 z "},"ॾ":{"ha":867,"x_min":-61,"x_max":865,"o":"m 865 807 l 865 781 l 699 781 l 699 517 l 324 517 q 224 431 224 517 q 238 378 224 406 q 268 351 253 351 q 353 360 311 351 q 451 385 394 368 q 534 406 500 399 q 600 414 568 414 q 681 374 639 414 q 750 274 722 335 q 778 154 778 213 q 715 -23 776 43 q 544 -89 653 -89 q 291 -17 425 -89 q 28 203 157 56 l 81 253 q 279 100 186 144 q 476 56 372 56 q 632 89 561 56 q 703 186 703 122 q 688 233 703 208 q 649 267 674 257 q 574 258 610 265 q 492 236 539 250 q 409 214 440 221 q 343 207 378 207 q 257 249 311 208 q 163 350 203 289 q 122 471 122 411 q 165 616 122 569 q 275 663 207 663 l 533 663 l 533 781 l -4 781 l -61 893 l -61 921 l 807 921 l 865 807 m 826 -257 l 826 -285 l 86 -285 l 39 -200 l 39 -172 l 782 -172 l 826 -257 z "},"ॿ":{"ha":939,"x_min":-61,"x_max":939,"o":"m 939 807 l 939 781 l 801 781 l 801 -76 l 86 -76 l 39 10 l 39 38 l 629 38 l 638 222 l 632 224 q 617 213 624 218 q 606 206 610 208 q 486 137 533 158 q 376 115 439 115 q 235 148 306 115 q 121 243 165 181 q 76 389 76 306 q 116 549 76 481 q 217 655 156 618 q 343 692 279 692 q 503 634 425 692 q 633 511 582 576 l 636 511 l 636 781 l -3 781 l -61 893 l -61 921 l 876 921 l 939 807 m 421 536 q 326 524 379 536 l 481 293 q 636 415 569 339 l 636 418 q 536 501 597 465 q 421 536 475 536 m 278 507 q 181 440 217 482 q 146 357 146 397 q 193 275 146 307 q 314 243 240 243 q 435 269 365 243 l 278 507 z "},"⁄":{"ha":664,"x_min":7,"x_max":668,"o":"m 668 1240 l 129 -232 l 7 -194 l 547 1275 l 668 1240 z "},"½":{"ha":1818,"x_min":174,"x_max":1714,"o":"m 1218 1240 l 678 -232 l 557 -194 l 1096 1275 l 1218 1240 m 360 589 l 360 974 q 275 963 321 969 q 194 950 229 957 l 174 1039 q 357 1101 236 1054 q 501 1168 478 1149 l 547 1157 l 546 589 l 711 565 l 711 488 l 183 488 l 183 565 l 360 589 m 1031 96 q 1436 446 1436 321 q 1400 528 1436 501 q 1307 556 1364 556 q 1194 526 1250 556 q 1093 446 1139 496 l 1036 518 q 1167 633 1079 583 q 1349 683 1254 683 q 1563 627 1494 683 q 1631 490 1631 571 q 1577 347 1631 413 q 1442 228 1524 281 q 1215 93 1361 175 l 1543 136 l 1619 231 l 1714 199 l 1672 -1 l 1068 -1 l 1031 96 z "},"¼":{"ha":1818,"x_min":174,"x_max":1676,"o":"m 1215 1238 l 675 -232 l 554 -190 l 1094 1275 l 1215 1238 m 360 589 l 360 974 q 275 963 321 969 q 194 950 229 957 l 174 1039 q 357 1101 236 1054 q 501 1168 478 1149 l 547 1157 l 546 589 l 711 565 l 711 488 l 183 488 l 183 565 l 360 589 m 1419 735 l 1508 643 l 1181 265 l 1125 197 l 1361 221 l 1367 367 l 1518 385 l 1518 236 l 1675 251 l 1676 100 l 1518 100 l 1518 -119 l 1351 -119 l 1357 100 l 1018 100 l 981 186 l 1353 735 l 1419 735 z "},"¾":{"ha":1868,"x_min":165,"x_max":1678,"o":"m 1214 1240 l 674 -232 l 553 -194 l 1092 1275 l 1214 1240 m 192 540 q 271 522 221 531 q 350 513 321 513 q 496 550 440 515 q 551 646 551 585 q 520 721 551 693 q 438 757 489 749 l 388 744 l 294 724 l 296 825 q 456 888 401 849 q 511 990 511 928 q 477 1044 511 1029 q 397 1060 443 1060 q 300 1042 354 1060 q 208 1000 246 1025 l 165 1075 q 299 1141 214 1115 q 450 1167 383 1167 q 572 1144 517 1167 q 658 1084 626 1122 q 690 999 690 1046 q 656 894 690 936 q 549 822 621 853 q 651 793 608 821 q 715 725 693 765 q 736 647 736 685 q 694 523 736 576 q 578 440 653 469 q 408 411 504 411 q 294 422 353 411 q 192 449 235 432 l 192 540 m 1419 735 l 1508 643 l 1181 265 l 1126 197 l 1361 221 l 1367 367 l 1518 385 l 1518 236 l 1675 251 l 1678 100 l 1518 100 l 1518 -119 l 1351 -119 l 1357 100 l 1018 100 l 981 186 l 1353 735 l 1419 735 z "},"¹":{"ha":750,"x_min":131,"x_max":668,"o":"m 318 589 l 318 974 q 233 963 279 969 q 151 950 186 957 l 131 1039 q 314 1101 193 1054 q 458 1168 435 1149 l 504 1157 l 503 589 l 668 565 l 668 488 l 140 488 l 140 565 l 318 589 z "},"²":{"ha":844,"x_min":96,"x_max":779,"o":"m 96 585 q 503 936 503 810 q 466 1019 503 992 q 374 1046 429 1046 q 261 1016 318 1046 q 158 936 204 986 l 103 1008 q 233 1124 144 1074 q 414 1174 321 1174 q 627 1117 560 1174 q 696 979 694 1061 q 642 836 696 901 q 508 718 589 771 q 281 583 426 665 l 610 626 l 685 719 l 779 689 l 739 489 l 133 489 l 96 585 z "},"³":{"ha":774,"x_min":117,"x_max":688,"o":"m 143 540 q 222 522 172 531 q 301 513 272 513 q 447 550 392 515 q 503 646 503 585 q 472 721 503 693 q 389 757 440 749 l 339 744 l 246 724 l 247 825 q 408 888 353 849 q 463 990 463 928 q 428 1044 463 1029 q 349 1060 394 1060 q 251 1042 306 1060 q 160 1000 197 1025 l 117 1075 q 250 1141 165 1115 q 401 1167 335 1167 q 523 1144 468 1167 q 610 1084 578 1122 q 642 999 642 1046 q 607 894 642 936 q 500 822 572 853 q 602 793 560 821 q 666 725 644 765 q 688 647 688 685 q 646 523 688 576 q 530 440 604 469 q 360 411 456 411 q 245 422 304 411 q 143 449 186 432 l 143 540 z "},"०":{"ha":876,"x_min":125,"x_max":754,"o":"m 125 372 q 178 523 125 444 q 309 653 232 601 q 453 706 386 706 q 601 667 532 706 q 713 560 671 628 q 754 406 754 492 q 699 245 754 325 q 566 114 644 165 q 424 63 488 63 q 271 103 339 63 q 164 215 203 144 q 125 372 125 286 m 276 447 q 309 301 276 363 q 387 207 342 239 q 467 175 432 175 q 560 217 519 175 q 600 322 600 260 q 573 456 600 393 q 502 556 546 518 q 411 593 458 593 q 317 551 357 593 q 276 447 276 510 z "},"१":{"ha":876,"x_min":171,"x_max":733,"o":"m 410 943 q 528 906 461 943 q 643 808 596 868 q 690 685 690 749 q 631 529 690 621 q 508 368 572 438 l 399 247 l 601 40 q 633 3 624 15 q 708 -90 683 -54 q 733 -151 733 -125 q 699 -235 733 -204 q 615 -265 664 -265 q 534 -236 571 -265 q 475 -162 497 -207 l 475 -160 l 582 -76 q 476 56 538 -6 q 315 204 414 118 l 219 290 l 219 292 l 240 313 q 407 479 358 433 l 375 500 q 265 580 306 547 q 197 651 224 613 q 171 736 171 690 q 203 842 171 794 q 290 916 235 889 q 410 943 344 943 m 447 853 q 367 806 400 853 q 335 694 335 760 q 370 613 335 660 q 453 538 406 567 q 513 642 489 588 q 536 740 536 696 q 510 821 536 789 q 447 853 483 853 z "},"२":{"ha":876,"x_min":99,"x_max":743,"o":"m 447 947 q 574 885 504 947 q 694 735 644 822 q 743 581 743 647 q 699 433 743 508 q 578 303 654 358 q 415 231 503 247 l 672 -157 l 532 -239 l 335 222 q 231 239 278 222 q 158 283 185 256 q 132 342 132 311 q 149 403 132 375 q 190 449 165 432 q 233 467 214 467 q 263 463 253 467 l 331 360 q 474 428 410 382 q 576 534 539 475 q 614 650 614 593 q 588 757 614 713 q 513 801 561 801 q 215 694 379 801 l 99 858 q 292 926 218 906 q 447 947 367 947 z "},"३":{"ha":876,"x_min":60,"x_max":808,"o":"m 806 308 q 756 165 806 233 q 626 54 707 97 q 453 10 544 11 l 492 -22 l 543 -206 l 472 -124 l 411 11 q 259 57 317 17 q 201 153 201 97 q 218 206 201 183 q 258 242 235 229 q 301 256 282 256 q 328 253 311 256 l 397 142 q 528 188 464 154 q 634 268 593 221 q 675 369 675 315 q 642 438 675 414 q 558 463 608 463 q 522 460 547 463 q 400 417 465 432 q 281 401 335 401 q 217 432 244 401 q 190 517 190 463 q 268 565 190 542 q 465 599 346 589 q 547 715 547 644 q 521 781 547 761 q 438 801 494 801 q 308 787 379 801 q 142 747 238 772 l 60 907 q 372 942 247 942 q 501 892 429 942 q 626 772 574 842 q 678 647 678 701 q 624 529 678 583 q 763 396 717 457 q 808 308 808 335 l 806 308 z "},"४":{"ha":876,"x_min":-11,"x_max":860,"o":"m 528 501 q 694 324 642 393 q 747 207 747 256 q 704 111 747 151 q 594 50 661 71 q 454 29 526 29 q 329 60 394 29 q 219 146 264 92 q 175 264 175 200 q 215 385 175 324 q 353 549 254 447 q 247 637 301 596 q 107 742 193 678 q -11 829 25 800 l 56 913 l 147 833 q 413 606 310 697 l 494 685 q 788 976 701 889 l 860 810 l 528 501 m 553 297 q 544 345 553 321 q 496 411 535 369 l 465 442 q 346 305 378 356 q 314 207 314 254 q 341 146 314 171 q 404 121 368 121 q 475 147 440 121 q 531 213 510 172 q 553 296 553 253 l 553 297 z "},"५":{"ha":876,"x_min":128,"x_max":933,"o":"m 821 -256 l 603 203 q 524 158 565 175 q 444 142 483 142 q 313 179 389 142 q 182 279 236 217 q 128 413 128 342 q 174 660 128 510 q 282 943 219 810 l 417 833 q 258 358 258 501 q 273 310 258 333 q 308 271 288 286 q 346 254 328 256 q 427 279 376 254 q 533 344 478 304 l 474 467 q 575 508 515 508 q 673 474 633 508 q 713 381 713 439 q 697 316 713 350 q 651 250 681 282 l 933 -197 l 821 -256 z "},"६":{"ha":876,"x_min":33,"x_max":900,"o":"m 361 947 q 422 946 400 947 l 515 776 q 439 783 467 783 q 242 753 307 783 q 176 647 176 724 q 201 578 176 614 q 254 525 225 542 q 393 585 317 563 q 531 607 469 607 q 592 578 565 607 q 618 497 618 550 q 578 460 618 479 q 477 426 539 440 q 356 410 415 413 q 295 353 317 385 q 274 281 274 322 q 294 217 274 250 q 350 163 315 185 q 421 142 385 142 q 593 178 492 142 l 542 282 q 653 321 594 321 q 744 294 707 321 q 781 215 781 267 q 763 148 781 182 q 711 83 744 114 l 900 -185 l 794 -239 l 657 43 q 489 -4 578 -4 q 351 64 438 -4 q 198 218 265 132 q 131 349 131 304 q 193 478 131 418 q 81 601 129 532 q 33 715 33 669 q 103 883 33 818 q 361 947 174 947 z "},"७":{"ha":876,"x_min":38,"x_max":840,"o":"m 106 950 q 198 481 135 661 q 341 223 261 301 q 504 144 421 144 q 674 211 617 144 q 743 389 732 278 q 646 353 694 353 q 549 376 597 353 q 458 438 500 400 q 358 560 389 499 q 326 711 326 621 q 358 810 326 765 q 438 881 390 856 q 531 907 486 907 q 657 873 606 907 q 753 761 708 839 q 815 590 789 690 q 840 404 840 489 q 797 183 840 275 q 683 44 753 90 q 538 -3 613 -3 q 301 108 406 -3 q 128 428 196 218 q 38 928 61 638 l 106 950 m 617 765 q 533 743 569 765 q 478 686 497 721 q 458 618 458 651 q 485 526 458 557 q 574 496 511 496 q 655 515 610 496 q 736 568 700 535 q 686 710 721 654 q 617 765 651 765 z "},"८":{"ha":876,"x_min":82,"x_max":829,"o":"m 699 878 l 404 544 q 263 349 300 426 q 226 206 226 272 q 247 136 226 172 q 303 76 267 100 q 382 51 339 51 q 512 99 447 51 q 672 239 576 146 l 710 276 l 829 165 q 629 3 719 47 q 431 -40 539 -40 q 276 8 358 -40 q 138 126 193 56 q 82 261 82 197 q 240 569 82 394 l 654 1042 l 699 878 z "},"९":{"ha":876,"x_min":22,"x_max":867,"o":"m 290 982 q 411 937 342 982 q 531 823 481 892 q 581 690 581 754 q 545 578 581 631 q 453 490 510 525 q 332 444 396 454 q 733 63 588 214 q 867 -135 867 -74 q 832 -216 867 -186 q 749 -246 797 -246 q 667 -217 704 -246 q 608 -143 629 -189 l 608 -140 l 715 -57 q 455 222 635 54 q 139 501 275 389 q 63 583 88 546 q 30 653 38 619 q 22 736 22 688 q 52 856 22 800 q 142 947 82 913 q 290 982 203 982 m 354 842 q 249 816 294 842 q 178 750 203 790 q 154 667 154 710 q 165 610 154 640 q 197 551 175 579 q 308 590 256 560 q 394 661 361 621 q 426 739 426 701 q 407 813 426 783 q 354 842 388 842 z "},"*":{"ha":858,"x_min":72,"x_max":788,"o":"m 393 821 l 343 757 l 164 611 l 75 732 l 296 849 l 371 865 l 297 881 l 72 986 l 160 1117 l 342 971 l 393 913 l 363 996 l 343 1215 l 507 1215 l 489 996 l 451 913 l 513 979 l 686 1115 l 788 985 l 551 883 l 475 865 l 551 847 l 786 731 l 683 613 l 507 758 l 454 821 l 485 743 l 507 517 l 343 517 l 363 743 l 393 821 z "},"\\":{"ha":557,"x_min":21,"x_max":547,"o":"m 547 -246 l 392 -246 l 21 1085 l 175 1085 l 547 -246 z "},"·":{"ha":511,"x_min":125,"x_max":385,"o":"m 267 697 q 354 666 324 697 q 385 582 385 635 q 343 489 385 525 q 246 451 301 453 q 160 483 196 451 q 125 564 125 514 q 146 631 125 600 q 199 679 167 661 q 267 697 232 697 z "},"•":{"ha":597,"x_min":110,"x_max":494,"o":"m 293 314 q 202 338 244 314 q 135 404 160 363 q 110 493 110 446 q 138 596 110 549 q 212 671 165 643 q 311 699 258 699 q 441 647 388 699 q 494 521 494 596 q 467 417 494 464 q 392 342 439 369 q 293 314 346 314 z "},":":{"ha":513,"x_min":129,"x_max":389,"o":"m 271 747 q 358 716 328 747 q 389 633 389 685 q 347 541 389 578 q 251 503 306 504 q 165 533 201 503 q 129 614 129 564 q 150 681 129 650 q 203 729 171 711 q 271 747 236 747 m 269 224 q 358 192 326 224 q 389 108 389 160 q 347 15 389 51 q 249 -22 304 -22 q 165 9 200 -22 q 129 89 129 40 q 150 156 129 125 q 203 205 171 186 q 269 224 236 224 z "},",":{"ha":500,"x_min":113,"x_max":399,"o":"m 235 204 q 357 109 315 179 q 399 -43 399 39 q 328 -249 397 -160 q 156 -375 258 -337 l 113 -329 l 113 -300 q 197 -229 164 -282 q 229 -115 229 -176 q 197 -27 229 -68 q 122 17 164 14 l 122 61 l 235 204 z "},"…":{"ha":1532,"x_min":133,"x_max":1408,"o":"m 271 225 q 358 194 328 225 q 389 111 389 163 q 347 19 389 56 q 250 -18 304 -18 q 168 13 203 -18 q 133 92 133 44 q 154 158 133 126 q 207 207 175 189 q 271 225 239 225 m 781 225 q 867 193 836 225 q 899 111 899 161 q 857 18 899 54 q 760 -18 815 -18 q 678 13 711 -18 q 644 92 644 43 q 665 158 644 128 q 717 207 685 189 q 781 225 749 225 m 1290 225 q 1378 194 1347 225 q 1408 111 1408 163 q 1367 19 1408 56 q 1271 -18 1325 -18 q 1189 13 1224 -18 q 1154 92 1154 43 q 1175 158 1154 128 q 1227 207 1196 189 q 1290 225 1258 225 z "},"!":{"ha":517,"x_min":125,"x_max":385,"o":"m 306 364 l 200 364 l 125 1207 l 385 1207 l 306 364 m 267 224 q 354 192 324 224 q 385 110 385 161 q 342 17 385 54 q 246 -19 300 -19 q 164 12 199 -19 q 129 90 129 43 q 149 156 129 125 q 201 205 169 186 q 267 224 233 224 z "},"¡":{"ha":518,"x_min":125,"x_max":396,"o":"m 276 978 q 365 946 333 978 q 396 863 396 914 q 353 770 396 807 q 254 733 310 733 q 171 765 206 733 q 136 844 136 796 q 157 911 136 881 q 210 960 178 942 q 276 978 243 978 m 385 -290 l 125 -290 l 206 588 l 311 588 l 385 -290 z "},"#":{"ha":990,"x_min":89,"x_max":901,"o":"m 89 240 l 89 364 l 246 364 l 264 581 l 106 581 l 106 701 l 271 701 l 293 919 l 439 919 l 422 701 l 600 701 l 618 919 l 769 919 l 753 701 l 901 701 l 901 581 l 742 581 l 724 364 l 876 364 l 878 240 l 714 240 l 694 0 l 547 0 l 564 240 l 388 240 l 367 0 l 217 0 l 238 240 l 89 240 m 590 581 l 414 581 l 396 364 l 572 364 l 590 581 z "},".":{"ha":513,"x_min":129,"x_max":389,"o":"m 268 226 q 358 194 326 226 q 389 111 389 163 q 347 17 389 54 q 249 -19 304 -19 q 165 12 200 -19 q 129 93 129 43 q 150 159 129 128 q 203 208 171 190 q 268 226 235 226 z "},"?":{"ha":704,"x_min":67,"x_max":639,"o":"m 217 1254 q 448 1197 353 1251 q 591 1056 543 1143 q 639 868 639 969 q 633 791 639 818 q 608 743 626 764 q 549 703 589 722 l 489 674 q 376 613 410 636 q 343 557 343 589 q 357 479 343 519 q 399 376 371 439 l 410 350 l 285 350 q 201 459 240 389 q 163 575 163 529 q 225 660 164 626 q 392 729 286 694 l 457 753 q 500 774 488 765 q 513 797 513 783 q 474 937 515 869 q 358 1047 433 1004 q 183 1089 282 1089 q 72 1071 104 1089 l 67 1221 q 126 1245 79 1236 q 217 1254 172 1254 m 382 225 q 470 193 439 225 q 501 110 501 161 q 459 17 501 54 q 363 -21 417 -21 q 278 10 314 -21 q 243 92 243 42 q 264 158 243 128 q 317 207 285 189 q 382 225 349 225 z "},"¿":{"ha":704,"x_min":71,"x_max":644,"o":"m 342 985 q 430 952 399 985 q 461 868 461 919 q 419 775 461 813 q 322 738 376 738 q 238 769 274 738 q 203 850 203 800 q 223 917 203 886 q 276 967 243 949 q 342 985 308 985 m 426 618 q 509 509 471 579 q 547 393 547 439 q 485 308 546 342 q 317 238 425 275 q 253 215 307 235 q 210 192 221 200 q 197 169 199 183 q 235 31 194 97 q 353 -78 276 -36 q 526 -121 429 -121 q 639 -103 604 -121 l 644 -253 q 585 -277 632 -268 q 494 -286 539 -286 q 263 -229 358 -283 q 119 -87 167 -175 q 71 103 71 0 q 78 178 71 151 q 103 225 85 206 q 163 265 122 244 l 219 293 q 333 354 299 331 q 367 411 367 378 q 351 494 367 451 q 301 618 336 536 l 426 618 z "},"\"":{"ha":856,"x_min":154,"x_max":700,"o":"m 364 1208 l 317 651 l 201 651 l 154 1208 l 364 1208 m 700 1208 l 651 651 l 538 651 l 490 1208 l 700 1208 z "},"'":{"ha":518,"x_min":154,"x_max":364,"o":"m 364 1208 l 317 651 l 201 651 l 154 1208 l 364 1208 z "},";":{"ha":521,"x_min":132,"x_max":428,"o":"m 271 747 q 360 716 329 747 q 390 633 390 685 q 348 540 390 578 q 251 503 306 503 q 167 534 203 503 q 132 615 132 565 q 152 681 132 651 q 205 729 172 711 q 271 747 238 747 m 263 204 q 385 110 342 181 q 428 -39 428 40 q 359 -247 428 -157 q 186 -375 290 -337 l 142 -329 l 142 -300 q 225 -229 193 -282 q 257 -115 257 -176 q 225 -27 257 -68 q 151 17 193 14 l 151 61 l 263 204 z "},"/":{"ha":557,"x_min":21,"x_max":547,"o":"m 547 1085 l 175 -246 l 21 -246 l 392 1085 l 547 1085 z "},"_":{"ha":963,"x_min":-14,"x_max":974,"o":"m 974 -265 l -14 -265 l -14 -131 l 974 -131 l 974 -265 z "},"{":{"ha":739,"x_min":53,"x_max":568,"o":"m 196 386 q 155 437 196 417 q 53 468 114 457 l 53 590 q 158 619 119 601 q 196 667 196 636 l 196 1032 q 233 1167 196 1128 q 358 1206 271 1206 q 433 1199 399 1206 q 517 1179 467 1193 l 568 1165 l 568 1090 l 365 1090 l 365 658 q 347 601 365 624 q 307 567 329 579 q 219 526 285 556 q 329 467 293 496 q 365 390 365 439 l 365 -37 l 568 -37 l 568 -114 q 454 -145 493 -136 q 368 -154 415 -154 q 235 -115 274 -154 q 196 25 196 -75 l 196 386 z "},"}":{"ha":710,"x_min":139,"x_max":656,"o":"m 343 390 q 378 468 343 440 q 488 526 413 496 q 403 566 429 551 q 360 602 378 581 q 343 658 343 624 l 343 1090 l 140 1090 l 139 1165 q 259 1195 211 1185 q 349 1206 307 1206 q 475 1167 438 1206 q 513 1032 513 1129 l 513 667 q 551 619 513 636 q 656 590 589 601 l 656 468 q 553 437 594 458 q 513 386 513 415 l 513 25 q 474 -115 513 -75 q 342 -154 435 -154 q 252 -144 296 -154 q 139 -114 208 -135 l 140 -37 l 343 -37 l 343 390 z "},"[":{"ha":671,"x_min":156,"x_max":529,"o":"m 156 1017 q 173 1131 156 1090 q 228 1189 190 1172 q 331 1206 265 1206 q 411 1197 374 1206 q 483 1177 449 1188 q 529 1163 517 1167 l 526 1089 l 324 1089 l 324 -28 l 526 -29 l 529 -104 q 333 -144 431 -144 q 225 -126 263 -144 q 172 -62 188 -107 q 156 63 156 -18 l 156 1017 z "},"]":{"ha":669,"x_min":140,"x_max":514,"o":"m 344 1089 l 142 1089 l 142 1163 q 252 1196 213 1186 q 339 1206 292 1206 q 442 1189 404 1206 q 497 1131 479 1172 q 514 1017 514 1090 l 514 63 q 498 -63 514 -19 q 444 -126 482 -107 q 335 -144 406 -144 q 234 -133 285 -144 q 140 -104 183 -122 l 142 -29 l 344 -28 l 344 1089 z "},"(":{"ha":621,"x_min":93,"x_max":536,"o":"m 447 -232 q 278 -83 358 -182 q 145 160 197 15 q 93 486 93 306 q 147 792 93 647 q 282 1041 201 938 q 439 1192 363 1144 l 519 1133 q 405 997 461 1090 q 313 770 349 903 q 276 488 276 638 q 316 208 276 342 q 415 -22 356 75 q 536 -169 475 -119 l 447 -232 z "},")":{"ha":621,"x_min":83,"x_max":526,"o":"m 100 -171 q 215 -34 158 -128 q 307 192 271 60 q 343 474 343 324 q 303 753 343 619 q 204 984 264 886 q 83 1132 144 1082 l 172 1193 q 342 1045 261 1143 q 474 801 422 947 q 526 475 526 656 q 472 170 526 315 q 338 -79 418 25 q 181 -231 257 -183 l 100 -171 z "},"—":{"ha":1636,"x_min":124,"x_max":1514,"o":"m 1514 625 l 1514 490 l 124 490 l 124 625 l 1514 625 z "},"–":{"ha":976,"x_min":124,"x_max":854,"o":"m 854 625 l 854 489 l 124 489 l 126 625 l 854 625 z "},"-":{"ha":871,"x_min":124,"x_max":747,"o":"m 747 625 l 747 489 l 124 489 l 124 625 l 747 625 z "},"­":{"ha":865,"x_min":124,"x_max":747,"o":"m 124 489 m 747 625 l 747 489 l 124 489 l 124 625 l 747 625 z "},"«":{"ha":1375,"x_min":161,"x_max":1217,"o":"m 632 753 l 681 675 l 357 417 l 681 169 l 632 86 l 161 329 l 161 494 l 632 753 m 1168 753 l 1217 675 l 893 417 l 1217 169 l 1168 86 l 697 329 l 697 494 l 1168 753 z "},"»":{"ha":1375,"x_min":157,"x_max":1214,"o":"m 479 421 l 157 668 l 206 753 l 676 510 l 676 343 l 206 86 l 157 163 l 479 421 m 694 668 l 743 753 l 1214 510 l 1214 343 l 743 86 l 694 163 l 1017 421 l 694 668 z "},"‹":{"ha":839,"x_min":161,"x_max":681,"o":"m 632 753 l 681 675 l 357 417 l 681 169 l 632 86 l 161 329 l 161 494 l 632 753 z "},"›":{"ha":839,"x_min":157,"x_max":676,"o":"m 479 421 l 157 668 l 206 753 l 676 510 l 676 343 l 206 86 l 157 163 l 479 421 z "},"„":{"ha":958,"x_min":131,"x_max":818,"o":"m 275 254 q 397 157 353 231 q 440 6 440 83 q 406 -149 440 -76 q 313 -276 371 -222 q 185 -357 254 -331 l 131 -303 l 131 -278 q 217 -201 179 -262 q 254 -79 254 -139 q 224 12 254 -31 q 154 57 193 54 l 154 100 l 275 254 m 653 254 q 775 157 732 231 q 818 3 818 83 q 783 -151 818 -79 q 690 -277 749 -224 q 563 -357 632 -331 l 508 -303 l 508 -278 q 594 -200 556 -262 q 632 -79 632 -137 q 601 11 632 -32 q 532 57 571 54 l 532 100 l 653 254 z "},"“":{"ha":964,"x_min":133,"x_max":829,"o":"m 299 574 q 176 674 218 597 q 133 831 133 750 q 207 1046 133 950 q 389 1183 281 1142 l 443 1129 l 443 1106 q 357 1027 394 1089 q 319 906 319 965 q 351 816 319 858 q 421 769 382 774 l 421 728 l 299 574 m 685 574 q 563 674 606 597 q 519 831 519 750 q 555 981 519 910 q 649 1105 590 1053 q 775 1183 707 1157 l 829 1129 l 829 1106 q 743 1026 781 1088 q 706 906 706 965 q 737 816 706 858 q 808 769 768 774 l 808 728 l 685 574 z "},"”":{"ha":972,"x_min":135,"x_max":840,"o":"m 135 660 q 221 737 183 675 q 258 858 258 799 q 227 949 258 907 q 157 994 196 990 l 157 1038 l 279 1192 q 401 1094 358 1168 q 444 940 444 1021 q 410 785 444 857 q 317 660 375 713 q 189 581 258 607 l 135 635 l 135 660 m 531 660 q 616 737 578 674 q 654 858 654 800 q 624 947 654 904 q 553 994 593 990 l 553 1038 l 674 1192 q 797 1094 753 1168 q 840 940 840 1021 q 806 785 840 858 q 712 659 771 713 q 585 581 653 606 l 531 635 l 531 660 z "},"‘":{"ha":576,"x_min":132,"x_max":442,"o":"m 297 574 q 174 674 217 599 q 132 832 132 749 q 208 1048 135 953 q 389 1185 281 1143 l 442 1129 l 442 1106 q 356 1027 393 1089 q 318 906 318 965 q 349 817 318 860 q 419 771 381 774 l 419 728 l 297 574 z "},"’":{"ha":576,"x_min":140,"x_max":450,"o":"m 140 660 q 226 738 189 676 q 264 860 264 800 q 233 950 264 908 q 163 996 201 992 l 163 1039 l 283 1193 q 407 1094 364 1169 q 450 939 450 1019 q 415 785 450 857 q 322 661 381 714 q 194 583 264 608 l 140 636 l 140 660 z "},"‚":{"ha":579,"x_min":140,"x_max":450,"o":"m 283 253 q 407 153 364 226 q 450 -1 450 79 q 379 -212 450 -122 q 194 -349 308 -303 l 140 -293 l 140 -271 q 226 -196 190 -253 q 263 -81 263 -139 q 232 10 263 -32 q 163 56 201 51 l 163 99 l 283 253 z "},"ॽ":{"ha":788,"x_min":125,"x_max":668,"o":"m 357 935 q 492 878 418 935 q 617 740 565 822 q 668 583 668 657 q 632 466 668 521 q 544 382 596 411 q 410 338 511 364 l 410 -64 l 382 -64 l 244 14 l 244 447 l 260 472 q 372 487 317 476 q 463 517 428 497 q 528 571 500 535 q 557 647 557 607 q 537 721 557 686 q 483 776 517 756 q 415 797 450 797 q 308 770 357 797 q 203 689 258 743 l 125 839 q 246 905 175 875 q 357 935 317 935 z "},"।":{"ha":743,"x_min":354,"x_max":519,"o":"m 519 886 l 519 -64 l 492 -64 l 354 14 l 354 964 l 382 964 l 519 886 z "},"॥":{"ha":1110,"x_min":354,"x_max":886,"o":"m 519 886 l 519 -64 l 492 -64 l 354 14 l 354 964 l 382 964 l 519 886 m 886 886 l 886 -64 l 857 -64 l 721 14 l 721 964 l 749 964 l 886 886 z "},"॰":{"ha":621,"x_min":79,"x_max":543,"o":"m 79 375 q 121 488 79 433 q 220 578 163 543 q 319 613 278 613 q 428 587 376 613 q 511 513 479 561 q 543 397 543 464 q 501 281 543 336 q 402 190 460 225 q 303 156 344 156 q 193 183 244 156 q 110 261 142 211 q 79 375 79 311 m 207 424 q 228 332 207 371 q 279 273 250 293 q 329 253 308 253 q 388 280 360 253 q 417 344 417 307 q 398 428 417 388 q 351 492 379 468 q 296 517 322 517 q 235 489 264 517 q 207 424 207 461 z "},"ॱ":{"ha":436,"x_min":75,"x_max":347,"o":"m 347 850 l 213 713 l 75 849 l 211 986 l 347 850 z "}," ":{"ha":1389,"x_min":0,"x_max":0,"o":""}," ":{"ha":1389,"x_min":0,"x_max":0,"o":""}," ":{"ha":694,"x_min":0,"x_max":0,"o":""}," ":{"ha":694,"x_min":0,"x_max":0,"o":""}," ":{"ha":874,"x_min":0,"x_max":0,"o":""}," ":{"ha":347,"x_min":0,"x_max":0,"o":""}," ":{"ha":139,"x_min":0,"x_max":0,"o":""}," ":{"ha":490,"x_min":0,"x_max":0,"o":""}," ":{"ha":232,"x_min":0,"x_max":0,"o":""}," ":{"ha":306,"x_min":0,"x_max":0,"o":""}," ":{"ha":278,"x_min":0,"x_max":0,"o":""}," ":{"ha":463,"x_min":0,"x_max":0,"o":""},"‍":{"ha":426,"x_min":0,"x_max":0,"o":""},"‌":{"ha":426,"x_min":0,"x_max":0,"o":""},"":{"ha":0,"x_min":0,"x_max":0,"o":""},"¢":{"ha":792,"x_min":74,"x_max":721,"o":"m 349 -8 q 147 113 218 14 q 74 360 75 213 q 117 561 74 472 q 239 705 161 650 q 418 775 317 760 l 426 924 l 539 924 l 531 779 q 624 768 579 776 q 694 746 669 760 l 694 551 l 596 551 l 551 658 q 506 678 533 672 q 454 683 479 683 q 319 610 369 683 q 269 415 269 538 q 299 247 269 318 q 381 140 329 176 q 499 103 433 103 q 606 115 551 103 q 689 144 660 126 l 721 69 q 610 11 679 33 q 461 -17 542 -11 l 454 -147 l 342 -147 l 349 -8 z "},"¤":{"ha":993,"x_min":125,"x_max":868,"o":"m 349 701 q 490 740 413 740 q 638 697 574 740 l 782 838 l 868 751 l 725 610 q 765 467 765 546 q 724 322 765 388 l 857 186 l 772 100 l 636 236 q 490 193 569 193 q 347 233 413 193 l 213 99 l 125 183 l 260 317 q 215 467 215 382 q 260 618 215 553 l 126 753 l 211 839 l 349 701 m 490 610 q 394 567 435 610 q 353 467 353 524 q 394 367 353 410 q 490 324 435 324 q 586 367 546 324 q 626 467 626 410 q 587 567 626 525 q 490 610 547 610 z "},"$":{"ha":894,"x_min":101,"x_max":811,"o":"m 185 293 l 240 144 q 325 88 274 103 q 444 72 376 72 q 571 114 521 72 q 621 232 621 156 q 569 340 621 292 q 424 443 518 389 q 249 547 314 503 q 144 651 185 592 q 103 788 103 710 q 188 974 103 903 q 396 1060 272 1044 l 400 1188 l 532 1188 l 528 1060 q 656 1042 594 1054 q 744 1013 717 1029 l 744 804 l 657 804 l 596 940 q 534 966 578 956 q 454 976 490 976 q 338 943 389 976 q 286 840 288 910 q 340 721 286 772 q 494 614 394 669 q 672 508 611 549 q 772 410 732 467 q 811 279 811 354 q 717 69 811 144 q 475 -15 622 -7 l 469 -161 l 333 -161 l 340 -12 q 200 9 268 -6 q 101 42 132 24 l 101 293 l 185 293 z "},"€":{"ha":1050,"x_min":17,"x_max":943,"o":"m 646 1063 q 744 1054 700 1063 q 842 1032 788 1046 q 943 1014 910 1013 l 932 785 l 846 785 l 800 906 q 715 945 763 933 q 603 957 668 957 q 442 893 497 957 q 368 706 386 829 l 703 706 l 703 600 l 358 600 q 358 563 357 588 q 358 528 358 538 q 358 501 358 522 q 358 472 357 481 l 688 472 l 688 368 l 365 368 q 443 156 382 231 q 626 79 504 81 q 717 90 683 79 q 786 124 751 100 q 847 268 818 168 l 943 268 l 943 43 q 901 41 922 46 q 840 24 879 36 q 726 -8 782 4 q 594 -19 671 -19 q 298 83 413 -19 q 153 368 183 186 l 17 368 l 17 472 l 143 472 l 143 488 q 151 600 143 544 l 38 600 l 38 706 l 174 706 q 346 970 224 878 q 646 1063 468 1063 z "},"ƒ":{"ha":694,"x_min":94,"x_max":686,"o":"m 94 640 l 100 706 l 239 754 l 244 815 q 301 988 251 908 q 426 1115 351 1068 q 574 1163 500 1163 q 642 1158 611 1163 q 686 1144 672 1153 l 675 992 q 544 1024 614 1024 q 483 1013 504 1024 q 450 973 461 1003 q 435 883 439 943 l 426 761 l 613 761 l 610 640 l 417 640 l 349 -242 l 163 -242 l 231 640 l 94 640 z "},"₹":{"ha":876,"x_min":153,"x_max":824,"o":"m 536 788 q 588 678 578 738 l 822 678 l 822 650 l 765 544 l 574 544 q 473 426 543 471 q 314 353 403 382 l 706 47 l 575 -75 l 258 267 q 210 333 226 301 q 192 388 194 365 l 199 393 q 315 445 246 404 q 415 544 383 486 l 153 544 l 153 571 l 208 678 l 424 678 q 351 788 403 733 l 153 788 l 153 814 l 208 921 l 824 921 l 824 893 l 767 788 l 536 788 z "},"£":{"ha":1015,"x_min":31,"x_max":936,"o":"m 624 1064 q 737 1049 686 1064 q 829 1000 788 1035 l 740 835 q 665 921 715 881 q 551 961 614 961 q 475 890 497 961 q 453 672 453 819 l 453 599 l 644 599 l 644 475 l 454 475 l 454 454 q 439 271 454 338 q 381 139 424 204 q 422 131 399 138 q 467 115 444 124 q 531 93 503 101 q 588 82 558 85 q 621 79 610 79 q 725 113 686 79 q 764 196 764 147 q 748 247 764 221 q 710 288 732 274 l 790 446 q 895 369 854 428 q 936 238 936 310 q 903 109 936 169 q 800 11 869 49 q 629 -26 731 -26 q 503 -10 557 -26 q 388 35 449 7 q 333 58 353 51 q 294 64 313 65 q 125 -19 224 -19 q 60 -6 89 -22 q 31 49 31 11 q 60 107 31 81 q 141 149 90 133 q 250 163 192 164 q 260 263 260 193 l 260 308 l 260 475 l 147 475 l 147 599 l 260 599 l 260 653 q 306 854 260 760 q 435 1006 351 949 q 624 1064 518 1064 z "},"¥":{"ha":996,"x_min":22,"x_max":947,"o":"m 394 106 l 394 242 l 132 242 l 132 346 l 394 346 l 394 443 l 382 485 l 132 485 l 132 589 l 326 589 l 103 947 l 22 960 l 22 1053 l 411 1053 l 411 961 l 328 949 l 475 674 l 510 589 l 524 589 l 565 679 q 640 828 592 725 l 700 947 l 597 960 l 597 1053 l 947 1053 l 947 960 l 853 936 l 649 589 l 851 589 l 851 485 l 593 485 l 590 458 l 590 346 l 851 346 l 851 242 l 590 242 l 590 107 l 746 79 l 746 0 l 250 0 l 250 79 l 394 106 z "},"≈":{"ha":908,"x_min":113,"x_max":792,"o":"m 113 690 q 164 761 125 726 q 253 818 203 796 q 349 840 304 840 q 417 826 388 840 q 483 783 447 811 q 536 749 515 760 q 582 738 557 738 q 655 756 619 738 q 728 806 690 775 l 788 729 q 735 657 774 692 q 649 601 697 622 q 553 579 600 579 q 485 593 513 579 q 425 633 458 607 q 369 669 392 658 q 317 681 347 681 q 244 664 276 681 q 172 615 213 647 l 113 690 m 117 358 q 168 428 129 393 q 258 485 207 463 q 353 507 308 507 q 421 492 392 507 q 488 451 450 478 q 540 417 519 428 q 586 406 561 406 q 660 424 625 406 q 732 472 694 442 l 792 397 q 740 324 778 358 q 653 267 701 289 q 557 246 604 246 q 491 259 518 246 q 428 300 464 272 q 374 335 397 324 q 321 347 351 347 q 247 331 279 347 q 176 282 214 314 l 117 358 z "},"~":{"ha":874,"x_min":100,"x_max":775,"o":"m 100 583 q 151 654 113 619 q 241 711 190 689 q 336 733 292 733 q 402 719 374 733 q 468 678 431 706 q 523 642 501 653 q 571 631 544 631 q 714 697 636 631 l 775 622 q 723 550 761 585 q 636 494 685 515 q 540 472 588 472 q 472 486 500 472 q 411 526 444 500 q 356 563 378 551 q 304 574 335 574 q 231 556 264 574 q 160 507 199 539 l 100 583 z "},"÷":{"ha":911,"x_min":124,"x_max":789,"o":"m 478 981 q 564 951 535 981 q 593 869 593 922 q 553 778 593 814 q 457 742 513 742 q 376 772 408 742 q 343 851 343 803 q 385 942 343 903 q 478 981 426 981 m 789 489 l 124 489 l 124 625 l 789 625 l 789 489 m 478 372 q 564 342 533 372 q 596 261 594 313 q 554 167 596 204 q 456 129 513 129 q 374 160 408 129 q 340 240 340 192 q 383 333 340 294 q 478 372 426 372 z "},"=":{"ha":871,"x_min":124,"x_max":747,"o":"m 747 772 l 747 638 l 124 638 l 124 772 l 747 772 m 747 456 l 747 321 l 124 321 l 124 456 l 747 456 z "},">":{"ha":904,"x_min":142,"x_max":800,"o":"m 607 517 l 142 721 l 142 893 l 800 564 l 800 468 l 142 133 l 142 301 l 607 517 z "},"≥":{"ha":904,"x_min":124,"x_max":782,"o":"m 546 661 l 125 818 l 125 979 l 782 700 l 782 624 l 125 344 l 125 506 l 546 661 m 775 235 l 775 100 l 124 100 l 124 235 l 775 235 z "},"∆":{"ha":1200,"x_min":106,"x_max":1104,"o":"m 569 1032 l 847 533 l 1104 17 l 611 0 l 106 7 l 322 522 l 569 1032 m 546 726 l 288 151 l 831 151 l 546 726 z "},"∞":{"ha":1394,"x_min":93,"x_max":1308,"o":"m 1014 719 q 1169 683 1103 719 q 1272 586 1236 647 q 1308 451 1308 525 q 1262 295 1308 372 q 1141 169 1215 218 q 990 121 1067 121 q 824 171 899 121 q 676 310 749 221 q 538 172 607 222 q 393 121 469 121 q 237 158 306 121 q 131 256 168 194 q 93 393 93 318 q 140 547 93 471 q 261 671 188 622 q 410 719 335 719 q 576 671 504 719 q 724 531 649 622 q 866 668 794 617 q 1014 719 938 719 m 968 590 q 783 458 883 590 q 919 308 858 363 q 1040 253 979 253 q 1115 299 1090 253 q 1140 407 1140 344 q 1116 495 1140 453 q 1052 564 1092 538 q 968 590 1013 590 m 367 585 q 288 540 317 585 q 260 438 260 494 q 285 347 260 392 q 352 274 311 301 q 439 246 393 246 q 528 283 482 246 q 617 382 574 319 l 594 410 q 474 540 525 494 q 367 585 424 585 z "},"∫":{"ha":785,"x_min":15,"x_max":782,"o":"m 578 1164 q 698 1141 642 1164 q 782 1063 754 1118 l 678 979 q 638 1040 671 1013 q 565 1067 604 1067 q 461 1016 488 1067 q 435 851 435 965 q 448 667 435 758 q 486 449 461 575 q 524 228 511 317 q 536 47 536 139 q 497 -140 536 -56 q 385 -273 457 -224 q 219 -322 314 -322 q 99 -299 156 -322 q 15 -221 43 -276 l 119 -135 q 160 -194 126 -167 q 231 -222 193 -222 q 337 -172 310 -222 q 364 -8 364 -122 q 351 167 364 79 q 311 390 338 254 q 272 615 285 524 q 258 794 258 706 q 299 983 258 899 q 412 1115 339 1067 q 578 1164 485 1164 z "},"<":{"ha":904,"x_min":104,"x_max":761,"o":"m 761 899 l 761 731 l 296 515 l 761 313 l 761 139 l 104 468 l 104 564 l 761 899 z "},"≤":{"ha":904,"x_min":124,"x_max":782,"o":"m 782 979 l 782 818 l 361 661 l 782 506 l 782 344 l 125 624 l 125 700 l 782 979 m 775 235 l 775 100 l 124 100 l 124 235 l 775 235 z "},"¬":{"ha":893,"x_min":124,"x_max":769,"o":"m 769 624 l 769 243 l 601 243 l 601 503 l 124 503 l 124 624 l 769 624 z "},"−":{"ha":871,"x_min":124,"x_max":747,"o":"m 747 625 l 747 489 l 124 489 l 124 625 l 747 625 z "},"×":{"ha":904,"x_min":122,"x_max":782,"o":"m 360 550 l 122 778 l 226 885 l 453 644 l 678 885 l 782 778 l 546 550 l 782 325 l 678 217 l 453 458 l 226 217 l 122 325 l 360 550 z "}}}
